<mxfile host="app.diagrams.net" modified="2022-12-19T13:21:18.376Z" agent="5.0 (Windows NT 10.0; Win64; x64) AppleWebKit/537.36 (KHTML, like Gecko) Chrome/108.0.0.0 Safari/537.36" etag="z_MaAbFbznxekYU7yZaw" version="20.7.4" type="github">
  <diagram id="BlmTQVY6EXeM4kGLeMjy" name="Page-1">
    <mxGraphModel dx="922" dy="651" grid="1" gridSize="10" guides="1" tooltips="1" connect="1" arrows="1" fold="1" page="1" pageScale="1" pageWidth="827" pageHeight="1169" math="0" shadow="0">
      <root>
        <mxCell id="0" />
        <mxCell id="1" parent="0" />
        <mxCell id="b5T1ydZQ8Ku-niXFXis5-6" value="FileSystemLogger : ICustomLogger&amp;lt;FileSystemLogger&amp;gt;&lt;br&gt;&lt;div style=&quot;text-align: left;&quot;&gt;&lt;span style=&quot;background-color: initial;&quot;&gt;&lt;font style=&quot;font-size: 12px;&quot;&gt;&amp;nbsp; &amp;nbsp; &amp;nbsp; &amp;nbsp; &amp;nbsp; Implementation #2 of LogInformation()&lt;/font&gt;&lt;/span&gt;&lt;/div&gt;" style="rounded=1;whiteSpace=wrap;html=1;fontSize=16;fillColor=#E6FFCC;" parent="1" vertex="1">
          <mxGeometry x="20" y="400" width="406" height="80" as="geometry" />
        </mxCell>
        <mxCell id="b5T1ydZQ8Ku-niXFXis5-9" style="edgeStyle=orthogonalEdgeStyle;rounded=1;orthogonalLoop=1;jettySize=auto;html=1;fontSize=12;targetPerimeterSpacing=10;sourcePerimeterSpacing=10;" parent="1" source="b5T1ydZQ8Ku-niXFXis5-1" target="b5T1ydZQ8Ku-niXFXis5-4" edge="1">
          <mxGeometry relative="1" as="geometry" />
        </mxCell>
        <mxCell id="b5T1ydZQ8Ku-niXFXis5-1" value="&lt;b&gt;&lt;font style=&quot;font-size: 16px;&quot;&gt;LoggingService&amp;lt;T&amp;gt; where T : ICustomLogger&amp;lt;T&amp;gt;&lt;br&gt;&lt;div style=&quot;text-align: left;&quot;&gt;&lt;span style=&quot;background-color: initial; font-size: 12px; font-weight: normal;&quot;&gt;Generic Logging Service that takes an ICustomlogger in the constructor&lt;br&gt;&lt;/span&gt;&lt;span style=&quot;background-color: initial; font-size: 12px; font-weight: normal;&quot;&gt;&amp;nbsp; &amp;nbsp; &amp;nbsp; &amp;nbsp; &amp;nbsp; Method that utilizes ICustomLogger&amp;lt;T&amp;gt;.LogInformation()&lt;/span&gt;&lt;/div&gt;&lt;/font&gt;&lt;/b&gt;" style="rounded=1;whiteSpace=wrap;html=1;fillColor=#E6FFCC;" parent="1" vertex="1">
          <mxGeometry x="184" y="40" width="420" height="100" as="geometry" />
        </mxCell>
        <mxCell id="b5T1ydZQ8Ku-niXFXis5-7" style="edgeStyle=orthogonalEdgeStyle;orthogonalLoop=1;jettySize=auto;html=1;fontSize=12;targetPerimeterSpacing=10;sourcePerimeterSpacing=10;rounded=1;" parent="1" source="b5T1ydZQ8Ku-niXFXis5-4" target="b5T1ydZQ8Ku-niXFXis5-5" edge="1">
          <mxGeometry relative="1" as="geometry" />
        </mxCell>
        <mxCell id="b5T1ydZQ8Ku-niXFXis5-8" style="edgeStyle=orthogonalEdgeStyle;rounded=1;orthogonalLoop=1;jettySize=auto;html=1;fontSize=12;targetPerimeterSpacing=10;sourcePerimeterSpacing=10;" parent="1" source="b5T1ydZQ8Ku-niXFXis5-4" target="b5T1ydZQ8Ku-niXFXis5-6" edge="1">
          <mxGeometry relative="1" as="geometry" />
        </mxCell>
        <mxCell id="b5T1ydZQ8Ku-niXFXis5-4" value="ICustomLogger&amp;lt;T&amp;gt;&lt;br&gt;&lt;div style=&quot;text-align: left;&quot;&gt;&lt;span style=&quot;background-color: initial;&quot;&gt;&lt;font style=&quot;font-size: 12px;&quot;&gt;LogInformation(string message);&lt;/font&gt;&lt;/span&gt;&lt;/div&gt;" style="rounded=1;whiteSpace=wrap;html=1;fontSize=16;fillColor=#FFFFCC;" parent="1" vertex="1">
          <mxGeometry x="500" y="340" width="300" height="80" as="geometry" />
        </mxCell>
        <mxCell id="zbzZgw3rJqMyJxL2BpiM-5" value="" style="shape=image;verticalLabelPosition=bottom;labelBackgroundColor=default;verticalAlign=top;aspect=fixed;imageAspect=0;image=data:image/png,iVBORw0KGgoAAAANSUhEUgAAALgAAACeCAYAAACBxsDsAAAAAXNSR0IArs4c6QAAAARnQU1BAACxjwv8YQUAAAAJcEhZcwAADsMAAA7DAcdvqGQAAB1fSURBVHhe7Z3pcxvZdcUvNxAgsZAEV3HVLo1mxmOP7Zka50OSD3FVkkpV/iP/L6lUtqpUueIPTsWOM/bYs1iefaTRLor7ToAESXDN/d2HlmiNJKJBUAKa71AQCBAE0d2nzzt3ea8bLl68dCAeHhFFY+newyOS8AT3iDQ8wT0iDU9wj0jDE9wj0vAE94g0PME9Ig1PcI9IwxPcI9LwBPeINDzBPSINT3CPSMMT/ITR0NAgTY0t0tLUqrd46dYqzfpcg355nCx8N+EJI97SLp1t/ZJoSUtMyQ1293dkc2dNFtYfyfbupj3ncTLwBD8BoNCJlpR0tg9Id3JY+lJnlehJex7sKcG3dgoyvzaut4eyqETf3Fm35z2qC0/wKgI70tjQLOl4VnrTY/L6mb+Us91vSW9qTJ9vKr3KYW9/VwrFVbkx+4F89uiXMpd/IBvbOTk42JcD/fKoDjzBqwTUub21Qy73vSvDXddMtdOJHmmPdUhrS9t3/PbBwYFZlbWtRVPw8eVv5NHy1zKh96j77v526ZUex4En+DHQ0NAoLY2tklEidyUHldRjcqnvHRnIXNTnekuvOhoQHQWfWv3WCL5UmJKVjVnJbc7L7t627B/slV7pERae4MdAc2PM7Mjrg38pV/p/Iud7fqCkbzKrEjZDElgTfPj9xc/l1txH8s3U+7JeXJbi7kbpVR5h4QkeEk2NzdIWy0h/+ryc6bgkZ1Ste1IjlilJxbtLr6ockHxta8nUe6UwK+NLX8ikKvvCGoHomuzsFUuv9CgHnuBlorkppn46Y9ajJzkiI9nXZbjzmvRnzqtNiZldOQk8VIKPL30lkyu3ZGF9XK3LjGxur3nbUiY8wcsEAeOFnrfl6sBPZCz7PUsDNmtgiaKfZMGGYJOgM7+5JLfnP5Lbal0gvLct5cET/AWINSck1dpVUuvX1Jack25Vb4LKxpDERnHdbV+aGprtxCgX/B7WZLkwbcWhhbVxmc3dk9n8PQtIfbHo+fAEfwoQLyjUdLT1WQ6bfPZI1xvqvVOhrAh+en9/18i5tVswIu4d7Eq8OWnvxd+xoDTEiUL+HC/+aPkbDUY/tfuVwoxsbK/q3/EZl6fhCf4UyGX3JIflUt+7SurXpS991pXZm+PfKdYcBSvmKPEC1c1r8CgHB1bh7E2NmpenlE9xqFxw0pBx4WSh+pnbXJA785/I11O/MTXf0uc8nsATXEG6LxFLymDHFRnIXDBSU6iBiO2tnaEUFuCP14srlgnhlt9alPWtZVNx0BZLSyqelY5EnwWtWB4yM3yOMDCi723ZyTOxckMD0W9lJnfXHm/v6WihJ9hpx6klOKRtbGySWJP67HiX9Yy8NfxTGc2+Idn2wdKrygdk21N7sKt2JLe1YH0m+OS8fv8sojWq1aH5qkv/Vp96e/4mxIfkFriGzMpQLILk9xc+lduzH9lnKGznVOk3zLZQOT2NOLUEp101qQHk+Z635VzP92VU7UhSid7a3P64KSoMUO01VWmqkQSDRi5UdG/HbMV3Qd9Ko/6tmNqfNmlTGxRYF5Sd5qwwgMBFHSGwLfS0QPaHi1/KvYXr1vOC0p9GnCqC46GD9tWsKjYB5FDnVRlIn9fHQ6VXlQ+COkiFHXHFmQX1wRNGKBS1XDCaNDe1WN8KgW1Hol8yep+J99jJFibj4nAgi+uT1qk4vXpHpnO3zbbw+VD0MJ+t3nEqCM5wD0nIXmTbz8jFvh/Lhd4fWeqPCQgoafk40CGfm+sGXNmYMwLRO1JQoh8XkD2hVoUAlHx7Mt6pn7vNTk5aAHhFWFD2J3+OolMoYnQhu/PskSVaOBUEx2Oj1Oe6vy+DnVcssEtq8EgqEPKHCSIpvKwrsQnmVpXUa0UNHtUWkAqsVj83J2OsSW2LEh3bgj8nRmhVomOtwoIRJq/qvVyYscrog6XPLT44DcWiyBKc0npCfSyFGTIjqPVQ11VTRqaQhSE1AeTOflG9bd6syOrmnMznHxpxTpokFJo4ISE635PVoWWA7QuTtiTQ5bNyYtLbMrN629KKqzoC0dAV1R6XCBJcqavcJYDsS4/JO2P/aHYk2dphah0eQd/2kgWQM6p82JFXga42DULTZ3U0umIjkJsCF96yQHZGIQLQb2Z+Kw8WPtORaElPZH4aLTpEiuB4185En4x0XZOBjkuWy84mB1X5shbEhSEDHpumphVVa3wr+Ww8N1XE7d1Xk5GgdSDe3G7b2aWxRLdaFzoYCZzD5NDdZAus1rIpOEpOfwuEJxCNknWpe4I7vxqXTlW37tSI9KvCjWbfVHKfs4xEWDDBgIIMFUjzrRvT1rbK41oqnNgkCyU4GaF0vMfiDHL6YTMu2K/NnYKOTjc1EP1YptW6LBYmZW1z0Uauei/91z3BUS+CsB+N/YMFkT2pUfOmZEYqsSRUHd3smlum2njTA9k31aslWGaolPYkzqAvnUA0bP4cuJ4ZGrq25L4GoLdnP5Yb07+1GINcfj2jLgmOSlHaHlQbQnkdT4o3JW9cyQGmCLJRzNncSPw1PSOFbQLITVO4WgWBsqU/dZvpocGKoewdTL7QGARLEwZsK9tOdohi1Uz+rsuj68ler5Mt6obgKBYTC/CfTBNDrc73/FDGsm9If+ZC6VXlA7uBD8VvEnDl1GszPKPgdXkg9YuiEH3rZIq6LOuSVfLTt94SKuMSgIyLdS1qEMpkC7JHpETraZ5o3RCcg4cyMe/xghKbvDYqjkpVkhsm5YcFQaXw2ARcEJ6hul4LIJCc/hrSoKRIsW60+aZLgWhY4MHpreGEp2MRjw7hiU2CxrFaR80TnGIHvvpM5pLls+nVoKzOQQs76YBCDL0aZA3IFrBkA+k/nsN/RgmQvM162vstACcYxb60NMdtwkVYsM8o98/nx2VSA1JilBW1MbXe49KUzWZ/Vvq+ZkCAyLAKiQc6LsrlvnfkjcG/kkv971qmhAqkla7LILcLoHatf5pMyFJh0lRoLn/f0n9YFFKCUQN+mgCRbka2cXe/qIKgQXcpWA5m/rvy/9GwqiqZKgtk2+33nE2hbYE4pTYXLKpJBaejD5/9w7G/t24/t7ZfMAMmXGYEr03ASGaEFlZ8pM2s0edPy+wX1Jw8ubN5fdLdPmQ971g8nisXQbaF/bexk9NglMkWH8s30+9bGwCNZ7WGmlNwlLknNSxXBt5T5X5PzqiCt7dm7CCVqzYQF4+Ix2ZYnVW1dt10c+a9+Xm9+uxKgJpjz1B0/HRxr2D7gceWJdL9GqRWXwQU37X4MqWPaXcZfdxs+5ORgsnRtbZfa4rgEJhK3agGRj8c/TtrZ03EUvzEveAIsKMtM7KzoUrtAsjJlZs2OZecLj877WAf0C9OAQsRwFhAWhecupimHCHhNfTDYCUhPKMj3ZS11opbUwRHpQcy520uJF1/NsNFd2K5gMQzSubx5a8eB0G2amsEPXY1ANkLxZwF29gLS8U2s3Z5+fuckYFRAXKTQqS7spZQSffRiQEFYfoWmZIwliQARCagYmYN+Wz6ntn5p3W61lFg3zAbnzoAloV9t6ceOww4KZiQTS2CALTWUFsEVx9I8ONm14QnJflwqnpE+a4vwxU4GHY9/hyIB/sGtWafMW0uWFcxLEg7PjlutYWaIngAFBclYeZMGHCgWOH1Sv978ubQX8trA39hIwLVz7DZlygDQrbHOmWw47Jc1X3Efjrb/T1V4CEThjBwAaxLF9YiapPgfFluNdxOQ42I7KngsTjmYOayDNGrojeakcjjchKcRrK7/h1y2f2mtpCbPh4KaMFEZ1KxvC4cLHlYszYwskeayD6d6Jax7jdteeO3hv/GVIoDXEklr97B/qCHnFbiQLWHu65amy1WLqqoqSwKSyic6/mBEZOUH94ZfQhSV5Uor/2uflHWZ04jEwQ6213hiPfjZ6ZB+veiBPx1MHl5uOs1t0qX9cj3m5KzrysdySiSMTvfAvkigbzLpy+uT9icz1pCbRJcScgOY+izogzf283Mi74SspcfDAUBFQTHwjCdjcjfqnt6j7oxNNu7P/4b9QcIy7ZAYLoK8dTMasKukeFIxTsfT1wOG0yy/8lSWaFIyU36ldQgVU1XqhdP8KPwRMF77LGVhfe2LL/KNDFXqDl4XJSoBBxYfrddSeAakdzC9Sg6DVccwPrMm7vtsv6dzAU5m/2eDHdescnKZJWadJ/xmkphBbRd1oBZtnrDJhVhPT6HxcAT/Ag8TXAHp6hOQVgabVumVm/btWzY6YEyh4GZFlW7oLUUNWe1V9YLxJNCCGKmWu9XoQJJv3dHW68FilxxAnKzeCjbQuoP0lem1jvWXzKTu2PLTCAyjKiuj4epbN+dCOIJfgSeTXAHSE7XH6Rmhz9Y/Nx2NAeDAwgZsReBry7noPI6ThD+LqRG/eyqaEoMe5/SSaD/61/nwL9668J2Ya34jMysR6F7kqO2drnlojWQxIZRAQ5D7EBEKN9TKKPTcip32zovHyhpsTWMcmYZbW98F57gR+BFBD8MOgPpM2FqFcuTzekNZeF42jLHqloQtxKg6PS/kHHIKnncchNNemK55v/nHdyXBYjWrjEEvnos+6ZN18NfM2XNrdJVmRWB3OxDWhyY3PDl1K9tfUOWgKPKyeoE2LkXwRP8CJRL8Pn1cVnSnYmaBx4dT0grLAeE4Ad1Z7YPKnZUl9xh8HqGdT4LhOE9IDxqya219J7B6PEywOehe6+r7YxdE8hsSGrEWl9dRqTViM2IE4bcbAMdgPTIsxgQC+pj/Vyv/KwFk+xjtpPGN+oIL4In+BEol+AsKM+kWMDOJzCkyYcDxcGB7LvqIRmmA1sBKcu1LgGwJ1gBfDmrS2FhnEoqwS0Q1ffSf07Vq6fsfE53krXa32clKxbk5PqbFGggG5+JnztSlw8sBvuLLAiL/dCQRscl8y5Rbmbu2NqFdvI+2Sbsjyf4MVEJwZ8Gh6S4t6H2ZcYOHPMHyY5ABlo7w3TKHYaOA3bCtLWmrerHmiRURe0EI/CqYuYFclNKZ42XoU6Xw3aVWLessgWOnFkVgFlNjIAsyHlr9kO5Pf+xrVPIFD6Wp3tenOEJXgVUg+DAFSI2Sx1y7j5f5CoLK7Kxk1fCu+wLpC8XgdXhBGGhIWvoUrviVppKGfG46jEIArYw4PPwHh1cpjA1aoTqUaVmubZ0IivxmL5/YEVCkttN/liwjMjE8g0LHFkRlxHPtcrSRUgf9/NHIU/wKqBaBD8Mcrd4c1SKJn8yBPjKJlVz/DRkNPtSgU8nqwAhyWQQjEL+gNyk1I6CWZGGZhtZsCIoNDZkNHtN78/rfui2zxiW1HwG5qESGDN6WUZEg8ebs38wn833THpgP5QLT/Aq4CQIfhjYiE1VcA4477GgB4SDDDHdzKHwwNK70SBha3mTbQgal/CxvD/5+6fBCcUIwEL3TMsb6bpmeWyyN/xuJf3wAI/N3+TKyI+Wv5Zv5z+Su/PXLXjkREetw44uwBO8CjhpggcBFlkXAimyLVZ23l131dI9V3Y2xVQClkcwp/6k7yzjouTEvqDIqC/3bFeQusTHc6kU8tXd7cPSmx61jAgdkO4SKm322jDkhrAUZog32Desghss7cDiPRRsbMqeWrNKyA08wauAkyb4YUB2yL1cmJK5tQc2MRkCOGV1a4c4ovPqcEoK2YO23aBUTpCKzcCzY0MopY9kX3M57JjaG932MDbJATvklnfmBMVbcyWHL6f+11bpClJ91VgWwxO8CniZBD8MR5JtyzCwPiGX42PSMmrfquSE6NwqAb+HslM6h/CoNcuqWbWxQhsC+Gz4aApe9xb+JDdmfqef+4abTMzs9gqV+nnwBK8CXhnB9YvMCypIPt2twVcw9bMGrN0tU8HAtoQh++FlFqg2csOGWKovJLkDUmM5WAbDrRqgdmRF7UjulgXQ5rH1q9qoV4KHHRNPBVB0Ch7fzv5B3r/9z/LHh/+lQ/8nqo4sbvPqlhNmhJnO3ZFPJ34pH9z7N/ngzr+acmOxjuOvowxP8OcAsgQZCRaEv7vwR/nkwc/lk4c/ly8mf2UZCrs09wkDUhMsfjbx33L94S/ky8lfWz6bKyfjvV2TmSf28+AJXgawBSxsc3/xM7k197Eq+4eWeoPkBKf5zUUrLB0Xlr/Wk4pLp9BIRtsBhRk8NqPJnYXr1gBFtuS0Xtg1LDzBQ2JTyT6Xvyc3Zz+Qj1XRf3/331Xdrysh50qvqBwHSm4mdnDS3Jj9vdqQ/5AP7/+nfDX1GzvBiBE8wsETPCRc8WbHvDizW1gYnialzyf/R66P/8LUlmCL8jj24SjwfgSGLC93c+YPZoG+nv6NPNDRgkDycCndW5Hw8AQ/BiAdfS545FtzH8rnE7+yJqaHS1+aT2ZVW0fMP89q8BgrwgnASYJiM4GDUeEL9dj3Fj61nndXTj89l90+CXiCVwkuj75i5P5s4pfyf7f+yb6nYkrrrms/daDqiCpD4Hvzf5Lf3fkXVe33XbFJ3+fwaz2OB0/wKgFVfpxLtylfs5bpoETOMs4EjfTAcOMxV5YIfkZKEiUnUHU2pPp57NMKT/ATBG25TL7IaQAKsSlOcSMgheAoOL3rz7IxHtWBJ7hHpOEJ7hFpeIJ7RBqe4B6Rhie4R6ThCe4RaXiCe0QanuAekYYnuEek4QnuEWl4gntEGp7gHpGGJ7hHpOEJ7hFpeIJ7RBqe4B6Rhie4R6ThCe4RaXiCe0QanuAekYYnuEek4QnuEWl4gntEGp7gHpGGJ7hHpOEJ7hFpeIJ7RBqe4B6Rhie4R6ThCe4RaXiCe0QanuAekUZdEpwrBXN991hTvOJLbHscDXfd/oR0JPp0n7eXnq0v1CXBk0purvuebO2U1hYui80139mUyq777vHnYF9yqfFYU0JSrV3Snz6vgpIp/bS+UJcE72zvl7Pdb8nFvh/L+e63Zbjzqh2I5qaW0is8KgXEhswD6YtySffv5f73ZLDzsl1jvx5RUwTnKjU7e0W77vqLwHCZSfSoig9JX3pMBjIXZLDjsilNZ9uAxFvavXUpEw361aJWr11HQ0bF/vQ5OdNxSQY6Lkpf6qw+d8ZGypam1tJvPAsHjy8rXmuoLYIf7Nt1J8u5oi/DKDs9qcrdmxpTtXlHLve9KyNd1yQd77GfcfC8bXkRGqSxsUnaWjPSkxyRseybckUV+1Lvj+WMigaqXY5QcAGt7d0NFafau7x4Uzab/Vnp+1cOCNnQoIrSHDc1CQsOBgFoWtUdG5OOd9uQuy9cdPXlX1D1TOaifpbu0qNnY3lj2q5o/DLBfkooqbuTQzby8Tm7k8OSjHfZ/mOfcRzKxc5+0a7fz3VBuRxiLaGmCH5gQ922qW9HW58dCHZ2uUCNYnpytMXSdkvEUtLcGNP34xZ//F5cZdgZopNFLRE8GPHYLwgAAoJq96ZGpCPRa8/zc/ZhGHJzbc/c1oJd6Xk+/1D2DmrLptQUwSEdw5wOnEZICIqfrgRNkL2pTb16t3S1nTG/3qxER8mLaoFextWEa4ngbDteuj9zXkY7r2ncclFFpNf2EaSuFKubczKxclOmV2/ZVZ1rDTVGcAeClY3tVSM7wUtzA0OmS12VD2d3+D0bCZpadPhNWDCFgsU1UG3Un+kLbORwVxiuLl4lwdnmeEtSujRI7EuftUCcex63qz0Jaghh1DrA1k7BiD2+/LXakq9kauVbWSsuvRIbeBRqkuB23ffiimzvbdoNwpNZYfjDXihlQ6kOB5GDib9si2UsMOUAc8K0qIVpbmwpvZ9R3e6rgZdNcLYTpWbUQ62JQ3o0AO9NjUp3algy8V5JKOnZ3rDERmi4vj4ee6kwITO5u0rwr2Q2f88uU16LGRTQcPHipZq9hjQEpIjDAcmoT+xKDlrqCiWiulYpiPr39WThRCrubNjQmt9alPm1h3ad+WplA94e+VsZ6rxSevRs3F24Lt9M/7b06Hhgf1EPyGrASNCYjmfN6nFyV6rWAbj0+OL6hDxS1V5cn7T9xf7bV2K/DLtXKWqa4IfRqqrU1pKSdo30CYrIdzPckg+nbF8JUGuUB0I7dVqRdSV4Xg/mmh5A0pUoV6U4aYIHgSOq7EamTrNgkJzHlNnNhoUEdm1PR0pIzQ0y5zcXJLc5b9aEVC7BZT2gJi3Ks4C/g3Ds6NXNWbvnIKjVliZVJ6wLhDWV0htfR4HXoGyQBL9KWpEqHsSw39b/AuUz4xJSqU7CovCZUWosFsTm/TnRsSIUaQKPjVUJo9hmzshnqyXc2Mnr/l00+zGh/pr030zujlqTSfPftWpHnoW6UfDDsIBTA0+XEswYMfs1iCKv29nWX8rlVla250ThZNpRz88JhaovrD8yn7mhVibMcHwSCs52sc2k+bildETjhAysHPumnJP7abDd2zqSzebumb/mxvYzsgXxz0kE4ieNuiT4YXBgyY6QN0+1Zm2IhuQ8xqejZKhwJbCUoh5gLAtE39ShmftCcVU2d9aMFC9CtQjeWFJsKovYj6R667RuazLeaSdz5dvn7BnblGNk1JOYEWVF73Mb83VL6sOoe4I/DQ52rwahgx2XrGyPPw8UPbAblcAUbnfLAi0sxfLGjJWnAxIwvPN1GJUTHOvkMkXYr5h+fk7c3uSIBpBDtk3hUqZPwAhkAfaeWr7ddSlsrcjc2gNV7Huq3nct5jjqxK0nRI7gDM8M2ZAaX92TGrU0GdkXFJCfVQLnUfeN5Kg6ao7SrSjRCbqKe24oP4xKCQ55Ey1pG4kIoklrEmQzUhEvcLJWYkMANovPPa2eerkwbUEkASPbxAn7rBO1nhE5gj8N0ovYFaqZRhYd3gkk8bGVVkkhOkpHTphgDNIQmG1ur9n3eFmG/zAER7FbmhL6uVKm0PSFZOI9ptwEkxSqKiU1BOYkJBvibMiMjkSPlNzL5rOjjMgT/DCCHgzK1bTWdrcPSUOjlY0sOKsEpupK6EIxZ2pI5iG/tWCK+P3hn1oz04twb+FPcnP299Yzw+frSboRh5RfpTaE8WYfJTbrtG+pPfpEHix/IcvrU+a5TwtOFcEZ3gnWWlURyT4QhPZlzhnRUfrKAJmcomNRtnYLlksnaBvuunpkQYri0mzuvpGb9F6iJWX2CsJXEi8EWSBUeqUwYzYE5ebks9FF1fw4uf16w6ki+GGQXaGDrle9OV115I+xLdgBF5S6/pdKgHoz/HMS8V4vAlXUDVX/IN1XSUYE30ywC4HJ8EDm5cKUI7laEqxTtaqz9YZTS/AAQVCK1x3pes3y6T3twxagchJUDnZruQoc5rXfBX6/qCPHo5UbMrF8Qyb1njw+ZfQoBYyV4NQTHKCakJksCxYBFae9lgalXvXEQSGllhDYIfz10vqk3bAi+GtGBKzKaSc38AR/BvC+XUwI0GBvQINRK+Er+VF1ug8pvLwK0NzkMiJka7Aiy1aYWVh7ZJYEb01Q6fEEnuDPAaruCi3NpX7qizLUccV6PyD6qwANYAtrE/Jw+UsrOOG1rXCzv2eK7ayOx2F4gpcBgk/SdgSCZFvIeJBTZ3Izz58kCBCxHjQ6LRdmLI9NGpLnSU96vBie4CGBVckk+qyxi3w1Xp3Fh1gkhzTkcWA1RFVkls6gYkrmA4+9qBZkKnfb2lUhtkf58AQPCawLKUSCTuaMUm0cLmVfyKcfB9gMyE1ufH5t3E3AsEpp3mau1/rkglqEJ/gx8KSTsd8mYLjekV6zMtgaFP2ovLYrEhUfd/NZJ59+j98miKQ/5DQVZqoNT/AqATKTYhzouGDldpt4EHOZl1gzixA96WTEhjhib1tRiOIMzU9MKpjL3TdCR6mj71XCE7xKoOqJWpMzh+ykE3vTzLI5b/0okD8oHOGtqWCSCZnL35f5/Lg1axV3ChY4Upn0GZHqwBP8BEG2hV4UAlKC0KB5KlBurAiBI/f0aDtie1QTnuAekUZNLb7p4VFteIJ7RBqe4B6Rhie4R6ThCe4RaXiCe0QanuAekYYnuEek4QnuEWl4gntEGp7gHpGGJ7hHpOEJ7hFpeIJ7RBqe4B6Rhie4R6ThCe4RYYj8P9dRQslMtIy4AAAAAElFTkSuQmCC;clipPath=inset(0.63% 1.09% 0.63% 0% round 9%);" vertex="1" parent="1">
          <mxGeometry x="130" y="850" width="184" height="157.7142857142857" as="geometry" />
        </mxCell>
        <mxCell id="zbzZgw3rJqMyJxL2BpiM-6" value="" style="shape=image;verticalLabelPosition=bottom;labelBackgroundColor=default;verticalAlign=top;aspect=fixed;imageAspect=0;image=data:image/png,iVBORw0KGgoAAAANSUhEUgAAALUAAACNCAYAAADxejtpAAAAAXNSR0IArs4c6QAAAARnQU1BAACxjwv8YQUAAAAJcEhZcwAADsMAAA7DAcdvqGQAABiGSURBVHhe7Z3ZjxzXecVvV8+Q4jocDimKi7hJ1L7ZppRYTmwHSYDEQIAgCOD3/CX5H/Kch7wl73ESyzGiJJIdR0sSbRRtiiIpkqK4DSlxETnd1Tm/c7vHlNRVPSS7qnsK9wCN5iycqr733O8733JvtQ4deqwXEhIahKz/npDQGCRSJzQOidQJjUMidULjkEid0DgkUic0DonUCY1DInVC45BIndA4JFInNA6J1AmNQyJ1QuOQSJ3QOCRSJzQOidQJjUMidULjkEid0DgkUic0DonUCY1DInVC45BIndA4JFInNA6J1AmNQyJ1QuOQSJ3QOCRSJzQOidQJjUMidULjkEid0DikU0+bhGwmtGbWhNa6zaG1cXtobdgWWmvWhbB2Y2it3RRCWz9vz/r3jF4eQt4JvaWbISzdCr3uUujdvBp6Ny6F3vXL8aWvVxsSqVc7ZtaG1uwDeq0LrfVzem0VmRdCtmV3aM3tFJlF6HVb9P0tIvWsSR/aeoG8ayKH29dD7/aNEDoi9fWLIf/8XOh9/ll8/+K8f9a7dS0SXP/Hi2GKkUi9ypGJuNnWvSHbdiBkO54M2cL+aJ0hLpa5JYW5/Grpf+jl9z56mn5Iynvo6Z8iray3Cb/0Zeh9+XnILx4P3TPvhO7JN/X1FyL/rfh/pxSJ1KsQrfXzIdv8kAmcbd0XWltkkWWhs02SHLLKlhd3Evde0ROxsd43JEOufhryxdMh/0IW/NKJkJ87Igsu2YKlnzIkUq8WiKQtSQ30cbbtYGjvfCq0934nyox1c/1fqhiy5rnI3T37buj85t8tUUz4W5IuWgDR2k8eidSrAhB6jS0zRG4//C1LjrB2gwI/yYys3f+9GtC9bQuNLOmeeTd0T/9v6J56W8SWLOlKtkwB2gsLC3/d/3fCNILgbt3m0N53OMwc+N3Q3vOCyH1AweB8zGSgleuEFpADU3mH1pr1fs8IQvM86m0HkZO1k8lSTy2kibMs6ueFfWH2hb+Q5Hg6tB7Y1P/5lIA0oKz20vv/HDpH/y1mSxRgTjJDkiz1tIKc84atts6zz/95aG+TdZaert0yjwJaXxLIuXF5j96NxRAg9QQzJNNhqXFpuFLc2QMaHFwbE4ibW9aMRPO6VedWb4eArlsif6ogRXrORQNyrU2AAsJsw4L087dDG8mh95VLDcZIUoAxIiV3ixz0df2bTEU/VUdQZ4iQjC25a/LdBKLku5kH6fXlIs1KoGvlstLdk2+Ezqm3Qn72/VjUIUVYMyZLaibJGk0DyUrftEMW6WDItus1/7DTVEHu1oNtYvc0ULcigXFz1847Gu8tfhK654/p3+f0K/3iwHLudZUBy7dxe2g/9ESYPfxjSY+DsWCyEvCZXSHUGH2pMbp+OeRXzsQiyrULWvyQm8qhCA80/jYaFG36BRqunW3eEbIte0xuzxHpQacIR6QJdX2kR+foz8PSuz8JPV3bab+aNfbkSC3LQ141e/CxkO14XCTWIK4VgV3SlZWA6Ewm1kLacnlAsTQUBzQ5uLheR65OFjrXpDmXeulE6OoVB1SWewKW4p7BAl+zIbQPfjfMPPaD0Na44LlGWmjIBJlFXnLJvcunrHOdpcBaaox6HRHZRZX+gjcgq/72oHxuiy0pMStLLS3fYn7Ih+vl+5DnLEf0EvnVs6H76Qci9j9qPj62V60TtZOaSUMrZlt2uXBgQm9/xNYBonug7wWavN71xdBdPBXyCx+5CpZfPikLdTFG5dMOrKYsZXvX06H96PfDzL4Xo6W0hyoGn61384o++6VolSH1lbMi830saO4F6UfJ3VZ7l953eo5scLDuZdDiyXU/nQ9esRzpnjuqG8WD1kO12klNJN/e91KYefT3XERg8Fbk2lYKDRw5Uyz10rHXQveTt0P+2a/7P5xeOA/94KGw5uW/0rg8suIsR37+N7aK5IwdWzhXPMYpxXuIyK5e7nrW8hArPhJ4jhtXQufIK+H2G38fPWpNXrO+7Icmrb37+TDzyPf8yijtLluiMREaoElxqZIvsWwsvTgzG601UfmUoi0Z1pZ1bu95PmQPzGlcyiUH1jn/7EOTGc8UkBsmzZhtFH8OuULQKeuLlPEYU8W0MSoCWRFJR4o1/e4/ZGIdqIXUDEBbK33m4MthhorYjsf6FnqEVrxXYF1mFc1vWLDF87XoRIPU05YhYQy06JAbM9LSLnsTGJcAC4i0oskIzYrEsnuvKiAbkFoLKaDNdR1kpNOOloxDAOGJh1qaCxm0HkG8glfr+opRC6npU5h96k/CzP6XFBDuro7MQ2ANby240cGlA5dpgghNEDbz+B+Y1M5GlFlAEax79p3QPf0/UVZ5kdanIN2Cio7XdTO8INXEEjg9uHG79T45bALYqlEpqUnVtXc/G8u7+74TMgWIjrDrBEEPFmPNuvge8pgVISswBcg2PRhmDn0/tB9+wVmGMkJDCjR0fva90Lt8Wp9Bn6PutCXXw9oyhh5bNLf0f5Fc8u/oZ2Sqvrzm7FTVqI7UcvlM0uyhH4T23m850CB1NBIEGMgEWYRwUzqRnLTcrSN8vsZSOE11y4GHKTBKlzOwWGqshhYa+duAxh7kaycF3bdL4M/+mTzY3iiThgEi6fPm5OM/kYUmq4MUmBTQ7hR0+lICY9XKJEM8D0PAQm2vdQCfn/swfp7ltOL4URmp0YZYnxmRmgkr/MBfg0lMnlMfnhZHOsBwtd3T/+ev88vkoM+G3hcXIrFtKSgfl5C6D6epFDzaasjSUMDRFeMPJwBnFbY/Gmaf/KN+4FVg7aSX86tnTIhc4+BFXbeFHoLo8WSA8L4YDOZhGDQ3jD2VTXLo/j/MXUUYP6khr2XHczHwIQVElqMMRMg3LksjHg1dRfRoxd7iqdD7/Ly/b6uKZRgUE+TGbLn5GXloqmVE2+z4UGBSSHAWABPAPWpg8wvHotWZELEprszQRrrrmXhfw4Dnwm1/+r6kx7H4WaeA0AbWlgBVwSPaOtu4rT/2Q8ZfY+6SPbqavY/MaUUYP6kV6JBKax/4HWlpBT62okUWCDfU9YfML34cOiffNLFzKmKkgCDw10lHHpbvk5MVoV0ClmXnutZ29DCg4YqIjdUgB9wRqXGFSJAJ9QGTDSKNh672QhsCVwVFZPqWe4tnNB5TttOE+VHw1xKhs00KyMt6VDTWLS1SZBR7IatCwdXvHWQbsh1PuFpo8mA5i2ALvei9b51j//nb0vbdQIOKBXCz+rH/cKncmrwEDDwTQPBKZD4pZHMPuT2giNCAxU3ZP8fCkSOeNshaOw9NiZ72BKf8hoP+kkwe3DvdXZUcLRnvBRWQer3cqkg9t1N/nTxlwY1rINzVhWYmoqdBiR4BW+a7ANYeYrM4ZO0JpKzb0GxFwQiB48YFkfqw03131Y02DuBNZNloFxgVD0Dq/NLJGDhXGFzdF3RfObvPSZc6IzP8Ph3T9D8329LKPvf9YLykRrPKOmcPPuqbL0bPmiq/eCJ0PnrdQVCMpO9DKw6ITa/BeWly5EvJAnFBSFYj27xTg722sgEeBhY+27G8Sbaw36W/WIkdcNc1NwXdLdx7gmwkO9XPinwDGBPFDi6KQezVQGq0IVv1fdMzJR1deR633J+WVUUqjMsCyWrjCnGDHTQowWURXOmiaWeLyDXvAa8Lznqwx5CqXBGk89m5jZ7253DFcIoBkTWXTjWWLsBWPNZhS3VFuLH+1eVDVMh2FOlEaS4XEWR93P/MYIwtmtff0QKBCASezkcXpY6wEngW9J0lSIn2HzcGlpqOtwK4lZTMjsZqvGNUETAopEq5Z6RSCWLvdnWGZLykpgeXqliJRsXq5FdOx8mqKPBx6giNzhb+Eakj9wtvfVhWWxIEYtfwIkuTzSuQLsrrAqQHqa8RBJkqyEt2yUbR41EGLWr3jlQkP8baejr7zI/CzJN/7Mb/ouoY/b7OVFDqdfGjGkCYbPez1s3kg4tgq35Z93T+qL1IHbD73fOc4o+5wnEiJuBsje5nR53RWRWQnCOjQyq3vf/F/je/CYLK7vFfhNuv/22sO4wZ4yX14R+H2ad/5GbyGAB9E2Q6nL4j+CGYqwqyvK5q7n/JjVSFkHb10VoQpyjAGTO8D5PW25LSMp5s6b1/coGo0nEaJ+Sh2ZY3wyaHQ9/vf/ObwHt2jv8y3H71b+S57zKFuwKMV36wHYuotmCiDHSXJqwsnzkWoEmpON4aUbmiUFN2v1VAbrfVIt1ZMvxkbuhom/Ksx1dAwA9JR82tDB497lVhvKT2za7xpBWiHyhW3kxEwHjrxujFw73WmPmIIEjVNUs1ZczkFKbHphH97NOoTI2rjqum+OJAiCCx5GaZJFZzSQ55LCBbsKISOKTm1f+yDnCtUkL3wRiNK91ZCzTmBLij7tk80auiMa/bRCUkVI7xkhorbPdTEntqhbIFv3IdK0lBBqQou7AM7hXLMrZweQXgmjkXLLuozBj951WP0ziB9yFYHCXnlnnS/3rMGCup0a+xmajkbtFSipCLsiNjA4uHsypoRy0DhOYsjLoxaiGJID7OqyTnP3XAkGBERswtRZpYFKuG1eO11BCaYkEJSdh5Qjm9tIw+DmDhvOm2nNTLJ+dXZTaGgYDKurPkmlg9FuSITbhTBRuSOffTl0IxVSz9VzPmlRRf2O5fdJoP/c8551Scetsn+VQFpAc7b9q7nvV5GkXw6fgXjsVzM6rOyPTR2rLH+XMf4VBQVVyVxRctwmzrfu+MZ+yLwCZcF19++XfTX3xhg603kT7yveLJoovri/Ohc+Rnobu882TMwHWv3xpmHv+hF1hZz3T3xK9C59hr8RjaCgZ4GDiFiaN5s4eejIWqIcCSdT+h8vpu3DW+CuAOzZ1P++ySsiou55R0jr8elt78h75cHS/GKj/oiaZRqczi+TBIjizgRevlSlJbdwu0qHR7NrdL7+WPjsivXXLZ9rcngVYPP0eFKmHZOElL+6BGxmi1gCBx40KhQRuAXS/sMR2Z+rtHjDdQvHklEqSsnRTdha5eOOAd5nH7z7iITfTdjuXxnU/ZWsck/xDgIdB27JRBBlXhMYqg6+aLpxR/lLTGMk6cqUGwS3xQxeIfJzhkUmT2eXvseCpBzjY8+n5WA6kJEgcHMpZW8hQls4vap3pSWh9XJgQirNngv9ve+2K5xZCV9GbfK7TA0vdRo6XmqAA20fpglwL1xzY4xmYQ7NZe9bw7DHrTvemChVgEgmQ4wmkAFQWK47XUNAfdWPRxBuw3LAO7TegpnnniD/W+r0/s+7BGuOuN2+LBkxxrRk93CRFw/90z78kVLva/UyM4I5rWWC9+NtIOmVziAo0J8QAGwK2aU4xBL31pOk+Gg32W3rrHrviKUqnjXf5yJ5CFsynomS5NlaG/WNmyqpmkwvJRCrjauwF/B7enBcIzUdoEX5voEqRhqGCRyErnshQdBWFueqoZvRxN/bkzQaWTS94Xsuw4FF36NFpr7oktWpxlzUHtRXJPIBC33KNPnFaJitKoYx8lR+0cXMh+NSRImYshoFs/L6lwOLQPvtzXwHcnRbznbdOD8cTQR3/fjy4uPRwc90ejkwYXS51PwlIPLNblk96hUyZ9sg3zTkkS8E5lIcaSb71kx0NOVZbNH3KL1uNRGzfuF9Wc0CTisFWJ3SQ+uJuNrSXgnA5nRWien9PgsMsad8vJpVgCJt1BhSyvCOut9vpda+c9z8WNADxO4wFp6LLDbID+DpsUOGOk540B7DqvxmKMQjyxfy5uqigkA59FL55v02/bnSY4y7RT3nH7IRfVyoJaDsLnKV700ruprSJUROq+OxUZneJh+05ZZQw3K7KiiW2RCI548W8IrPdMf8eP05jb5bMyfHg7TyAgizK/24toVJZgcNSYd7CfkfTA9VcUga8UGZtwiQEG28m+DrQ1n6m/uL2xlfRjiXWvCzZc0tEzPNuR9ClzMGz88Y6SHhwOz9MFOHFqVHvq/aCys/RcZJFehawQ1Kt4BWByM0kSBqkNYTXh7V3P+PRUW2QeXyx37H2FG7QIfNTYylSUJcepN0Pn+C/iGRUTJjRtBVjoePDPxhhTDAOLnt0yWHOyNrQiTMHmAe67LSvN/DjTVGRQNM6MPae1dk/+txZkteNeGant0rEs0k98VH9oCF4SSBgDq4TVQq8RCJID1YTGF51r/e41fq9oIO+EAlafGHrqrdA5+qoPmHSfysQhmdb3LvHYrpKFz2dlHEiXUbRBitRUAf06rKGRf5J+fhAVBa5hXqYPYqsuJX8kn4LjqlEdqQGk9i6XjuZN1sY6WcQuOgyxAjjivnbRJzd1T7zh98JjEyYBrJiCa1cPCbawxhB4CGKMMq//E+UHu+Zt9WqshuIZOTGAR+L5JK4tuwrv15DxQOZ1Pvip5UdZFXVcqJbUfTgfu3g6Wl40JCm3msB1/cDKD3/uwydjmnGKYHLKm2H9tOh9LBfELoKsOs8Ct+fTZ/FTuOh4qwMirx/6jxzc96LiHS0wtqWVgNO3eJiUH8pPwaWiNN6dqIXUnjjcJREvLwoOrG4eDVE2gfcKE+VaPBqYY8g+/pXL0m53nDpoktH2vKSkeCiqnyFZ4s4tv0hlEqjh9fhdmu5ttSvQqxij9Vv9KGlqAX5E4IaFeN0icB/94LD761dj3aImuVQPqQFulqT79fjcD2tjNLJd1x0R/r3CGl6WS8TlXLfepZOh8/F/mdT5uSNaSNW7vfuBF7zukbTmctBYEi8MzqTzwTDszHZlkpHEEg6s4X1YRa7NNfAgsshtsk1YaAXu1v4l9xYJ/aWJHE+0fS3q/5pSp/WRegA0FT0XV88qaPg0NvWIzNZq1pMlg1WGfCl23JGDVjDY+fBffYA7h7JPneQYChFBpKbK6Aopj8sYueNcP3bPxXzU4wSRBOIQnM98r59b1+RMEv6msxv7XwzZLlno5bTdCONDYenqp2HpvZ84OHdcVWMtoPaHgy4DF0uZnIILTTAuvGjQeE722k0hrI1HU7mZB3c7mFysMa7Wz9/mmTA8UUDW/ybPK7/gwyGRGnQLelJrHMz7Bu5cgfTM3sPuYSGF6cCwzM0DZEeXwswVP2k2esSL8Z3cPFaSx14TtN15hAFjSrEKj0menDGniUqLytKGvhMWC5sZCPJH3UffW3LqbPeELPRHr8lanzXJ68TkSP01OJe9TVqNwgoumIMbNylooiI5KExo0Ly/DYkhQvuxxZd5bPPx2CAEwfn5aiLyEHixayxmv/2Xdve2wF7UK/diPlqX3PC1C9FSsuhv6IXMyftSjJNf8Y5IHfLgpBU5CH6TiIxxGRiUFUFjLg+Raw4Iyjvv/4uvPYlM09SQ2o1JFFKw4JDY1kOu1JIk6m4DvaZA0BZbFqB3W1bAJWRNlK2Qfr7a0c9HO2124Lt+jIbdPmOxUmgs/OQBEc3WGa/ld6z0YMqx1HphMCAvvTjoaI8/3lHfH3jIUdDftuQ48op37Li4xZxMYD6mh9QJX4WIZmLzAH6eQ8ley80K0EYVr+oGpBV52ZrXPf2OgkIeUaJ4qWwDRMWoP1BMWBmQUGQQaKhfPB1aWyQJ1s1HKzqwsJOGCO1dTgr8l478zJLDFcMJF7cSqacdtoQKAilc8EQryQfSbE75TRh03Tlld+Sn8WhmHsiPzJkwEqmnHVhs9DEZHrZ/OZshSyjyuCcG3TsqKzFGuA4g74Fm9tN3T70Vdzpdvxw1+xQgaerVBKfgMqf5KITMPvOnbr11EaYOaIHliye9ucLtuyJ275qss7NN00OjROrVCDIUFFzYGEEueX6PzzdxcxEpUGeMxqC5aTegIYwDfxT8+SAidjSRSuXUAFpgJ6yfhyGRerVjzQbnlrHc7sumWLJus3PMPteOl59YIAtP2g6pMqgIYmHR7AR8aGFScP13F22QGuw5vXBMVvmky96uB0wws7ESJFKvdvTzzO5T550qLAUsXlt43x3i+XZs1tjc7xUhgyJgibG0BKI+3uJCrMzSbnDxI+ed49O2RG5+jxw31UjLjelFInXTQBHL2+Fkrfvb4nzIJEEl7195zoymHqLKOrt4hXWGvLclOQhMIToldqz3lBP5TiRSJzQO99HrmZAwnUikTmgcEqkTGodE6oTGIZE6oXFIpE5oHBKpExqHROqExiGROqFxSKROaBwSqRMah0TqhMYhkTqhcUikTmgcEqkTGodE6oTGIZE6oXFIpE5oHBKpExqHROqExiGROqFxSKROaBwSqRMah0TqhMYhkTqhcUikTmgcEqkTGodE6oTGIZE6oXFIpE5oHBKpExqHROqExiGROqFxSKROaBwSqRMah0TqhMYhkTqhcUikTmgcEqkTGodE6oTGIZE6oXFIpE5oHBKpExqHROqEhiGE/we+iWuLEsM/TQAAAABJRU5ErkJggg==;clipPath=inset(0% 2.49% 0% 2.49% round 10%);" vertex="1" parent="1">
          <mxGeometry x="570" y="852.3" width="191" height="156.57558139534885" as="geometry" />
        </mxCell>
        <mxCell id="zbzZgw3rJqMyJxL2BpiM-7" value="" style="shape=image;verticalLabelPosition=bottom;labelBackgroundColor=default;verticalAlign=top;aspect=fixed;imageAspect=0;image=data:image/png,iVBORw0KGgoAAAANSUhEUgAAAKoAAACbCAYAAADyUACKAAAAAXNSR0IArs4c6QAAAARnQU1BAACxjwv8YQUAAAAJcEhZcwAADsMAAA7DAcdvqGQAAB8ISURBVHhe7Z1HcBxXesffBAQGkSBBEiIpBjGDUWKSSIlKXEkbqlb2yfZhfbDLh/XVZ1e5fPLBrnKVD7K37NryWrsOu94giVSitJTEnMSccybBnIlJ/n7vTVPjRs9Mg+ye6W68f9UUCGA4AHr+/f/y91LTp88oKQuLiCNd/mhhEWlYolrEApaoFrGAJapFLGCJahELWKJaxAKWqBaxgCWqRSxgiWoRC1iiWsQCA6aE2t6aUoNay59UIF9UKpfnUVIF+bdFNJF4orZmlRrxVEqNH5VWT4/oa0AeCkHv3C+pkxeL6uqtksoXyt+wiBQST9RRw1Pq1flZ9dpzWfX89Ez5q9/i/sOSJui/f9KrNu4vqJt3S6pk23Qih0xnZ+fflP+dODz7dFq90J1Vby7OqjnPZtTTI1NqSHvfx7DBKdUmrkFGBPfSdXEBRFWtGxAtJJKoLWLuO4ak1Iuzs+qN57PyMaOV1QuQE5KO6RAfti2liXq/V6kHvSVVtMoaGSSSqF0dabVCzP3bS7Jq6ayMGjIopdLePH2Elqwoq5B76ri0unGnpC5eK6leCbKsGxANJI6ok8XcL5mZUW+JuZ89yShpPZICntPWklLDhxoXIJVKad+VjIB1A5qPxBA1K3HSYPE3X5qbVSsXZtWKeVkd7fcHadwAIWvXiLTqEMKeuVxS9x5KwCVugLLK2lQkhqjjRom5F3KipAsluh8qpBVRfCxkMibImjAmpe4LUS9eFWWVAMv6rM1D7ImKCk4ck1aLZ2S0TzpnckYHRo9LUuAo60hRZP5dLKXUjbtK9eZsUaBZiDVRIdEgidhfFiX9ziIT4T81uDZDCY54oI48sxqhNVnltbtGprUrQEGAHOuD3vITLBqKWBN1giipY+7nTzXRfS2aFkUNSfBfulES/7OozTvKWQsZibLa21I6B0t+9by4AVSvrBvQWMSSqARO+KSYe5R0/hQx9yNqkxSSUSo9fK6oDp0uquMXipqkPMifVgPKSp9A5zDciZROWd2+X86zWjegYYglUYnuXynnSVeKuR8qSloPmOwLooYfb82rbYcK6uSlorgAhqTjOoWNNUDqCrJ2iapO7BI3QEhO6sq6AY1D7IhKnpQUFCQlT1rPJyX4uf+gpPacKKp1e/PqhPiad+RzuqZwA3pzxk/F162lrCAtT4SwpL1QWtwAXt8qa/iIDVEpi1JxIplPnpQGE6L7WsDc3xZzf0IUcMeRgtp1TEgqn0MuAqq7D0RpJZKHrKg0RMUVqBZgUQhol++Plp+bFZnltcizWjcgfMSGqMOHiLlfYAInyqM6cKrNU02g02LiPxJzf+iMIak7CKKuf+k6LDNq+bRE+bUqWfzMViHrKPFZKbee6ymqyxKcWTcgXMSCqHRB0WACSbsnZnTVqBZJUcwHYtZ3Hy+qLQcL6tj5Mkk9VA9l1c8XUqOsGQnUIOLgGm4APzubkeeICvNAaXEDeH1eyyJ4RJqoND2TdF/abXKkNJhU64JyAFFu3zNKCkl3Hito81+PQLgB94Tc1PZJWxGg0ahSzw3A/cBduFIOrii32tRV8Ig0UTuFlK/MM/2kL87JaALVMsuAwAmfFHOPkkJSv/4jqSfMOCoLSUcPT+tUWDVAYp6Hws94Jq3/7+XrRpktV4NFZImKuV86S8x9Obonj1mLpAROmG+i+x2HCzpf6kdJK4ESoqi9eUO2lpb6bgC/U4s8Z/jglDp1qaQuClFpE7SqGixqJxCbAN30LAr13DQT3b/QnVFjO2vLKIqJD3q2p6S2H86rHUfNSMnjzj/Ri7r3ZEHnW0+JC3FPVLqWKreI6pImww3w21Zo0T9EjqiYW/xRAidSUUTitYCZJh+Kmf/dhpw6fLaoP+frTwL83F3i324VP3ffSXlNUWuL5iFSRJ3cxYxTRr25yJh7EusELdWAYt4VtYNI24+Y6B4lDSLy5rV5retixm8JaW0031xEgqgELARKJPG/I+ae8mg9c49iYpIpi246kBeTX9DmP6hxZ8x3m/io7dpPJctq0UxEgqhjO9Pa1FMWhazkMmuBQAWSksT/cFNON5gQSAUJfM4FUzNq8ayM7nGtV161CBdNJSpm3Wl6hqgQol4wgmLeEVO8/1RR7ZSgCbISZQelpIAMw7TxabVQfq/p4zM6l1srTcXP5sa5frukbtqIPxQ0jajkIAmUFgkZyJMS4XeNqK9aD0U5yVV+tVvMvfilQZp7fjo3iTMgyA3k93fquVFSpy8X1YVrRd95Wwv/aBpRUVLH3M97to6tF/Dm3xVS7j1RVB9tyakzPcGb+w5RTm6cJWLuZ03M6GR+LeAnkx34RpT93fd79Udyt0+acbDoi4YTlTwpe6AYwKPpGZLWUy3dBSWEwMzvOl5Q+8TsY2aDVFIyDFPHptUiUdIZYu5xQeplHFDzPfL7fL2noL4UhT8rN4+tSoWDhhOVoIQUFEr6+nPZurV78DBnovs1O/LaLyUlFWS6CDeETigCpyUzs7qNrx74nXBBfrc+r1ZtyqtrcuM8FJJahIOGEpWyKB35mHzypAQo1Zo+AGTE3NMF9cXOnDp3pagbR4I0rQROqPtilPSZjG6EqfU74YKg7qTDfvpJr1Z4u1gtfDSEqLz5THI6ZVE+MixXC5AUQpDEp0IEWYOM7gma6HHl5oGkMyfUH7N25q4OiOuxTsz956LwmHvU1SJcNISobMt7eZ4x93xkgVk9ECgxKcqM054TBZ3+CdLco+YzJxhzv1jMPSmoeqCMCjF/+WVOfbY9r28cFlNYhI/QiYpi0ZFPWZSmZzqRmDeqBlQLUu4RBd2wr6Cje1QsyNwk5n7elMyjPGl7q8npVgM3CL8D5h6S7pYb58pNc+NYk98YhEZUzD2EwMy/IeaevGS9sqg290KIkxdL6psjBZ3uIYEemLmXv5aGaMfc4yfXzTiUSXrkbFF9vbugFd6a+8YjNKKOHJbWW54x98skymdkox4YH6HpmbLogTNi7uXzIJWUAsPsScbcPy83EC5JPdCJdVz85J9/nlNrd+WfqH3Q4vERClGp7CybbbqgMPfsHa1pWh1zf6KotpZn7m8JIYKs8JAGmz3RlEWnjctoZa1VFq0096s253VAx5JfSGrNfeMRClExqajpstn1u6BQTPKi56+U1LZDeT3WTLQfpLkndzupyyTzKTDUyzg4VbBTF4tq7U7ypCY1llRzzw3LjUsWhMKH80BgKNBEoRE8lMMm/vKdVvXO8ha9G6qWaqFMKOmB04YQ+H70f6JmQYEuqO6yks6dXF9JATcKv9P/rM3pytNZIWmSlXTsSJM6HC1WZ8ig8hcFVP82HyzowgZi0kyEMjP1+vNZ3SJHhF8tL8kbD0mdLijKomwwCZKkugtqnFFSzD3mv1bGgd+JFBQzV2t3FdS6vcbcM/SXRKCUrCji+uCm0b02fXxaB5s82O/1lNzYpOCu3xZ3SLjarJs1FNPvBwzR3dB3rJlxwh8MytxzczDHxMXmTSBwqmfueQMInCjVkiP9YGNOXbyWXHNPzDBIAlyacN4uNwdxKAfK6jyWz8mqP1nZohvZWUJXa4tM2GgaUTVC+qPxtZ6jLCrRPf4y8/f1wI2Cmf/Jh71qmygq5j/JfaXjR6c1QSlnY/28CEgDO9dyxbyM+tM3W7Ta1prIDRNNIyoXgZTVlLFpNUl8WcY+amUG/GKkY+7LyXzMv5+JAdoHvxRzv2G/+KQ9xtwn0SfFPyd2oNcWcz9XgkuacLyIimuAik6W92j5XHOoXPektA5Og3iv+oOmEdXZgsIi3hfE5JDTrBfk+MEUkvnlLig/Tc+AKP9TMffvi7nvuZHsZD5btJ1TY+i7qLdoDrDpkP7hP3otq2faKIFn6/TqBo1Qgin2jUJCFo7VJJ/8rWx0Rk3HdKT1ZjxM8OMEVPw8TueDpDOfMdG9X38KRf14S14Cu0JgfnIUQX7b2dBN4MQ18guuJZaJIUz8ffocbt8zsUYjEApRW+Vu44+CPJgO7mIv8FXt1IspISJHyejpZCYKs+vH9HIBRww1m/XozKdVr14XlBsQdfXmnDp4JsCUQ4RALpQDi7k+emUnqSgPJeUmpRno5l1zXSsnHPicxXB60Ya81r3yrq7rd8z7FLabFApRWRjGRmZA4pgWv1qArBC6c3halzlpRMFH9KNuKLZWUjFnS8XcD5UL2R+SAoj66ba8OnoumUTVKzslckdJ2eVVbWUnxOu5WVJH5Dqwyoj/5wYWEFWdOMa4arQ8oqphW6JQiMobD9HoegfOIrFaM0j6DpY7tq2VC5vWylpvdxSBEiVaSErgRCXlcaooSSbqsxIIUSGEpN2TvFd2QjJSc+SPtxwq6GIH5OO8LXeBhP/Lg10HWEKUmfcJFQ6TrKEQFUBUWuF09Cyfs/iW00VQzmpw3ABMN5OdrILkQDJ3opmkPYloontIyiCeNvfl7/cXSSSq073G6dqsSOI6UXlyAyGgQ43jiTYdMFu5maRl9gugqsQQ1dwAgqxbQtJbQlY+ci3DcANCI6oDuo1YxwiL2HhHgFULKCI+bsdTaX03X7gmfquQtvJu5cIRDHDxKY3yvMdRUgdJJCokxdwzir6syspOCEV1kH1dq8RHP33ZlEr5Or0ON8T/5H3j/5L2c0MfbSSuGsHVkDalrx8ED6OZPHSiQjDMOPubuNEIrFBDfCAvOKaFO5h1Oigsf7jTTcXOVAImSDp1nNlP9SQkBUkjKuYeJYWkuEaQzH2NeF8gI4uOqQwePcfx79+6WnzM5Us6aOJ94/0YLGR0KyvWjcZzCMt7i7uHnxs0QicqwN8xe+4NWYnwuUsr/2g3HDeAXCjuA5UiLgwpFsqiBFBepqwSXGzI7ZC/GpJCVKJ7TDU+KeYeJfVSQq4Jlo6glVFv+i1QUq5DJSAzTUKOG4B/CyHdKUdiCypWXWItD52B9MFfx4YQ1cEduTu1GyAg8mTnVC1oZS37QjwX9aQkSjWFQ3lrNZiAe6IYHCaBetdS3aQQlRSUE91jcbzMPX+r0wz0yTZj7vm8ll+J0tKUghsAUXEr3DAKrNRm8XNxJYJGnbc6WHBBaOVbJ3cxK3l2Hy9ol6AaICr5WMw9eVJq0lPkY70qFo3YmDVW/ny5K6+LCEkHloamEt2sXo7u3WVOFPKWKKQ290fy6uSlkq+t3JxNgAKT5GcKwwu8VwhHLcv1JAilH9UPGAmhdszdj69JgBQEUAwKBuevFNV//p4OqJL66x+1qWdGV78neQP/9mcP1BffiCTEEJDj1QXZRw8ifje4LpAUc//RFnO+gd8eU0QB4lN6ZdsiVs0NVPfarZL6h18+VB9uDP46No2oROpEixCV06FpkggC+LL7TxbVr742Tc+4C3/3F+26w78aMHtH5Y3jQscVVAHxR72CSxSTQzhQ0o37CnqZW3+WE9OzOkeEhf6JcaNMbtUNLBgZmn/6zUN9IwSNphEV4PzPkbtz+VzTJMFOKq9qiB+gipynz4wTrsUn4nNSHWN2/+9/3K63WQ9EaHMvZpu9XZh7FnkQ1PohKVZu1PC0mj/FTADgXuD3ukHpm4M2uAkY2+GGCBpNffdwvvmj1mzPq0+35vVckt+7vBIoIhefbnzGmemCunjdjjRzXVBSruvvd+bULiEp5t7PNUaVCWIh6aIZponFi6S4FBQM9p4oqF980atPowkDkZAZuupRQCJv5vlRAb/gzSBYYkr0nz/oNcOB8nmtKHYgwAkoEQImFjhZsD83Lj2r+KRLZmHpvK0cr3ftZkl9uCmvl8WxIzYscYgEUSEWs/NsRuEE6MNnzeKxeoDQKATZg692s/6xYvXjACYq14UInRQUS9ww+/jukLceMPdjJXYg2CXLQokUZa0E15ZrfPZySa/bZDEHiqrVuh8i0x9ExnGDV7vl7kdVeUC4euDuZULy/Q15fVfjk9rVj3JdxA3i+n28VQLKE/7NPaCxB3+UwGm2mHuqTm5AVIiP9cKKodpYtTDFIVIRBv4O6SS25H0mZGV2Cd/TDZ7HhSJw+rePek0+VhR4oJt7lBTCcF3Y6oLPDmn9gmCJ7Avm/ulO7yIJr8fQI2d6Ed1j7jlKPuxL39DKlB9QLkUZ+UiwRRKZLiz8WOfBsgrSSRv2GgWmtuyU+dygF5ZjKskDJhmYXIIaXCi2zTB+7ldJMfekthZMyWhzP228GXWvBCJAzwXzZLQDQlLmzPgZjRCIpqanaoGkNfk6usndVSguDFWum6Kq+GJ8Xu1izZeLPxDSUyjpQSHn6i2myNGfgNIsoGACIKtHzLNy7d23NTcC1/qTrXldSDl/VUgqPwPr1ghElqiAEiC1ZXdZjjcAM5eXq1TPefdDVJo0MGU0DEcNg8RHJKChv4GcsBtcB8wx5WIyHxQ7qBLx9XrAtBPdEzhpcy9BlNfiOF4fN4LKHU0s+KZ+c7FBIdJEDQJ+iMqb+lfv3g+lovKkcEqX77zUoosibjzsNf76b9fndLse//ajpJh7onlee4EET5RF3T6pIwgEZgS6/7U2pzMIzeidSLY9HAioIFdfLawOKk5OnpRJCa/ACZISpJL2+9lnOT1LxVxVM2CJGnGgagSW1Uw57tHgdjPxwBbtYeLX1+os43vU7p2KEzlT3Cs3MPfnREnp/CdHfeJi2SdtkndkiRpx5IUYNJDcEGXzStpDPDbOzJ+aVi/MymgS4md69erSW4ErQYMJudJZE72T+fwMfFJ8XipO+KSY+0b6pG5YokYc9H+yln3TPgKZvCasF1BF8qA/eDGrCTikrW8elOjeMfc81wukoIjuCZzwSU9dkuCsSea+EpaoEQcqhppRDqUQsu1QQTeZuIELgJIyL/XctKwOIulEQ3FJ9U0YnRb3IK37Scd1mlEgNzD3nERDCoqVmzpw6kdVK0xYosYE9JCys/Wz7TldV6fr3u0vOit3FogbwDFJNJNAXsqic59lmbE5iM7dT4q557UYzCO6/8UXOV3d4gZplk/qhiVqjIAJZiaJTrMvvsnpip0XcAOYaPju0hb15uIW9dLcrFranRVV7auigAog26VJz/16XU7P9XuVrpsJS9QYgcjfBDlFfS4sxxtRIXJDuwGiotOfoQPKdEFBXK/OfBp7UGt80nV7CmrfSZMnjYK5r4QlagyBH0nTzqfbzLiNV4IfsuIGUNWaIYSlwuWGae5ROrr/l1WmlxeSer1es2GJGlMQnUMs0xYp5tpDWWsBJe25XlTvb8jpYbyr4kY8zEeQoWVYosYUBDnnrpieUHxWxkwuCfHqNYnoAkK56Xm9RPZs2aZNMsym5yBgiRpz0PbIvBmqCmnzddoVnF5eWgF/IuaeA5FJQUUdlqgxB8SjxLrrqARY2/N6iM8rzwp007O4CJh75qguSmBGp1UUfVI3LFETAhZLUAyAgORCISvd96SwnMfxC0W9/9TJGNDTG2VzX4nIdfgHDT8d/qgSQUncd09RBDjTIyqpz0JQutxKEzUTqDy+2lNQH2zImwYTIWkMhPQRrKImCORZSS/tOynKKqr52/V59Zuvc48e6/fmdc4UktYLuqIGS9QEAvVkP8LXu/N6yM95HDxtSBq1ZL4fWKJaxAKWqBa6y4qZrGWzM+q1BdlHD477YekyB0s0G5aoAxiElzSwUGaFmD94sUX94YpvH9+VIJSDPEY+ldYl2erhaPiwRB3AoC2Qw9G+tzSrfrg8q16dLypKY3X5AXn/7HucLm16W3l+s2CJOkDBHtV5Yu5fWSAmf05Wj7B0jTQnKDoPzuunAZt16yxdZkKgWW6AJeoAA+abrn/Gx99a3KJWPs9KSe8pVGdqgEMr/viNFj3iwhFMYa0/rwVL1AEGc7q0WUm/cqE5SK4eHp0u/boQm9Olh3KiTfmbDYIl6gAC5r5bVBGf84XZZsCPCdZ6QIHxUZlcXSFuwMtzy25AA8lqiTqAwF6pt5a06JIyI9P9geMGcPLKn3+/Ra8B4gimRsESdQCAEZQXRUE5ye9VUVPOifLyM+kV4BwwxlGqzWPhBozrTKs/eNmkrziCvhHKaomacOBPTh+f1gRd1p1V0+Tf7pWS1P0Z8GPH1N7jBb1wTZ8Sc7tvdxVuAPNYHLjGUUFLuzP6fNuwfVZL1IQDkmLqeczw2AYIaLammXrzgbxe4UOPwKb9ebX/ZEEv6XWDDAHn2S6cnlE//mGrHh5EtcPMBliiJhSonj4CXaJ0gp9Rw/rumQWYe45AZ+kETSucfcqoNF9j4/fOowXdKugGpIScLLagYPC23Ai4FGHlWS1REwiCnqljORkxo5bPyeq9qoPayt8sQ08G5JS6cKWo9p8qqI2ipjRbOwd14KOas6kK6th5c/iHe1EbxGd3FeaffCzFAcqtYcASNYHgLFTypDymCGG9gE/Kjqn1+/JqgzxYL+k+Z5+WwD3Hzap1ZwDQC4xl8zN/9Gar57LhIGCJmiAQOBHkOEra1ZHuc8YsaumYe92jKqrJmQmopXt2iklX9qHyXFb8sErIyw0gdTW0XekVQkPkYxiwRE0IUDXypCsXtqgV8zhhum9dXo9Ki5Jevl7UUwCc8I25r3fkEW4A/iur4/m/XmDNJT8P0oYBS9SEgCW+OrpfnKm6Ywr/88qNkj4afutBsxWl2oLgqMHu8Bdg4qJ62IRfzBLfcOYEcyCFO7rXSiokxYTvFSUlQOKsKL+Hx3FyNd1VtP6xz4qEvxtMtFIs+Mf/fahWbxbZDhiWqAmHY+5Z2UPQhF/KinN34OQFUlAk8llVyUFp1Pq9pnnJINy4bcax/3V1r164FjSs6U84UE2WTny+I6dn+YncWbfuB/i99KyipLgW1Wr7EJ8U1398Zk5NCQOWqAkFKgdJWW2OqeckP8w9aSl3dO8FOq0ot1J9wtyTzG9xuRT4t5CUiVd2WJEZuHLTEvWxwHuCD+rnzUkSINHtuyVdWfpcTLFfnxTNpEQ6SVwlUl2LxOR7+aSAChaHJq8Sn/SDTTnVIyT16/f2F4knKonsdXvyuslioIA86dnLzunS5U19Pv/8b0+Xzqg54psy/OcGNz29ASj1uw06XTrxK30ICIh4SXx3yJvAhfeqeScBWA5MO9tQSM5TUWL/FMGUHxAocVgFSkoDC+uQ3McAOeaeBcKcP8WuK33IckhK6iDxRMUU0b7GRyJYBtYIEpIISIqyQaB1e/O6TY+v+QVlUGcCdcTQtGc3FOcIsDT4vTVkEArqqkcrYBhIPFEBgQXmkNo2/ld7S0oHB0kCfx9KSjKfKtKVclnUD2h+7p6Y0UrKHD/m362kqDU3AR1Vv16X174vgVOjCgaJz6NWgrY03gwUg/xqHOB0KDG+TOLdDW5CFO20RPf4oxCV4+H9mGIUk9emcYVrAkm7RvT9Gbw+x6ofkhvgUzH1qzfntI/q16UIAgOKqKhpWyv+amPGJ4IAQ3U0JtPvSUe9GxDyjpBmtQROOyW4QUkJnPwENtTlCZxIQUFUJlS9avUo6YkLRfXTj81Wa2cFeyMzKQOKqHEEAQ4kCvoY9MqyKKemME7i9kkh/P0HZo06Fa2N+wrqwrWS+PuNp0zi01NxB5RAvXh4ISXvYEb4S4K+Ux4EjF7LJBzwPVwgh6SzJ2fU2E5vkkL6w2eLusuKRcem06rxJAWWqBFHSQhDYj1f8CYI1SKOPmeMmRP6RooC1xq043s0rkBSTD6BlBdoMjl2rqjLomyq1h3+8rs0CwMi6o87CsWUVkH8VVJrreJjO0AJidDxu9vF/+Z7BDleSf6RwyiLmgYTyqKjhnvnSWmW5jyANTsKasvBgu6K6k+aKwxYokYckA014yOkHDOCPDDZgP+vhGQHIPH4UWkhKak4o8S4DCaITKmp49KapPMlOBvT0deYOiko0lyrNuX1+VUEZ80mKbBEjQkgH8oGWMPDSh03IGRLNqVTTigwz+8VnxKVZTMKdfsFEuXz/WrRPZ3/P1+T19G9k0GIAixRYwLHnN+XKB9ARLaWYPIdOG4AZWLOPuVzSN05PKUWls09SuomKeaeihPJfLqgOKu/52Zj86T1YIkaI0AohuucadAuUVX8Vrefqd0AITJuQOcwIae4C/PF3DPb7wapLF7v0rWi+tVXYu7LtftGVZz8whI1hqBcillHMVFU0ktu8D382CGDTOpqqCirm9CQFHPPAWrvfW7KokwCRMXcV8ISNYagGkX7otP72THUTJy63QBMPF8b1NaXpDq6FyWl6//L3QU9PqK7oCJk7ithiRpTEM1TJSIjAKgs9afRhjNQaXp+b01On6F6DXMfQSV1YIkac5A6crIBrRLxj5Zgya2elYDgmHvGRv57bU7tOi7mPkLRfTVYosYcmP/K4IfgiYabSjfAAc+BpDRVE93TCYVPGlVzXwlL1ISAdNL120ZZSUehrG5QcWJEhaZnyqKY+6grqQPbPZUgsMVvwpiUPm6H1kB9NlQFX5m7Z2J088GCunC1OV1QjwtL1ARi7uT0o1p+5XwYM/e7jhXUrXvRKIv2B5aoCQSDjJRNUVPSVA5Iazn1/0Y2PQcBS1SLWKBGIsPCIjqwRLWIBSxRLWIBS1SLWMAS1SIWsES1iAUsUS1iAUtUi1jAEtUiFrBEtYgFLFEtYgFLVItYwBLVIgZQ6v8AkJQg+HP8YVMAAAAASUVORK5CYII=;clipPath=inset(0.32% 0% 0% 0.59% round 9%);" vertex="1" parent="1">
          <mxGeometry x="370" y="852.3" width="170" height="155.41420118343194" as="geometry" />
        </mxCell>
        <mxCell id="zbzZgw3rJqMyJxL2BpiM-8" value="" style="shape=image;verticalLabelPosition=bottom;labelBackgroundColor=default;verticalAlign=top;aspect=fixed;imageAspect=0;image=data:image/png,iVBORw0KGgoAAAANSUhEUgAAALUAAACNCAYAAADxejtpAAAAAXNSR0IArs4c6QAAAARnQU1BAACxjwv8YQUAAAAJcEhZcwAADsMAAA7DAcdvqGQAABiGSURBVHhe7Z3ZjxzXecVvV8+Q4jocDimKi7hJ1L7ZppRYTmwHSYDEQIAgCOD3/CX5H/Kch7wl73ESyzGiJJIdR0sSbRRtiiIpkqK4DSlxETnd1Tm/c7vHlNRVPSS7qnsK9wCN5iycqr733O8733JvtQ4deqwXEhIahKz/npDQGCRSJzQOidQJjUMidULjkEid0DgkUic0DonUCY1DInVC45BIndA4JFInNA6J1AmNQyJ1QuOQSJ3QOCRSJzQOidQJjUMidULjkEid0DgkUic0DonUCY1DInVC45BIndA4JFInNA6J1AmNQyJ1QuOQSJ3QOCRSJzQOidQJjUMidULjkEid0DikU0+bhGwmtGbWhNa6zaG1cXtobdgWWmvWhbB2Y2it3RRCWz9vz/r3jF4eQt4JvaWbISzdCr3uUujdvBp6Ny6F3vXL8aWvVxsSqVc7ZtaG1uwDeq0LrfVzem0VmRdCtmV3aM3tFJlF6HVb9P0tIvWsSR/aeoG8ayKH29dD7/aNEDoi9fWLIf/8XOh9/ll8/+K8f9a7dS0SXP/Hi2GKkUi9ypGJuNnWvSHbdiBkO54M2cL+aJ0hLpa5JYW5/Grpf+jl9z56mn5Iynvo6Z8iray3Cb/0Zeh9+XnILx4P3TPvhO7JN/X1FyL/rfh/pxSJ1KsQrfXzIdv8kAmcbd0XWltkkWWhs02SHLLKlhd3Evde0ROxsd43JEOufhryxdMh/0IW/NKJkJ87Igsu2YKlnzIkUq8WiKQtSQ30cbbtYGjvfCq0934nyox1c/1fqhiy5rnI3T37buj85t8tUUz4W5IuWgDR2k8eidSrAhB6jS0zRG4//C1LjrB2gwI/yYys3f+9GtC9bQuNLOmeeTd0T/9v6J56W8SWLOlKtkwB2gsLC3/d/3fCNILgbt3m0N53OMwc+N3Q3vOCyH1AweB8zGSgleuEFpADU3mH1pr1fs8IQvM86m0HkZO1k8lSTy2kibMs6ueFfWH2hb+Q5Hg6tB7Y1P/5lIA0oKz20vv/HDpH/y1mSxRgTjJDkiz1tIKc84atts6zz/95aG+TdZaert0yjwJaXxLIuXF5j96NxRAg9QQzJNNhqXFpuFLc2QMaHFwbE4ibW9aMRPO6VedWb4eArlsif6ogRXrORQNyrU2AAsJsw4L087dDG8mh95VLDcZIUoAxIiV3ixz0df2bTEU/VUdQZ4iQjC25a/LdBKLku5kH6fXlIs1KoGvlstLdk2+Ezqm3Qn72/VjUIUVYMyZLaibJGk0DyUrftEMW6WDItus1/7DTVEHu1oNtYvc0ULcigXFz1847Gu8tfhK654/p3+f0K/3iwHLudZUBy7dxe2g/9ESYPfxjSY+DsWCyEvCZXSHUGH2pMbp+OeRXzsQiyrULWvyQm8qhCA80/jYaFG36BRqunW3eEbIte0xuzxHpQacIR6QJdX2kR+foz8PSuz8JPV3bab+aNfbkSC3LQ141e/CxkO14XCTWIK4VgV3SlZWA6Ewm1kLacnlAsTQUBzQ5uLheR65OFjrXpDmXeulE6OoVB1SWewKW4p7BAl+zIbQPfjfMPPaD0Na44LlGWmjIBJlFXnLJvcunrHOdpcBaaox6HRHZRZX+gjcgq/72oHxuiy0pMStLLS3fYn7Ih+vl+5DnLEf0EvnVs6H76Qci9j9qPj62V60TtZOaSUMrZlt2uXBgQm9/xNYBonug7wWavN71xdBdPBXyCx+5CpZfPikLdTFG5dMOrKYsZXvX06H96PfDzL4Xo6W0hyoGn61384o++6VolSH1lbMi830saO4F6UfJ3VZ7l953eo5scLDuZdDiyXU/nQ9esRzpnjuqG8WD1kO12klNJN/e91KYefT3XERg8Fbk2lYKDRw5Uyz10rHXQveTt0P+2a/7P5xeOA/94KGw5uW/0rg8suIsR37+N7aK5IwdWzhXPMYpxXuIyK5e7nrW8hArPhJ4jhtXQufIK+H2G38fPWpNXrO+7Icmrb37+TDzyPf8yijtLluiMREaoElxqZIvsWwsvTgzG601UfmUoi0Z1pZ1bu95PmQPzGlcyiUH1jn/7EOTGc8UkBsmzZhtFH8OuULQKeuLlPEYU8W0MSoCWRFJR4o1/e4/ZGIdqIXUDEBbK33m4MthhorYjsf6FnqEVrxXYF1mFc1vWLDF87XoRIPU05YhYQy06JAbM9LSLnsTGJcAC4i0oskIzYrEsnuvKiAbkFoLKaDNdR1kpNOOloxDAOGJh1qaCxm0HkG8glfr+opRC6npU5h96k/CzP6XFBDuro7MQ2ANby240cGlA5dpgghNEDbz+B+Y1M5GlFlAEax79p3QPf0/UVZ5kdanIN2Cio7XdTO8INXEEjg9uHG79T45bALYqlEpqUnVtXc/G8u7+74TMgWIjrDrBEEPFmPNuvge8pgVISswBcg2PRhmDn0/tB9+wVmGMkJDCjR0fva90Lt8Wp9Bn6PutCXXw9oyhh5bNLf0f5Fc8u/oZ2Sqvrzm7FTVqI7UcvlM0uyhH4T23m850CB1NBIEGMgEWYRwUzqRnLTcrSN8vsZSOE11y4GHKTBKlzOwWGqshhYa+duAxh7kaycF3bdL4M/+mTzY3iiThgEi6fPm5OM/kYUmq4MUmBTQ7hR0+lICY9XKJEM8D0PAQm2vdQCfn/swfp7ltOL4URmp0YZYnxmRmgkr/MBfg0lMnlMfnhZHOsBwtd3T/+ev88vkoM+G3hcXIrFtKSgfl5C6D6epFDzaasjSUMDRFeMPJwBnFbY/Gmaf/KN+4FVg7aSX86tnTIhc4+BFXbeFHoLo8WSA8L4YDOZhGDQ3jD2VTXLo/j/MXUUYP6khr2XHczHwIQVElqMMRMg3LksjHg1dRfRoxd7iqdD7/Ly/b6uKZRgUE+TGbLn5GXloqmVE2+z4UGBSSHAWABPAPWpg8wvHotWZELEprszQRrrrmXhfw4Dnwm1/+r6kx7H4WaeA0AbWlgBVwSPaOtu4rT/2Q8ZfY+6SPbqavY/MaUUYP6kV6JBKax/4HWlpBT62okUWCDfU9YfML34cOiffNLFzKmKkgCDw10lHHpbvk5MVoV0ClmXnutZ29DCg4YqIjdUgB9wRqXGFSJAJ9QGTDSKNh672QhsCVwVFZPqWe4tnNB5TttOE+VHw1xKhs00KyMt6VDTWLS1SZBR7IatCwdXvHWQbsh1PuFpo8mA5i2ALvei9b51j//nb0vbdQIOKBXCz+rH/cKncmrwEDDwTQPBKZD4pZHMPuT2giNCAxU3ZP8fCkSOeNshaOw9NiZ72BKf8hoP+kkwe3DvdXZUcLRnvBRWQer3cqkg9t1N/nTxlwY1rINzVhWYmoqdBiR4BW+a7ANYeYrM4ZO0JpKzb0GxFwQiB48YFkfqw03131Y02DuBNZNloFxgVD0Dq/NLJGDhXGFzdF3RfObvPSZc6IzP8Ph3T9D8329LKPvf9YLykRrPKOmcPPuqbL0bPmiq/eCJ0PnrdQVCMpO9DKw6ITa/BeWly5EvJAnFBSFYj27xTg722sgEeBhY+27G8Sbaw36W/WIkdcNc1NwXdLdx7gmwkO9XPinwDGBPFDi6KQezVQGq0IVv1fdMzJR1deR633J+WVUUqjMsCyWrjCnGDHTQowWURXOmiaWeLyDXvAa8Lznqwx5CqXBGk89m5jZ7253DFcIoBkTWXTjWWLsBWPNZhS3VFuLH+1eVDVMh2FOlEaS4XEWR93P/MYIwtmtff0QKBCASezkcXpY6wEngW9J0lSIn2HzcGlpqOtwK4lZTMjsZqvGNUETAopEq5Z6RSCWLvdnWGZLykpgeXqliJRsXq5FdOx8mqKPBx6giNzhb+Eakj9wtvfVhWWxIEYtfwIkuTzSuQLsrrAqQHqa8RBJkqyEt2yUbR41EGLWr3jlQkP8baejr7zI/CzJN/7Mb/ouoY/b7OVFDqdfGjGkCYbPez1s3kg4tgq35Z93T+qL1IHbD73fOc4o+5wnEiJuBsje5nR53RWRWQnCOjQyq3vf/F/je/CYLK7vFfhNuv/22sO4wZ4yX14R+H2ad/5GbyGAB9E2Q6nL4j+CGYqwqyvK5q7n/JjVSFkHb10VoQpyjAGTO8D5PW25LSMp5s6b1/coGo0nEaJ+Sh2ZY3wyaHQ9/vf/ObwHt2jv8y3H71b+S57zKFuwKMV36wHYuotmCiDHSXJqwsnzkWoEmpON4aUbmiUFN2v1VAbrfVIt1ZMvxkbuhom/Ksx1dAwA9JR82tDB497lVhvKT2za7xpBWiHyhW3kxEwHjrxujFw73WmPmIIEjVNUs1ZczkFKbHphH97NOoTI2rjqum+OJAiCCx5GaZJFZzSQ55LCBbsKISOKTm1f+yDnCtUkL3wRiNK91ZCzTmBLij7tk80auiMa/bRCUkVI7xkhorbPdTEntqhbIFv3IdK0lBBqQou7AM7hXLMrZweQXgmjkXLLuozBj951WP0ziB9yFYHCXnlnnS/3rMGCup0a+xmajkbtFSipCLsiNjA4uHsypoRy0DhOYsjLoxaiGJID7OqyTnP3XAkGBERswtRZpYFKuG1eO11BCaYkEJSdh5Qjm9tIw+DmDhvOm2nNTLJ+dXZTaGgYDKurPkmlg9FuSITbhTBRuSOffTl0IxVSz9VzPmlRRf2O5fdJoP/c8551Scetsn+VQFpAc7b9q7nvV5GkXw6fgXjsVzM6rOyPTR2rLH+XMf4VBQVVyVxRctwmzrfu+MZ+yLwCZcF19++XfTX3xhg603kT7yveLJoovri/Ohc+Rnobu882TMwHWv3xpmHv+hF1hZz3T3xK9C59hr8RjaCgZ4GDiFiaN5s4eejIWqIcCSdT+h8vpu3DW+CuAOzZ1P++ySsiou55R0jr8elt78h75cHS/GKj/oiaZRqczi+TBIjizgRevlSlJbdwu0qHR7NrdL7+WPjsivXXLZ9rcngVYPP0eFKmHZOElL+6BGxmi1gCBx40KhQRuAXS/sMR2Z+rtHjDdQvHklEqSsnRTdha5eOOAd5nH7z7iITfTdjuXxnU/ZWsck/xDgIdB27JRBBlXhMYqg6+aLpxR/lLTGMk6cqUGwS3xQxeIfJzhkUmT2eXvseCpBzjY8+n5WA6kJEgcHMpZW8hQls4vap3pSWh9XJgQirNngv9ve+2K5xZCV9GbfK7TA0vdRo6XmqAA20fpglwL1xzY4xmYQ7NZe9bw7DHrTvemChVgEgmQ4wmkAFQWK47XUNAfdWPRxBuw3LAO7TegpnnniD/W+r0/s+7BGuOuN2+LBkxxrRk93CRFw/90z78kVLva/UyM4I5rWWC9+NtIOmVziAo0J8QAGwK2aU4xBL31pOk+Gg32W3rrHrviKUqnjXf5yJ5CFsynomS5NlaG/WNmyqpmkwvJRCrjauwF/B7enBcIzUdoEX5voEqRhqGCRyErnshQdBWFueqoZvRxN/bkzQaWTS94Xsuw4FF36NFpr7oktWpxlzUHtRXJPIBC33KNPnFaJitKoYx8lR+0cXMh+NSRImYshoFs/L6lwOLQPvtzXwHcnRbznbdOD8cTQR3/fjy4uPRwc90ejkwYXS51PwlIPLNblk96hUyZ9sg3zTkkS8E5lIcaSb71kx0NOVZbNH3KL1uNRGzfuF9Wc0CTisFWJ3SQ+uJuNrSXgnA5nRWien9PgsMsad8vJpVgCJt1BhSyvCOut9vpda+c9z8WNADxO4wFp6LLDbID+DpsUOGOk540B7DqvxmKMQjyxfy5uqigkA59FL55v02/bnSY4y7RT3nH7IRfVyoJaDsLnKV700ruprSJUROq+OxUZneJh+05ZZQw3K7KiiW2RCI548W8IrPdMf8eP05jb5bMyfHg7TyAgizK/24toVJZgcNSYd7CfkfTA9VcUga8UGZtwiQEG28m+DrQ1n6m/uL2xlfRjiXWvCzZc0tEzPNuR9ClzMGz88Y6SHhwOz9MFOHFqVHvq/aCys/RcZJFehawQ1Kt4BWByM0kSBqkNYTXh7V3P+PRUW2QeXyx37H2FG7QIfNTYylSUJcepN0Pn+C/iGRUTJjRtBVjoePDPxhhTDAOLnt0yWHOyNrQiTMHmAe67LSvN/DjTVGRQNM6MPae1dk/+txZkteNeGant0rEs0k98VH9oCF4SSBgDq4TVQq8RCJID1YTGF51r/e41fq9oIO+EAlafGHrqrdA5+qoPmHSfysQhmdb3LvHYrpKFz2dlHEiXUbRBitRUAf06rKGRf5J+fhAVBa5hXqYPYqsuJX8kn4LjqlEdqQGk9i6XjuZN1sY6WcQuOgyxAjjivnbRJzd1T7zh98JjEyYBrJiCa1cPCbawxhB4CGKMMq//E+UHu+Zt9WqshuIZOTGAR+L5JK4tuwrv15DxQOZ1Pvip5UdZFXVcqJbUfTgfu3g6Wl40JCm3msB1/cDKD3/uwydjmnGKYHLKm2H9tOh9LBfELoKsOs8Ct+fTZ/FTuOh4qwMirx/6jxzc96LiHS0wtqWVgNO3eJiUH8pPwaWiNN6dqIXUnjjcJREvLwoOrG4eDVE2gfcKE+VaPBqYY8g+/pXL0m53nDpoktH2vKSkeCiqnyFZ4s4tv0hlEqjh9fhdmu5ttSvQqxij9Vv9KGlqAX5E4IaFeN0icB/94LD761dj3aImuVQPqQFulqT79fjcD2tjNLJd1x0R/r3CGl6WS8TlXLfepZOh8/F/mdT5uSNaSNW7vfuBF7zukbTmctBYEi8MzqTzwTDszHZlkpHEEg6s4X1YRa7NNfAgsshtsk1YaAXu1v4l9xYJ/aWJHE+0fS3q/5pSp/WRegA0FT0XV88qaPg0NvWIzNZq1pMlg1WGfCl23JGDVjDY+fBffYA7h7JPneQYChFBpKbK6Aopj8sYueNcP3bPxXzU4wSRBOIQnM98r59b1+RMEv6msxv7XwzZLlno5bTdCONDYenqp2HpvZ84OHdcVWMtoPaHgy4DF0uZnIILTTAuvGjQeE722k0hrI1HU7mZB3c7mFysMa7Wz9/mmTA8UUDW/ybPK7/gwyGRGnQLelJrHMz7Bu5cgfTM3sPuYSGF6cCwzM0DZEeXwswVP2k2esSL8Z3cPFaSx14TtN15hAFjSrEKj0menDGniUqLytKGvhMWC5sZCPJH3UffW3LqbPeELPRHr8lanzXJ68TkSP01OJe9TVqNwgoumIMbNylooiI5KExo0Ly/DYkhQvuxxZd5bPPx2CAEwfn5aiLyEHixayxmv/2Xdve2wF7UK/diPlqX3PC1C9FSsuhv6IXMyftSjJNf8Y5IHfLgpBU5CH6TiIxxGRiUFUFjLg+Raw4Iyjvv/4uvPYlM09SQ2o1JFFKw4JDY1kOu1JIk6m4DvaZA0BZbFqB3W1bAJWRNlK2Qfr7a0c9HO2124Lt+jIbdPmOxUmgs/OQBEc3WGa/ld6z0YMqx1HphMCAvvTjoaI8/3lHfH3jIUdDftuQ48op37Li4xZxMYD6mh9QJX4WIZmLzAH6eQ8ley80K0EYVr+oGpBV52ZrXPf2OgkIeUaJ4qWwDRMWoP1BMWBmQUGQQaKhfPB1aWyQJ1s1HKzqwsJOGCO1dTgr8l478zJLDFcMJF7cSqacdtoQKAilc8EQryQfSbE75TRh03Tlld+Sn8WhmHsiPzJkwEqmnHVhs9DEZHrZ/OZshSyjyuCcG3TsqKzFGuA4g74Fm9tN3T70Vdzpdvxw1+xQgaerVBKfgMqf5KITMPvOnbr11EaYOaIHliye9ucLtuyJ275qss7NN00OjROrVCDIUFFzYGEEueX6PzzdxcxEpUGeMxqC5aTegIYwDfxT8+SAidjSRSuXUAFpgJ6yfhyGRerVjzQbnlrHc7sumWLJus3PMPteOl59YIAtP2g6pMqgIYmHR7AR8aGFScP13F22QGuw5vXBMVvmky96uB0wws7ESJFKvdvTzzO5T550qLAUsXlt43x3i+XZs1tjc7xUhgyJgibG0BKI+3uJCrMzSbnDxI+ed49O2RG5+jxw31UjLjelFInXTQBHL2+Fkrfvb4nzIJEEl7195zoymHqLKOrt4hXWGvLclOQhMIToldqz3lBP5TiRSJzQO99HrmZAwnUikTmgcEqkTGodE6oTGIZE6oXFIpE5oHBKpExqHROqExiGROqFxSKROaBwSqRMah0TqhMYhkTqhcUikTmgcEqkTGodE6oTGIZE6oXFIpE5oHBKpExqHROqExiGROqFxSKROaBwSqRMah0TqhMYhkTqhcUikTmgcEqkTGodE6oTGIZE6oXFIpE5oHBKpExqHROqExiGROqFxSKROaBwSqRMah0TqhMYhkTqhcUikTmgcEqkTGodE6oTGIZE6oXFIpE5oHBKpExqHROqEhiGE/we+iWuLEsM/TQAAAABJRU5ErkJggg==;clipPath=inset(0% 2.49% 0% 2.49% round 10%);" vertex="1" parent="1">
          <mxGeometry x="770" y="390" width="45.5" height="37.3" as="geometry" />
        </mxCell>
        <mxCell id="zbzZgw3rJqMyJxL2BpiM-9" value="" style="shape=image;verticalLabelPosition=bottom;labelBackgroundColor=default;verticalAlign=top;aspect=fixed;imageAspect=0;image=data:image/png,iVBORw0KGgoAAAANSUhEUgAAAKoAAACbCAYAAADyUACKAAAAAXNSR0IArs4c6QAAAARnQU1BAACxjwv8YQUAAAAJcEhZcwAADsMAAA7DAcdvqGQAAB8ISURBVHhe7Z1HcBxXesffBAQGkSBBEiIpBjGDUWKSSIlKXEkbqlb2yfZhfbDLh/XVZ1e5fPLBrnKVD7K37NryWrsOu94giVSitJTEnMSccybBnIlJ/n7vTVPjRs9Mg+ye6W68f9UUCGA4AHr+/f/y91LTp88oKQuLiCNd/mhhEWlYolrEApaoFrGAJapFLGCJahELWKJaxAKWqBaxgCWqRSxgiWoRC1iiWsQCA6aE2t6aUoNay59UIF9UKpfnUVIF+bdFNJF4orZmlRrxVEqNH5VWT4/oa0AeCkHv3C+pkxeL6uqtksoXyt+wiBQST9RRw1Pq1flZ9dpzWfX89Ez5q9/i/sOSJui/f9KrNu4vqJt3S6pk23Qih0xnZ+fflP+dODz7dFq90J1Vby7OqjnPZtTTI1NqSHvfx7DBKdUmrkFGBPfSdXEBRFWtGxAtJJKoLWLuO4ak1Iuzs+qN57PyMaOV1QuQE5KO6RAfti2liXq/V6kHvSVVtMoaGSSSqF0dabVCzP3bS7Jq6ayMGjIopdLePH2Elqwoq5B76ri0unGnpC5eK6leCbKsGxANJI6ok8XcL5mZUW+JuZ89yShpPZICntPWklLDhxoXIJVKad+VjIB1A5qPxBA1K3HSYPE3X5qbVSsXZtWKeVkd7fcHadwAIWvXiLTqEMKeuVxS9x5KwCVugLLK2lQkhqjjRom5F3KipAsluh8qpBVRfCxkMibImjAmpe4LUS9eFWWVAMv6rM1D7ImKCk4ck1aLZ2S0TzpnckYHRo9LUuAo60hRZP5dLKXUjbtK9eZsUaBZiDVRIdEgidhfFiX9ziIT4T81uDZDCY54oI48sxqhNVnltbtGprUrQEGAHOuD3vITLBqKWBN1giipY+7nTzXRfS2aFkUNSfBfulES/7OozTvKWQsZibLa21I6B0t+9by4AVSvrBvQWMSSqARO+KSYe5R0/hQx9yNqkxSSUSo9fK6oDp0uquMXipqkPMifVgPKSp9A5zDciZROWd2+X86zWjegYYglUYnuXynnSVeKuR8qSloPmOwLooYfb82rbYcK6uSlorgAhqTjOoWNNUDqCrJ2iapO7BI3QEhO6sq6AY1D7IhKnpQUFCQlT1rPJyX4uf+gpPacKKp1e/PqhPiad+RzuqZwA3pzxk/F162lrCAtT4SwpL1QWtwAXt8qa/iIDVEpi1JxIplPnpQGE6L7WsDc3xZzf0IUcMeRgtp1TEgqn0MuAqq7D0RpJZKHrKg0RMUVqBZgUQhol++Plp+bFZnltcizWjcgfMSGqMOHiLlfYAInyqM6cKrNU02g02LiPxJzf+iMIak7CKKuf+k6LDNq+bRE+bUqWfzMViHrKPFZKbee6ymqyxKcWTcgXMSCqHRB0WACSbsnZnTVqBZJUcwHYtZ3Hy+qLQcL6tj5Mkk9VA9l1c8XUqOsGQnUIOLgGm4APzubkeeICvNAaXEDeH1eyyJ4RJqoND2TdF/abXKkNJhU64JyAFFu3zNKCkl3Hito81+PQLgB94Tc1PZJWxGg0ahSzw3A/cBduFIOrii32tRV8Ig0UTuFlK/MM/2kL87JaALVMsuAwAmfFHOPkkJSv/4jqSfMOCoLSUcPT+tUWDVAYp6Hws94Jq3/7+XrRpktV4NFZImKuV86S8x9Obonj1mLpAROmG+i+x2HCzpf6kdJK4ESoqi9eUO2lpb6bgC/U4s8Z/jglDp1qaQuClFpE7SqGixqJxCbAN30LAr13DQT3b/QnVFjO2vLKIqJD3q2p6S2H86rHUfNSMnjzj/Ri7r3ZEHnW0+JC3FPVLqWKreI6pImww3w21Zo0T9EjqiYW/xRAidSUUTitYCZJh+Kmf/dhpw6fLaoP+frTwL83F3i324VP3ffSXlNUWuL5iFSRJ3cxYxTRr25yJh7EusELdWAYt4VtYNI24+Y6B4lDSLy5rV5retixm8JaW0031xEgqgELARKJPG/I+ae8mg9c49iYpIpi246kBeTX9DmP6hxZ8x3m/io7dpPJctq0UxEgqhjO9Pa1FMWhazkMmuBQAWSksT/cFNON5gQSAUJfM4FUzNq8ayM7nGtV161CBdNJSpm3Wl6hqgQol4wgmLeEVO8/1RR7ZSgCbISZQelpIAMw7TxabVQfq/p4zM6l1srTcXP5sa5frukbtqIPxQ0jajkIAmUFgkZyJMS4XeNqK9aD0U5yVV+tVvMvfilQZp7fjo3iTMgyA3k93fquVFSpy8X1YVrRd95Wwv/aBpRUVLH3M97to6tF/Dm3xVS7j1RVB9tyakzPcGb+w5RTm6cJWLuZ03M6GR+LeAnkx34RpT93fd79Udyt0+acbDoi4YTlTwpe6AYwKPpGZLWUy3dBSWEwMzvOl5Q+8TsY2aDVFIyDFPHptUiUdIZYu5xQeplHFDzPfL7fL2noL4UhT8rN4+tSoWDhhOVoIQUFEr6+nPZurV78DBnovs1O/LaLyUlFWS6CDeETigCpyUzs7qNrx74nXBBfrc+r1ZtyqtrcuM8FJJahIOGEpWyKB35mHzypAQo1Zo+AGTE3NMF9cXOnDp3pagbR4I0rQROqPtilPSZjG6EqfU74YKg7qTDfvpJr1Z4u1gtfDSEqLz5THI6ZVE+MixXC5AUQpDEp0IEWYOM7gma6HHl5oGkMyfUH7N25q4OiOuxTsz956LwmHvU1SJcNISobMt7eZ4x93xkgVk9ECgxKcqM054TBZ3+CdLco+YzJxhzv1jMPSmoeqCMCjF/+WVOfbY9r28cFlNYhI/QiYpi0ZFPWZSmZzqRmDeqBlQLUu4RBd2wr6Cje1QsyNwk5n7elMyjPGl7q8npVgM3CL8D5h6S7pYb58pNc+NYk98YhEZUzD2EwMy/IeaevGS9sqg290KIkxdL6psjBZ3uIYEemLmXv5aGaMfc4yfXzTiUSXrkbFF9vbugFd6a+8YjNKKOHJbWW54x98skymdkox4YH6HpmbLogTNi7uXzIJWUAsPsScbcPy83EC5JPdCJdVz85J9/nlNrd+WfqH3Q4vERClGp7CybbbqgMPfsHa1pWh1zf6KotpZn7m8JIYKs8JAGmz3RlEWnjctoZa1VFq0096s253VAx5JfSGrNfeMRClExqajpstn1u6BQTPKi56+U1LZDeT3WTLQfpLkndzupyyTzKTDUyzg4VbBTF4tq7U7ypCY1llRzzw3LjUsWhMKH80BgKNBEoRE8lMMm/vKdVvXO8ha9G6qWaqFMKOmB04YQ+H70f6JmQYEuqO6yks6dXF9JATcKv9P/rM3pytNZIWmSlXTsSJM6HC1WZ8ig8hcFVP82HyzowgZi0kyEMjP1+vNZ3SJHhF8tL8kbD0mdLijKomwwCZKkugtqnFFSzD3mv1bGgd+JFBQzV2t3FdS6vcbcM/SXRKCUrCji+uCm0b02fXxaB5s82O/1lNzYpOCu3xZ3SLjarJs1FNPvBwzR3dB3rJlxwh8MytxzczDHxMXmTSBwqmfueQMInCjVkiP9YGNOXbyWXHNPzDBIAlyacN4uNwdxKAfK6jyWz8mqP1nZohvZWUJXa4tM2GgaUTVC+qPxtZ6jLCrRPf4y8/f1wI2Cmf/Jh71qmygq5j/JfaXjR6c1QSlnY/28CEgDO9dyxbyM+tM3W7Ta1prIDRNNIyoXgZTVlLFpNUl8WcY+amUG/GKkY+7LyXzMv5+JAdoHvxRzv2G/+KQ9xtwn0SfFPyd2oNcWcz9XgkuacLyIimuAik6W92j5XHOoXPektA5Og3iv+oOmEdXZgsIi3hfE5JDTrBfk+MEUkvnlLig/Tc+AKP9TMffvi7nvuZHsZD5btJ1TY+i7qLdoDrDpkP7hP3otq2faKIFn6/TqBo1Qgin2jUJCFo7VJJ/8rWx0Rk3HdKT1ZjxM8OMEVPw8TueDpDOfMdG9X38KRf14S14Cu0JgfnIUQX7b2dBN4MQ18guuJZaJIUz8ffocbt8zsUYjEApRW+Vu44+CPJgO7mIv8FXt1IspISJHyejpZCYKs+vH9HIBRww1m/XozKdVr14XlBsQdfXmnDp4JsCUQ4RALpQDi7k+emUnqSgPJeUmpRno5l1zXSsnHPicxXB60Ya81r3yrq7rd8z7FLabFApRWRjGRmZA4pgWv1qArBC6c3halzlpRMFH9KNuKLZWUjFnS8XcD5UL2R+SAoj66ba8OnoumUTVKzslckdJ2eVVbWUnxOu5WVJH5Dqwyoj/5wYWEFWdOMa4arQ8oqphW6JQiMobD9HoegfOIrFaM0j6DpY7tq2VC5vWylpvdxSBEiVaSErgRCXlcaooSSbqsxIIUSGEpN2TvFd2QjJSc+SPtxwq6GIH5OO8LXeBhP/Lg10HWEKUmfcJFQ6TrKEQFUBUWuF09Cyfs/iW00VQzmpw3ABMN5OdrILkQDJ3opmkPYloontIyiCeNvfl7/cXSSSq073G6dqsSOI6UXlyAyGgQ43jiTYdMFu5maRl9gugqsQQ1dwAgqxbQtJbQlY+ci3DcANCI6oDuo1YxwiL2HhHgFULKCI+bsdTaX03X7gmfquQtvJu5cIRDHDxKY3yvMdRUgdJJCokxdwzir6syspOCEV1kH1dq8RHP33ZlEr5Or0ON8T/5H3j/5L2c0MfbSSuGsHVkDalrx8ED6OZPHSiQjDMOPubuNEIrFBDfCAvOKaFO5h1Oigsf7jTTcXOVAImSDp1nNlP9SQkBUkjKuYeJYWkuEaQzH2NeF8gI4uOqQwePcfx79+6WnzM5Us6aOJ94/0YLGR0KyvWjcZzCMt7i7uHnxs0QicqwN8xe+4NWYnwuUsr/2g3HDeAXCjuA5UiLgwpFsqiBFBepqwSXGzI7ZC/GpJCVKJ7TDU+KeYeJfVSQq4Jlo6glVFv+i1QUq5DJSAzTUKOG4B/CyHdKUdiCypWXWItD52B9MFfx4YQ1cEduTu1GyAg8mTnVC1oZS37QjwX9aQkSjWFQ3lrNZiAe6IYHCaBetdS3aQQlRSUE91jcbzMPX+r0wz0yTZj7vm8ll+J0tKUghsAUXEr3DAKrNRm8XNxJYJGnbc6WHBBaOVbJ3cxK3l2Hy9ol6AaICr5WMw9eVJq0lPkY70qFo3YmDVW/ny5K6+LCEkHloamEt2sXo7u3WVOFPKWKKQ290fy6uSlkq+t3JxNgAKT5GcKwwu8VwhHLcv1JAilH9UPGAmhdszdj69JgBQEUAwKBuevFNV//p4OqJL66x+1qWdGV78neQP/9mcP1BffiCTEEJDj1QXZRw8ifje4LpAUc//RFnO+gd8eU0QB4lN6ZdsiVs0NVPfarZL6h18+VB9uDP46No2oROpEixCV06FpkggC+LL7TxbVr742Tc+4C3/3F+26w78aMHtH5Y3jQscVVAHxR72CSxSTQzhQ0o37CnqZW3+WE9OzOkeEhf6JcaNMbtUNLBgZmn/6zUN9IwSNphEV4PzPkbtz+VzTJMFOKq9qiB+gipynz4wTrsUn4nNSHWN2/+9/3K63WQ9EaHMvZpu9XZh7FnkQ1PohKVZu1PC0mj/FTADgXuD3ukHpm4M2uAkY2+GGCBpNffdwvvmj1mzPq0+35vVckt+7vBIoIhefbnzGmemCunjdjjRzXVBSruvvd+bULiEp5t7PNUaVCWIh6aIZponFi6S4FBQM9p4oqF980atPowkDkZAZuupRQCJv5vlRAb/gzSBYYkr0nz/oNcOB8nmtKHYgwAkoEQImFjhZsD83Lj2r+KRLZmHpvK0cr3ftZkl9uCmvl8WxIzYscYgEUSEWs/NsRuEE6MNnzeKxeoDQKATZg692s/6xYvXjACYq14UInRQUS9ww+/jukLceMPdjJXYg2CXLQokUZa0E15ZrfPZySa/bZDEHiqrVuh8i0x9ExnGDV7vl7kdVeUC4euDuZULy/Q15fVfjk9rVj3JdxA3i+n28VQLKE/7NPaCxB3+UwGm2mHuqTm5AVIiP9cKKodpYtTDFIVIRBv4O6SS25H0mZGV2Cd/TDZ7HhSJw+rePek0+VhR4oJt7lBTCcF3Y6oLPDmn9gmCJ7Avm/ulO7yIJr8fQI2d6Ed1j7jlKPuxL39DKlB9QLkUZ+UiwRRKZLiz8WOfBsgrSSRv2GgWmtuyU+dygF5ZjKskDJhmYXIIaXCi2zTB+7ldJMfekthZMyWhzP228GXWvBCJAzwXzZLQDQlLmzPgZjRCIpqanaoGkNfk6usndVSguDFWum6Kq+GJ8Xu1izZeLPxDSUyjpQSHn6i2myNGfgNIsoGACIKtHzLNy7d23NTcC1/qTrXldSDl/VUgqPwPr1ghElqiAEiC1ZXdZjjcAM5eXq1TPefdDVJo0MGU0DEcNg8RHJKChv4GcsBtcB8wx5WIyHxQ7qBLx9XrAtBPdEzhpcy9BlNfiOF4fN4LKHU0s+KZ+c7FBIdJEDQJ+iMqb+lfv3g+lovKkcEqX77zUoosibjzsNf76b9fndLse//ajpJh7onlee4EET5RF3T6pIwgEZgS6/7U2pzMIzeidSLY9HAioIFdfLawOKk5OnpRJCa/ACZISpJL2+9lnOT1LxVxVM2CJGnGgagSW1Uw57tHgdjPxwBbtYeLX1+os43vU7p2KEzlT3Cs3MPfnREnp/CdHfeJi2SdtkndkiRpx5IUYNJDcEGXzStpDPDbOzJ+aVi/MymgS4md69erSW4ErQYMJudJZE72T+fwMfFJ8XipO+KSY+0b6pG5YokYc9H+yln3TPgKZvCasF1BF8qA/eDGrCTikrW8elOjeMfc81wukoIjuCZzwSU9dkuCsSea+EpaoEQcqhppRDqUQsu1QQTeZuIELgJIyL/XctKwOIulEQ3FJ9U0YnRb3IK37Scd1mlEgNzD3nERDCoqVmzpw6kdVK0xYosYE9JCys/Wz7TldV6fr3u0vOit3FogbwDFJNJNAXsqic59lmbE5iM7dT4q557UYzCO6/8UXOV3d4gZplk/qhiVqjIAJZiaJTrMvvsnpip0XcAOYaPju0hb15uIW9dLcrFranRVV7auigAog26VJz/16XU7P9XuVrpsJS9QYgcjfBDlFfS4sxxtRIXJDuwGiotOfoQPKdEFBXK/OfBp7UGt80nV7CmrfSZMnjYK5r4QlagyBH0nTzqfbzLiNV4IfsuIGUNWaIYSlwuWGae5ROrr/l1WmlxeSer1es2GJGlMQnUMs0xYp5tpDWWsBJe25XlTvb8jpYbyr4kY8zEeQoWVYosYUBDnnrpieUHxWxkwuCfHqNYnoAkK56Xm9RPZs2aZNMsym5yBgiRpz0PbIvBmqCmnzddoVnF5eWgF/IuaeA5FJQUUdlqgxB8SjxLrrqARY2/N6iM8rzwp007O4CJh75qguSmBGp1UUfVI3LFETAhZLUAyAgORCISvd96SwnMfxC0W9/9TJGNDTG2VzX4nIdfgHDT8d/qgSQUncd09RBDjTIyqpz0JQutxKEzUTqDy+2lNQH2zImwYTIWkMhPQRrKImCORZSS/tOynKKqr52/V59Zuvc48e6/fmdc4UktYLuqIGS9QEAvVkP8LXu/N6yM95HDxtSBq1ZL4fWKJaxAKWqBa6y4qZrGWzM+q1BdlHD477YekyB0s0G5aoAxiElzSwUGaFmD94sUX94YpvH9+VIJSDPEY+ldYl2erhaPiwRB3AoC2Qw9G+tzSrfrg8q16dLypKY3X5AXn/7HucLm16W3l+s2CJOkDBHtV5Yu5fWSAmf05Wj7B0jTQnKDoPzuunAZt16yxdZkKgWW6AJeoAA+abrn/Gx99a3KJWPs9KSe8pVGdqgEMr/viNFj3iwhFMYa0/rwVL1AEGc7q0WUm/cqE5SK4eHp0u/boQm9Olh3KiTfmbDYIl6gAC5r5bVBGf84XZZsCPCdZ6QIHxUZlcXSFuwMtzy25AA8lqiTqAwF6pt5a06JIyI9P9geMGcPLKn3+/Ra8B4gimRsESdQCAEZQXRUE5ye9VUVPOifLyM+kV4BwwxlGqzWPhBozrTKs/eNmkrziCvhHKaomacOBPTh+f1gRd1p1V0+Tf7pWS1P0Z8GPH1N7jBb1wTZ8Sc7tvdxVuAPNYHLjGUUFLuzP6fNuwfVZL1IQDkmLqeczw2AYIaLammXrzgbxe4UOPwKb9ebX/ZEEv6XWDDAHn2S6cnlE//mGrHh5EtcPMBliiJhSonj4CXaJ0gp9Rw/rumQWYe45AZ+kETSucfcqoNF9j4/fOowXdKugGpIScLLagYPC23Ai4FGHlWS1REwiCnqljORkxo5bPyeq9qoPayt8sQ08G5JS6cKWo9p8qqI2ipjRbOwd14KOas6kK6th5c/iHe1EbxGd3FeaffCzFAcqtYcASNYHgLFTypDymCGG9gE/Kjqn1+/JqgzxYL+k+Z5+WwD3Hzap1ZwDQC4xl8zN/9Gar57LhIGCJmiAQOBHkOEra1ZHuc8YsaumYe92jKqrJmQmopXt2iklX9qHyXFb8sErIyw0gdTW0XekVQkPkYxiwRE0IUDXypCsXtqgV8zhhum9dXo9Ki5Jevl7UUwCc8I25r3fkEW4A/iur4/m/XmDNJT8P0oYBS9SEgCW+OrpfnKm6Ywr/88qNkj4afutBsxWl2oLgqMHu8Bdg4qJ62IRfzBLfcOYEcyCFO7rXSiokxYTvFSUlQOKsKL+Hx3FyNd1VtP6xz4qEvxtMtFIs+Mf/fahWbxbZDhiWqAmHY+5Z2UPQhF/KinN34OQFUlAk8llVyUFp1Pq9pnnJINy4bcax/3V1r164FjSs6U84UE2WTny+I6dn+YncWbfuB/i99KyipLgW1Wr7EJ8U1398Zk5NCQOWqAkFKgdJWW2OqeckP8w9aSl3dO8FOq0ot1J9wtyTzG9xuRT4t5CUiVd2WJEZuHLTEvWxwHuCD+rnzUkSINHtuyVdWfpcTLFfnxTNpEQ6SVwlUl2LxOR7+aSAChaHJq8Sn/SDTTnVIyT16/f2F4knKonsdXvyuslioIA86dnLzunS5U19Pv/8b0+Xzqg54psy/OcGNz29ASj1uw06XTrxK30ICIh4SXx3yJvAhfeqeScBWA5MO9tQSM5TUWL/FMGUHxAocVgFSkoDC+uQ3McAOeaeBcKcP8WuK33IckhK6iDxRMUU0b7GRyJYBtYIEpIISIqyQaB1e/O6TY+v+QVlUGcCdcTQtGc3FOcIsDT4vTVkEArqqkcrYBhIPFEBgQXmkNo2/ld7S0oHB0kCfx9KSjKfKtKVclnUD2h+7p6Y0UrKHD/m362kqDU3AR1Vv16X174vgVOjCgaJz6NWgrY03gwUg/xqHOB0KDG+TOLdDW5CFO20RPf4oxCV4+H9mGIUk9emcYVrAkm7RvT9Gbw+x6ofkhvgUzH1qzfntI/q16UIAgOKqKhpWyv+amPGJ4IAQ3U0JtPvSUe9GxDyjpBmtQROOyW4QUkJnPwENtTlCZxIQUFUJlS9avUo6YkLRfXTj81Wa2cFeyMzKQOKqHEEAQ4kCvoY9MqyKKemME7i9kkh/P0HZo06Fa2N+wrqwrWS+PuNp0zi01NxB5RAvXh4ISXvYEb4S4K+Ux4EjF7LJBzwPVwgh6SzJ2fU2E5vkkL6w2eLusuKRcem06rxJAWWqBFHSQhDYj1f8CYI1SKOPmeMmRP6RooC1xq043s0rkBSTD6BlBdoMjl2rqjLomyq1h3+8rs0CwMi6o87CsWUVkH8VVJrreJjO0AJidDxu9vF/+Z7BDleSf6RwyiLmgYTyqKjhnvnSWmW5jyANTsKasvBgu6K6k+aKwxYokYckA014yOkHDOCPDDZgP+vhGQHIPH4UWkhKak4o8S4DCaITKmp49KapPMlOBvT0deYOiko0lyrNuX1+VUEZ80mKbBEjQkgH8oGWMPDSh03IGRLNqVTTigwz+8VnxKVZTMKdfsFEuXz/WrRPZ3/P1+T19G9k0GIAixRYwLHnN+XKB9ARLaWYPIdOG4AZWLOPuVzSN05PKUWls09SuomKeaeihPJfLqgOKu/52Zj86T1YIkaI0AohuucadAuUVX8Vrefqd0AITJuQOcwIae4C/PF3DPb7wapLF7v0rWi+tVXYu7LtftGVZz8whI1hqBcillHMVFU0ktu8D382CGDTOpqqCirm9CQFHPPAWrvfW7KokwCRMXcV8ISNYagGkX7otP72THUTJy63QBMPF8b1NaXpDq6FyWl6//L3QU9PqK7oCJk7ithiRpTEM1TJSIjAKgs9afRhjNQaXp+b01On6F6DXMfQSV1YIkac5A6crIBrRLxj5Zgya2elYDgmHvGRv57bU7tOi7mPkLRfTVYosYcmP/K4IfgiYabSjfAAc+BpDRVE93TCYVPGlVzXwlL1ISAdNL120ZZSUehrG5QcWJEhaZnyqKY+6grqQPbPZUgsMVvwpiUPm6H1kB9NlQFX5m7Z2J088GCunC1OV1QjwtL1ARi7uT0o1p+5XwYM/e7jhXUrXvRKIv2B5aoCQSDjJRNUVPSVA5Iazn1/0Y2PQcBS1SLWKBGIsPCIjqwRLWIBSxRLWIBS1SLWMAS1SIWsES1iAUsUS1iAUtUi1jAEtUiFrBEtYgFLFEtYgFLVItYwBLVIgZQ6v8AkJQg+HP8YVMAAAAASUVORK5CYII=;clipPath=inset(0.32% 0% 0% 0.59% round 9%);" vertex="1" parent="1">
          <mxGeometry x="570" y="106.74" width="47" height="42.97" as="geometry" />
        </mxCell>
        <mxCell id="b5T1ydZQ8Ku-niXFXis5-5" value="ConsoleLogger : ICustomLogger&amp;lt;ConsoleLogger&amp;gt;&lt;br&gt;&lt;div style=&quot;text-align: left;&quot;&gt;&lt;span style=&quot;background-color: initial;&quot;&gt;&lt;font style=&quot;font-size: 12px;&quot;&gt;&amp;nbsp; &amp;nbsp; &amp;nbsp; &amp;nbsp; &amp;nbsp; Implementation #1 of LogInformation&lt;/font&gt;&lt;/span&gt;&lt;/div&gt;" style="rounded=1;whiteSpace=wrap;html=1;fontSize=16;shadow=0;fillColor=#E6FFCC;" parent="1" vertex="1">
          <mxGeometry x="22" y="280" width="400" height="80" as="geometry" />
        </mxCell>
        <mxCell id="zbzZgw3rJqMyJxL2BpiM-13" value="" style="shape=image;verticalLabelPosition=bottom;labelBackgroundColor=default;verticalAlign=top;aspect=fixed;imageAspect=0;image=data:image/png,iVBORw0KGgoAAAANSUhEUgAAALgAAACeCAYAAACBxsDsAAAAAXNSR0IArs4c6QAAAARnQU1BAACxjwv8YQUAAAAJcEhZcwAADsMAAA7DAcdvqGQAAB1fSURBVHhe7Z3pcxvZdcUvNxAgsZAEV3HVLo1mxmOP7Zka50OSD3FVkkpV/iP/L6lUtqpUueIPTsWOM/bYs1iefaTRLor7ToAESXDN/d2HlmiNJKJBUAKa71AQCBAE0d2nzzt3ea8bLl68dCAeHhFFY+newyOS8AT3iDQ8wT0iDU9wj0jDE9wj0vAE94g0PME9Ig1PcI9IwxPcI9LwBPeINDzBPSINT3CPSMMT/ITR0NAgTY0t0tLUqrd46dYqzfpcg355nCx8N+EJI97SLp1t/ZJoSUtMyQ1293dkc2dNFtYfyfbupj3ncTLwBD8BoNCJlpR0tg9Id3JY+lJnlehJex7sKcG3dgoyvzaut4eyqETf3Fm35z2qC0/wKgI70tjQLOl4VnrTY/L6mb+Us91vSW9qTJ9vKr3KYW9/VwrFVbkx+4F89uiXMpd/IBvbOTk42JcD/fKoDjzBqwTUub21Qy73vSvDXddMtdOJHmmPdUhrS9t3/PbBwYFZlbWtRVPw8eVv5NHy1zKh96j77v526ZUex4En+DHQ0NAoLY2tklEidyUHldRjcqnvHRnIXNTnekuvOhoQHQWfWv3WCL5UmJKVjVnJbc7L7t627B/slV7pERae4MdAc2PM7Mjrg38pV/p/Iud7fqCkbzKrEjZDElgTfPj9xc/l1txH8s3U+7JeXJbi7kbpVR5h4QkeEk2NzdIWy0h/+ryc6bgkZ1Ste1IjlilJxbtLr6ockHxta8nUe6UwK+NLX8ikKvvCGoHomuzsFUuv9CgHnuBlorkppn46Y9ajJzkiI9nXZbjzmvRnzqtNiZldOQk8VIKPL30lkyu3ZGF9XK3LjGxur3nbUiY8wcsEAeOFnrfl6sBPZCz7PUsDNmtgiaKfZMGGYJOgM7+5JLfnP5Lbal0gvLct5cET/AWINSck1dpVUuvX1Jack25Vb4LKxpDERnHdbV+aGprtxCgX/B7WZLkwbcWhhbVxmc3dk9n8PQtIfbHo+fAEfwoQLyjUdLT1WQ6bfPZI1xvqvVOhrAh+en9/18i5tVswIu4d7Eq8OWnvxd+xoDTEiUL+HC/+aPkbDUY/tfuVwoxsbK/q3/EZl6fhCf4UyGX3JIflUt+7SurXpS991pXZm+PfKdYcBSvmKPEC1c1r8CgHB1bh7E2NmpenlE9xqFxw0pBx4WSh+pnbXJA785/I11O/MTXf0uc8nsATXEG6LxFLymDHFRnIXDBSU6iBiO2tnaEUFuCP14srlgnhlt9alPWtZVNx0BZLSyqelY5EnwWtWB4yM3yOMDCi723ZyTOxckMD0W9lJnfXHm/v6WihJ9hpx6klOKRtbGySWJP67HiX9Yy8NfxTGc2+Idn2wdKrygdk21N7sKt2JLe1YH0m+OS8fv8sojWq1aH5qkv/Vp96e/4mxIfkFriGzMpQLILk9xc+lduzH9lnKGznVOk3zLZQOT2NOLUEp101qQHk+Z635VzP92VU7UhSid7a3P64KSoMUO01VWmqkQSDRi5UdG/HbMV3Qd9Ko/6tmNqfNmlTGxRYF5Sd5qwwgMBFHSGwLfS0QPaHi1/KvYXr1vOC0p9GnCqC46GD9tWsKjYB5FDnVRlIn9fHQ6VXlQ+COkiFHXHFmQX1wRNGKBS1XDCaNDe1WN8KgW1Hol8yep+J99jJFibj4nAgi+uT1qk4vXpHpnO3zbbw+VD0MJ+t3nEqCM5wD0nIXmTbz8jFvh/Lhd4fWeqPCQgoafk40CGfm+sGXNmYMwLRO1JQoh8XkD2hVoUAlHx7Mt6pn7vNTk5aAHhFWFD2J3+OolMoYnQhu/PskSVaOBUEx2Oj1Oe6vy+DnVcssEtq8EgqEPKHCSIpvKwrsQnmVpXUa0UNHtUWkAqsVj83J2OsSW2LEh3bgj8nRmhVomOtwoIRJq/qvVyYscrog6XPLT44DcWiyBKc0npCfSyFGTIjqPVQ11VTRqaQhSE1AeTOflG9bd6syOrmnMznHxpxTpokFJo4ISE635PVoWWA7QuTtiTQ5bNyYtLbMrN629KKqzoC0dAV1R6XCBJcqavcJYDsS4/JO2P/aHYk2dphah0eQd/2kgWQM6p82JFXga42DULTZ3U0umIjkJsCF96yQHZGIQLQb2Z+Kw8WPtORaElPZH4aLTpEiuB4185En4x0XZOBjkuWy84mB1X5shbEhSEDHpumphVVa3wr+Ww8N1XE7d1Xk5GgdSDe3G7b2aWxRLdaFzoYCZzD5NDdZAus1rIpOEpOfwuEJxCNknWpe4I7vxqXTlW37tSI9KvCjWbfVHKfs4xEWDDBgIIMFUjzrRvT1rbK41oqnNgkCyU4GaF0vMfiDHL6YTMu2K/NnYKOTjc1EP1YptW6LBYmZW1z0Uauei/91z3BUS+CsB+N/YMFkT2pUfOmZEYqsSRUHd3smlum2njTA9k31aslWGaolPYkzqAvnUA0bP4cuJ4ZGrq25L4GoLdnP5Yb07+1GINcfj2jLgmOSlHaHlQbQnkdT4o3JW9cyQGmCLJRzNncSPw1PSOFbQLITVO4WgWBsqU/dZvpocGKoewdTL7QGARLEwZsK9tOdohi1Uz+rsuj68ler5Mt6obgKBYTC/CfTBNDrc73/FDGsm9If+ZC6VXlA7uBD8VvEnDl1GszPKPgdXkg9YuiEH3rZIq6LOuSVfLTt94SKuMSgIyLdS1qEMpkC7JHpETraZ5o3RCcg4cyMe/xghKbvDYqjkpVkhsm5YcFQaXw2ARcEJ6hul4LIJCc/hrSoKRIsW60+aZLgWhY4MHpreGEp2MRjw7hiU2CxrFaR80TnGIHvvpM5pLls+nVoKzOQQs76YBCDL0aZA3IFrBkA+k/nsN/RgmQvM162vstACcYxb60NMdtwkVYsM8o98/nx2VSA1JilBW1MbXe49KUzWZ/Vvq+ZkCAyLAKiQc6LsrlvnfkjcG/kkv971qmhAqkla7LILcLoHatf5pMyFJh0lRoLn/f0n9YFFKCUQN+mgCRbka2cXe/qIKgQXcpWA5m/rvy/9GwqiqZKgtk2+33nE2hbYE4pTYXLKpJBaejD5/9w7G/t24/t7ZfMAMmXGYEr03ASGaEFlZ8pM2s0edPy+wX1Jw8ubN5fdLdPmQ971g8nisXQbaF/bexk9NglMkWH8s30+9bGwCNZ7WGmlNwlLknNSxXBt5T5X5PzqiCt7dm7CCVqzYQF4+Ix2ZYnVW1dt10c+a9+Xm9+uxKgJpjz1B0/HRxr2D7gceWJdL9GqRWXwQU37X4MqWPaXcZfdxs+5ORgsnRtbZfa4rgEJhK3agGRj8c/TtrZ03EUvzEveAIsKMtM7KzoUrtAsjJlZs2OZecLj877WAf0C9OAQsRwFhAWhecupimHCHhNfTDYCUhPKMj3ZS11opbUwRHpQcy520uJF1/NsNFd2K5gMQzSubx5a8eB0G2amsEPXY1ANkLxZwF29gLS8U2s3Z5+fuckYFRAXKTQqS7spZQSffRiQEFYfoWmZIwliQARCagYmYN+Wz6ntn5p3W61lFg3zAbnzoAloV9t6ceOww4KZiQTS2CALTWUFsEVx9I8ONm14QnJflwqnpE+a4vwxU4GHY9/hyIB/sGtWafMW0uWFcxLEg7PjlutYWaIngAFBclYeZMGHCgWOH1Sv978ubQX8trA39hIwLVz7DZlygDQrbHOmWw47Jc1X3Efjrb/T1V4CEThjBwAaxLF9YiapPgfFluNdxOQ42I7KngsTjmYOayDNGrojeakcjjchKcRrK7/h1y2f2mtpCbPh4KaMFEZ1KxvC4cLHlYszYwskeayD6d6Jax7jdteeO3hv/GVIoDXEklr97B/qCHnFbiQLWHu65amy1WLqqoqSwKSyic6/mBEZOUH94ZfQhSV5Uor/2uflHWZ04jEwQ6213hiPfjZ6ZB+veiBPx1MHl5uOs1t0qX9cj3m5KzrysdySiSMTvfAvkigbzLpy+uT9icz1pCbRJcScgOY+izogzf283Mi74SspcfDAUBFQTHwjCdjcjfqnt6j7oxNNu7P/4b9QcIy7ZAYLoK8dTMasKukeFIxTsfT1wOG0yy/8lSWaFIyU36ldQgVU1XqhdP8KPwRMF77LGVhfe2LL/KNDFXqDl4XJSoBBxYfrddSeAakdzC9Sg6DVccwPrMm7vtsv6dzAU5m/2eDHdescnKZJWadJ/xmkphBbRd1oBZtnrDJhVhPT6HxcAT/Ag8TXAHp6hOQVgabVumVm/btWzY6YEyh4GZFlW7oLUUNWe1V9YLxJNCCGKmWu9XoQJJv3dHW68FilxxAnKzeCjbQuoP0lem1jvWXzKTu2PLTCAyjKiuj4epbN+dCOIJfgSeTXAHSE7XH6Rmhz9Y/Nx2NAeDAwgZsReBry7noPI6ThD+LqRG/eyqaEoMe5/SSaD/61/nwL9668J2Ya34jMysR6F7kqO2drnlojWQxIZRAQ5D7EBEKN9TKKPTcip32zovHyhpsTWMcmYZbW98F57gR+BFBD8MOgPpM2FqFcuTzekNZeF42jLHqloQtxKg6PS/kHHIKnncchNNemK55v/nHdyXBYjWrjEEvnos+6ZN18NfM2XNrdJVmRWB3OxDWhyY3PDl1K9tfUOWgKPKyeoE2LkXwRP8CJRL8Pn1cVnSnYmaBx4dT0grLAeE4Ad1Z7YPKnZUl9xh8HqGdT4LhOE9IDxqya219J7B6PEywOehe6+r7YxdE8hsSGrEWl9dRqTViM2IE4bcbAMdgPTIsxgQC+pj/Vyv/KwFk+xjtpPGN+oIL4In+BEol+AsKM+kWMDOJzCkyYcDxcGB7LvqIRmmA1sBKcu1LgGwJ1gBfDmrS2FhnEoqwS0Q1ffSf07Vq6fsfE53krXa32clKxbk5PqbFGggG5+JnztSlw8sBvuLLAiL/dCQRscl8y5Rbmbu2NqFdvI+2Sbsjyf4MVEJwZ8Gh6S4t6H2ZcYOHPMHyY5ABlo7w3TKHYaOA3bCtLWmrerHmiRURe0EI/CqYuYFclNKZ42XoU6Xw3aVWLessgWOnFkVgFlNjIAsyHlr9kO5Pf+xrVPIFD6Wp3tenOEJXgVUg+DAFSI2Sx1y7j5f5CoLK7Kxk1fCu+wLpC8XgdXhBGGhIWvoUrviVppKGfG46jEIArYw4PPwHh1cpjA1aoTqUaVmubZ0IivxmL5/YEVCkttN/liwjMjE8g0LHFkRlxHPtcrSRUgf9/NHIU/wKqBaBD8Mcrd4c1SKJn8yBPjKJlVz/DRkNPtSgU8nqwAhyWQQjEL+gNyk1I6CWZGGZhtZsCIoNDZkNHtN78/rfui2zxiW1HwG5qESGDN6WUZEg8ebs38wn833THpgP5QLT/Aq4CQIfhjYiE1VcA4477GgB4SDDDHdzKHwwNK70SBha3mTbQgal/CxvD/5+6fBCcUIwEL3TMsb6bpmeWyyN/xuJf3wAI/N3+TKyI+Wv5Zv5z+Su/PXLXjkREetw44uwBO8CjhpggcBFlkXAimyLVZ23l131dI9V3Y2xVQClkcwp/6k7yzjouTEvqDIqC/3bFeQusTHc6kU8tXd7cPSmx61jAgdkO4SKm322jDkhrAUZog32Desghss7cDiPRRsbMqeWrNKyA08wauAkyb4YUB2yL1cmJK5tQc2MRkCOGV1a4c4ovPqcEoK2YO23aBUTpCKzcCzY0MopY9kX3M57JjaG932MDbJATvklnfmBMVbcyWHL6f+11bpClJ91VgWwxO8CniZBD8MR5JtyzCwPiGX42PSMmrfquSE6NwqAb+HslM6h/CoNcuqWbWxQhsC+Gz4aApe9xb+JDdmfqef+4abTMzs9gqV+nnwBK8CXhnB9YvMCypIPt2twVcw9bMGrN0tU8HAtoQh++FlFqg2csOGWKovJLkDUmM5WAbDrRqgdmRF7UjulgXQ5rH1q9qoV4KHHRNPBVB0Ch7fzv5B3r/9z/LHh/+lQ/8nqo4sbvPqlhNmhJnO3ZFPJ34pH9z7N/ngzr+acmOxjuOvowxP8OcAsgQZCRaEv7vwR/nkwc/lk4c/ly8mf2UZCrs09wkDUhMsfjbx33L94S/ky8lfWz6bKyfjvV2TmSf28+AJXgawBSxsc3/xM7k197Eq+4eWeoPkBKf5zUUrLB0Xlr/Wk4pLp9BIRtsBhRk8NqPJnYXr1gBFtuS0Xtg1LDzBQ2JTyT6Xvyc3Zz+Qj1XRf3/331Xdrysh50qvqBwHSm4mdnDS3Jj9vdqQ/5AP7/+nfDX1GzvBiBE8wsETPCRc8WbHvDizW1gYnialzyf/R66P/8LUlmCL8jj24SjwfgSGLC93c+YPZoG+nv6NPNDRgkDycCndW5Hw8AQ/BiAdfS545FtzH8rnE7+yJqaHS1+aT2ZVW0fMP89q8BgrwgnASYJiM4GDUeEL9dj3Fj61nndXTj89l90+CXiCVwkuj75i5P5s4pfyf7f+yb6nYkrrrms/daDqiCpD4Hvzf5Lf3fkXVe33XbFJ3+fwaz2OB0/wKgFVfpxLtylfs5bpoETOMs4EjfTAcOMxV5YIfkZKEiUnUHU2pPp57NMKT/ATBG25TL7IaQAKsSlOcSMgheAoOL3rz7IxHtWBJ7hHpOEJ7hFpeIJ7RBqe4B6Rhie4R6ThCe4RaXiCe0QanuAekYYnuEek4QnuEWl4gntEGp7gHpGGJ7hHpOEJ7hFpeIJ7RBqe4B6Rhie4R6ThCe4RaXiCe0QanuAekYYnuEek4QnuEWl4gntEGp7gHpGGJ7hHpOEJ7hFpeIJ7RBqe4B6Rhie4R6ThCe4RaXiCe0QanuAekUZdEpwrBXN991hTvOJLbHscDXfd/oR0JPp0n7eXnq0v1CXBk0purvuebO2U1hYui80139mUyq777vHnYF9yqfFYU0JSrV3Snz6vgpIp/bS+UJcE72zvl7Pdb8nFvh/L+e63Zbjzqh2I5qaW0is8KgXEhswD6YtySffv5f73ZLDzsl1jvx5RUwTnKjU7e0W77vqLwHCZSfSoig9JX3pMBjIXZLDjsilNZ9uAxFvavXUpEw361aJWr11HQ0bF/vQ5OdNxSQY6Lkpf6qw+d8ZGypam1tJvPAsHjy8rXmuoLYIf7Nt1J8u5oi/DKDs9qcrdmxpTtXlHLve9KyNd1yQd77GfcfC8bXkRGqSxsUnaWjPSkxyRseybckUV+1Lvj+WMigaqXY5QcAGt7d0NFafau7x4Uzab/Vnp+1cOCNnQoIrSHDc1CQsOBgFoWtUdG5OOd9uQuy9cdPXlX1D1TOaifpbu0qNnY3lj2q5o/DLBfkooqbuTQzby8Tm7k8OSjHfZ/mOfcRzKxc5+0a7fz3VBuRxiLaGmCH5gQ922qW9HW58dCHZ2uUCNYnpytMXSdkvEUtLcGNP34xZ//F5cZdgZopNFLRE8GPHYLwgAAoJq96ZGpCPRa8/zc/ZhGHJzbc/c1oJd6Xk+/1D2DmrLptQUwSEdw5wOnEZICIqfrgRNkL2pTb16t3S1nTG/3qxER8mLaoFextWEa4ngbDteuj9zXkY7r2ncclFFpNf2EaSuFKubczKxclOmV2/ZVZ1rDTVGcAeClY3tVSM7wUtzA0OmS12VD2d3+D0bCZpadPhNWDCFgsU1UG3Un+kLbORwVxiuLl4lwdnmeEtSujRI7EuftUCcex63qz0Jaghh1DrA1k7BiD2+/LXakq9kauVbWSsuvRIbeBRqkuB23ffiimzvbdoNwpNZYfjDXihlQ6kOB5GDib9si2UsMOUAc8K0qIVpbmwpvZ9R3e6rgZdNcLYTpWbUQ62JQ3o0AO9NjUp3algy8V5JKOnZ3rDERmi4vj4ee6kwITO5u0rwr2Q2f88uU16LGRTQcPHipZq9hjQEpIjDAcmoT+xKDlrqCiWiulYpiPr39WThRCrubNjQmt9alPm1h3ad+WplA94e+VsZ6rxSevRs3F24Lt9M/7b06Hhgf1EPyGrASNCYjmfN6nFyV6rWAbj0+OL6hDxS1V5cn7T9xf7bV2K/DLtXKWqa4IfRqqrU1pKSdo30CYrIdzPckg+nbF8JUGuUB0I7dVqRdSV4Xg/mmh5A0pUoV6U4aYIHgSOq7EamTrNgkJzHlNnNhoUEdm1PR0pIzQ0y5zcXJLc5b9aEVC7BZT2gJi3Ks4C/g3Ds6NXNWbvnIKjVliZVJ6wLhDWV0htfR4HXoGyQBL9KWpEqHsSw39b/AuUz4xJSqU7CovCZUWosFsTm/TnRsSIUaQKPjVUJo9hmzshnqyXc2Mnr/l00+zGh/pr030zujlqTSfPftWpHnoW6UfDDsIBTA0+XEswYMfs1iCKv29nWX8rlVla250ThZNpRz88JhaovrD8yn7mhVibMcHwSCs52sc2k+bildETjhAysHPumnJP7abDd2zqSzebumb/mxvYzsgXxz0kE4ieNuiT4YXBgyY6QN0+1Zm2IhuQ8xqejZKhwJbCUoh5gLAtE39ShmftCcVU2d9aMFC9CtQjeWFJsKovYj6R667RuazLeaSdz5dvn7BnblGNk1JOYEWVF73Mb83VL6sOoe4I/DQ52rwahgx2XrGyPPw8UPbAblcAUbnfLAi0sxfLGjJWnAxIwvPN1GJUTHOvkMkXYr5h+fk7c3uSIBpBDtk3hUqZPwAhkAfaeWr7ddSlsrcjc2gNV7Huq3nct5jjqxK0nRI7gDM8M2ZAaX92TGrU0GdkXFJCfVQLnUfeN5Kg6ao7SrSjRCbqKe24oP4xKCQ55Ey1pG4kIoklrEmQzUhEvcLJWYkMANovPPa2eerkwbUEkASPbxAn7rBO1nhE5gj8N0ovYFaqZRhYd3gkk8bGVVkkhOkpHTphgDNIQmG1ur9n3eFmG/zAER7FbmhL6uVKm0PSFZOI9ptwEkxSqKiU1BOYkJBvibMiMjkSPlNzL5rOjjMgT/DCCHgzK1bTWdrcPSUOjlY0sOKsEpupK6EIxZ2pI5iG/tWCK+P3hn1oz04twb+FPcnP299Yzw+frSboRh5RfpTaE8WYfJTbrtG+pPfpEHix/IcvrU+a5TwtOFcEZ3gnWWlURyT4QhPZlzhnRUfrKAJmcomNRtnYLlksnaBvuunpkQYri0mzuvpGb9F6iJWX2CsJXEi8EWSBUeqUwYzYE5ebks9FF1fw4uf16w6ki+GGQXaGDrle9OV115I+xLdgBF5S6/pdKgHoz/HMS8V4vAlXUDVX/IN1XSUYE30ywC4HJ8EDm5cKUI7laEqxTtaqz9YZTS/AAQVCK1x3pes3y6T3twxagchJUDnZruQoc5rXfBX6/qCPHo5UbMrF8Qyb1njw+ZfQoBYyV4NQTHKCakJksCxYBFae9lgalXvXEQSGllhDYIfz10vqk3bAi+GtGBKzKaSc38AR/BvC+XUwI0GBvQINRK+Er+VF1ug8pvLwK0NzkMiJka7Aiy1aYWVh7ZJYEb01Q6fEEnuDPAaruCi3NpX7qizLUccV6PyD6qwANYAtrE/Jw+UsrOOG1rXCzv2eK7ayOx2F4gpcBgk/SdgSCZFvIeJBTZ3Izz58kCBCxHjQ6LRdmLI9NGpLnSU96vBie4CGBVckk+qyxi3w1Xp3Fh1gkhzTkcWA1RFVkls6gYkrmA4+9qBZkKnfb2lUhtkf58AQPCawLKUSCTuaMUm0cLmVfyKcfB9gMyE1ufH5t3E3AsEpp3mau1/rkglqEJ/gx8KSTsd8mYLjekV6zMtgaFP2ovLYrEhUfd/NZJ59+j98miKQ/5DQVZqoNT/AqATKTYhzouGDldpt4EHOZl1gzixA96WTEhjhib1tRiOIMzU9MKpjL3TdCR6mj71XCE7xKoOqJWpMzh+ykE3vTzLI5b/0okD8oHOGtqWCSCZnL35f5/Lg1axV3ChY4Upn0GZHqwBP8BEG2hV4UAlKC0KB5KlBurAiBI/f0aDtie1QTnuAekUZNLb7p4VFteIJ7RBqe4B6Rhie4R6ThCe4RaXiCe0QanuAekYYnuEek4QnuEWl4gntEGp7gHpGGJ7hHpOEJ7hFpeIJ7RBqe4B6Rhie4R6ThCe4RYYj8P9dRQslMtIy4AAAAAElFTkSuQmCC;clipPath=inset(0.63% 1.09% 0.63% 0% round 9%);" vertex="1" parent="1">
          <mxGeometry x="29" y="441" width="24" height="20.57" as="geometry" />
        </mxCell>
        <mxCell id="zbzZgw3rJqMyJxL2BpiM-14" value="" style="shape=image;verticalLabelPosition=bottom;labelBackgroundColor=default;verticalAlign=top;aspect=fixed;imageAspect=0;image=data:image/png,iVBORw0KGgoAAAANSUhEUgAAALgAAACeCAYAAACBxsDsAAAAAXNSR0IArs4c6QAAAARnQU1BAACxjwv8YQUAAAAJcEhZcwAADsMAAA7DAcdvqGQAAB1fSURBVHhe7Z3pcxvZdcUvNxAgsZAEV3HVLo1mxmOP7Zka50OSD3FVkkpV/iP/L6lUtqpUueIPTsWOM/bYs1iefaTRLor7ToAESXDN/d2HlmiNJKJBUAKa71AQCBAE0d2nzzt3ea8bLl68dCAeHhFFY+newyOS8AT3iDQ8wT0iDU9wj0jDE9wj0vAE94g0PME9Ig1PcI9IwxPcI9LwBPeINDzBPSINT3CPSMMT/ITR0NAgTY0t0tLUqrd46dYqzfpcg355nCx8N+EJI97SLp1t/ZJoSUtMyQ1293dkc2dNFtYfyfbupj3ncTLwBD8BoNCJlpR0tg9Id3JY+lJnlehJex7sKcG3dgoyvzaut4eyqETf3Fm35z2qC0/wKgI70tjQLOl4VnrTY/L6mb+Us91vSW9qTJ9vKr3KYW9/VwrFVbkx+4F89uiXMpd/IBvbOTk42JcD/fKoDjzBqwTUub21Qy73vSvDXddMtdOJHmmPdUhrS9t3/PbBwYFZlbWtRVPw8eVv5NHy1zKh96j77v526ZUex4En+DHQ0NAoLY2tklEidyUHldRjcqnvHRnIXNTnekuvOhoQHQWfWv3WCL5UmJKVjVnJbc7L7t627B/slV7pERae4MdAc2PM7Mjrg38pV/p/Iud7fqCkbzKrEjZDElgTfPj9xc/l1txH8s3U+7JeXJbi7kbpVR5h4QkeEk2NzdIWy0h/+ryc6bgkZ1Ste1IjlilJxbtLr6ockHxta8nUe6UwK+NLX8ikKvvCGoHomuzsFUuv9CgHnuBlorkppn46Y9ajJzkiI9nXZbjzmvRnzqtNiZldOQk8VIKPL30lkyu3ZGF9XK3LjGxur3nbUiY8wcsEAeOFnrfl6sBPZCz7PUsDNmtgiaKfZMGGYJOgM7+5JLfnP5Lbal0gvLct5cET/AWINSck1dpVUuvX1Jack25Vb4LKxpDERnHdbV+aGprtxCgX/B7WZLkwbcWhhbVxmc3dk9n8PQtIfbHo+fAEfwoQLyjUdLT1WQ6bfPZI1xvqvVOhrAh+en9/18i5tVswIu4d7Eq8OWnvxd+xoDTEiUL+HC/+aPkbDUY/tfuVwoxsbK/q3/EZl6fhCf4UyGX3JIflUt+7SurXpS991pXZm+PfKdYcBSvmKPEC1c1r8CgHB1bh7E2NmpenlE9xqFxw0pBx4WSh+pnbXJA785/I11O/MTXf0uc8nsATXEG6LxFLymDHFRnIXDBSU6iBiO2tnaEUFuCP14srlgnhlt9alPWtZVNx0BZLSyqelY5EnwWtWB4yM3yOMDCi723ZyTOxckMD0W9lJnfXHm/v6WihJ9hpx6klOKRtbGySWJP67HiX9Yy8NfxTGc2+Idn2wdKrygdk21N7sKt2JLe1YH0m+OS8fv8sojWq1aH5qkv/Vp96e/4mxIfkFriGzMpQLILk9xc+lduzH9lnKGznVOk3zLZQOT2NOLUEp101qQHk+Z635VzP92VU7UhSid7a3P64KSoMUO01VWmqkQSDRi5UdG/HbMV3Qd9Ko/6tmNqfNmlTGxRYF5Sd5qwwgMBFHSGwLfS0QPaHi1/KvYXr1vOC0p9GnCqC46GD9tWsKjYB5FDnVRlIn9fHQ6VXlQ+COkiFHXHFmQX1wRNGKBS1XDCaNDe1WN8KgW1Hol8yep+J99jJFibj4nAgi+uT1qk4vXpHpnO3zbbw+VD0MJ+t3nEqCM5wD0nIXmTbz8jFvh/Lhd4fWeqPCQgoafk40CGfm+sGXNmYMwLRO1JQoh8XkD2hVoUAlHx7Mt6pn7vNTk5aAHhFWFD2J3+OolMoYnQhu/PskSVaOBUEx2Oj1Oe6vy+DnVcssEtq8EgqEPKHCSIpvKwrsQnmVpXUa0UNHtUWkAqsVj83J2OsSW2LEh3bgj8nRmhVomOtwoIRJq/qvVyYscrog6XPLT44DcWiyBKc0npCfSyFGTIjqPVQ11VTRqaQhSE1AeTOflG9bd6syOrmnMznHxpxTpokFJo4ISE635PVoWWA7QuTtiTQ5bNyYtLbMrN629KKqzoC0dAV1R6XCBJcqavcJYDsS4/JO2P/aHYk2dphah0eQd/2kgWQM6p82JFXga42DULTZ3U0umIjkJsCF96yQHZGIQLQb2Z+Kw8WPtORaElPZH4aLTpEiuB4185En4x0XZOBjkuWy84mB1X5shbEhSEDHpumphVVa3wr+Ww8N1XE7d1Xk5GgdSDe3G7b2aWxRLdaFzoYCZzD5NDdZAus1rIpOEpOfwuEJxCNknWpe4I7vxqXTlW37tSI9KvCjWbfVHKfs4xEWDDBgIIMFUjzrRvT1rbK41oqnNgkCyU4GaF0vMfiDHL6YTMu2K/NnYKOTjc1EP1YptW6LBYmZW1z0Uauei/91z3BUS+CsB+N/YMFkT2pUfOmZEYqsSRUHd3smlum2njTA9k31aslWGaolPYkzqAvnUA0bP4cuJ4ZGrq25L4GoLdnP5Yb07+1GINcfj2jLgmOSlHaHlQbQnkdT4o3JW9cyQGmCLJRzNncSPw1PSOFbQLITVO4WgWBsqU/dZvpocGKoewdTL7QGARLEwZsK9tOdohi1Uz+rsuj68ler5Mt6obgKBYTC/CfTBNDrc73/FDGsm9If+ZC6VXlA7uBD8VvEnDl1GszPKPgdXkg9YuiEH3rZIq6LOuSVfLTt94SKuMSgIyLdS1qEMpkC7JHpETraZ5o3RCcg4cyMe/xghKbvDYqjkpVkhsm5YcFQaXw2ARcEJ6hul4LIJCc/hrSoKRIsW60+aZLgWhY4MHpreGEp2MRjw7hiU2CxrFaR80TnGIHvvpM5pLls+nVoKzOQQs76YBCDL0aZA3IFrBkA+k/nsN/RgmQvM162vstACcYxb60NMdtwkVYsM8o98/nx2VSA1JilBW1MbXe49KUzWZ/Vvq+ZkCAyLAKiQc6LsrlvnfkjcG/kkv971qmhAqkla7LILcLoHatf5pMyFJh0lRoLn/f0n9YFFKCUQN+mgCRbka2cXe/qIKgQXcpWA5m/rvy/9GwqiqZKgtk2+33nE2hbYE4pTYXLKpJBaejD5/9w7G/t24/t7ZfMAMmXGYEr03ASGaEFlZ8pM2s0edPy+wX1Jw8ubN5fdLdPmQ971g8nisXQbaF/bexk9NglMkWH8s30+9bGwCNZ7WGmlNwlLknNSxXBt5T5X5PzqiCt7dm7CCVqzYQF4+Ix2ZYnVW1dt10c+a9+Xm9+uxKgJpjz1B0/HRxr2D7gceWJdL9GqRWXwQU37X4MqWPaXcZfdxs+5ORgsnRtbZfa4rgEJhK3agGRj8c/TtrZ03EUvzEveAIsKMtM7KzoUrtAsjJlZs2OZecLj877WAf0C9OAQsRwFhAWhecupimHCHhNfTDYCUhPKMj3ZS11opbUwRHpQcy520uJF1/NsNFd2K5gMQzSubx5a8eB0G2amsEPXY1ANkLxZwF29gLS8U2s3Z5+fuckYFRAXKTQqS7spZQSffRiQEFYfoWmZIwliQARCagYmYN+Wz6ntn5p3W61lFg3zAbnzoAloV9t6ceOww4KZiQTS2CALTWUFsEVx9I8ONm14QnJflwqnpE+a4vwxU4GHY9/hyIB/sGtWafMW0uWFcxLEg7PjlutYWaIngAFBclYeZMGHCgWOH1Sv978ubQX8trA39hIwLVz7DZlygDQrbHOmWw47Jc1X3Efjrb/T1V4CEThjBwAaxLF9YiapPgfFluNdxOQ42I7KngsTjmYOayDNGrojeakcjjchKcRrK7/h1y2f2mtpCbPh4KaMFEZ1KxvC4cLHlYszYwskeayD6d6Jax7jdteeO3hv/GVIoDXEklr97B/qCHnFbiQLWHu65amy1WLqqoqSwKSyic6/mBEZOUH94ZfQhSV5Uor/2uflHWZ04jEwQ6213hiPfjZ6ZB+veiBPx1MHl5uOs1t0qX9cj3m5KzrysdySiSMTvfAvkigbzLpy+uT9icz1pCbRJcScgOY+izogzf283Mi74SspcfDAUBFQTHwjCdjcjfqnt6j7oxNNu7P/4b9QcIy7ZAYLoK8dTMasKukeFIxTsfT1wOG0yy/8lSWaFIyU36ldQgVU1XqhdP8KPwRMF77LGVhfe2LL/KNDFXqDl4XJSoBBxYfrddSeAakdzC9Sg6DVccwPrMm7vtsv6dzAU5m/2eDHdescnKZJWadJ/xmkphBbRd1oBZtnrDJhVhPT6HxcAT/Ag8TXAHp6hOQVgabVumVm/btWzY6YEyh4GZFlW7oLUUNWe1V9YLxJNCCGKmWu9XoQJJv3dHW68FilxxAnKzeCjbQuoP0lem1jvWXzKTu2PLTCAyjKiuj4epbN+dCOIJfgSeTXAHSE7XH6Rmhz9Y/Nx2NAeDAwgZsReBry7noPI6ThD+LqRG/eyqaEoMe5/SSaD/61/nwL9668J2Ya34jMysR6F7kqO2drnlojWQxIZRAQ5D7EBEKN9TKKPTcip32zovHyhpsTWMcmYZbW98F57gR+BFBD8MOgPpM2FqFcuTzekNZeF42jLHqloQtxKg6PS/kHHIKnncchNNemK55v/nHdyXBYjWrjEEvnos+6ZN18NfM2XNrdJVmRWB3OxDWhyY3PDl1K9tfUOWgKPKyeoE2LkXwRP8CJRL8Pn1cVnSnYmaBx4dT0grLAeE4Ad1Z7YPKnZUl9xh8HqGdT4LhOE9IDxqya219J7B6PEywOehe6+r7YxdE8hsSGrEWl9dRqTViM2IE4bcbAMdgPTIsxgQC+pj/Vyv/KwFk+xjtpPGN+oIL4In+BEol+AsKM+kWMDOJzCkyYcDxcGB7LvqIRmmA1sBKcu1LgGwJ1gBfDmrS2FhnEoqwS0Q1ffSf07Vq6fsfE53krXa32clKxbk5PqbFGggG5+JnztSlw8sBvuLLAiL/dCQRscl8y5Rbmbu2NqFdvI+2Sbsjyf4MVEJwZ8Gh6S4t6H2ZcYOHPMHyY5ABlo7w3TKHYaOA3bCtLWmrerHmiRURe0EI/CqYuYFclNKZ42XoU6Xw3aVWLessgWOnFkVgFlNjIAsyHlr9kO5Pf+xrVPIFD6Wp3tenOEJXgVUg+DAFSI2Sx1y7j5f5CoLK7Kxk1fCu+wLpC8XgdXhBGGhIWvoUrviVppKGfG46jEIArYw4PPwHh1cpjA1aoTqUaVmubZ0IivxmL5/YEVCkttN/liwjMjE8g0LHFkRlxHPtcrSRUgf9/NHIU/wKqBaBD8Mcrd4c1SKJn8yBPjKJlVz/DRkNPtSgU8nqwAhyWQQjEL+gNyk1I6CWZGGZhtZsCIoNDZkNHtN78/rfui2zxiW1HwG5qESGDN6WUZEg8ebs38wn833THpgP5QLT/Aq4CQIfhjYiE1VcA4477GgB4SDDDHdzKHwwNK70SBha3mTbQgal/CxvD/5+6fBCcUIwEL3TMsb6bpmeWyyN/xuJf3wAI/N3+TKyI+Wv5Zv5z+Su/PXLXjkREetw44uwBO8CjhpggcBFlkXAimyLVZ23l131dI9V3Y2xVQClkcwp/6k7yzjouTEvqDIqC/3bFeQusTHc6kU8tXd7cPSmx61jAgdkO4SKm322jDkhrAUZog32Desghss7cDiPRRsbMqeWrNKyA08wauAkyb4YUB2yL1cmJK5tQc2MRkCOGV1a4c4ovPqcEoK2YO23aBUTpCKzcCzY0MopY9kX3M57JjaG932MDbJATvklnfmBMVbcyWHL6f+11bpClJ91VgWwxO8CniZBD8MR5JtyzCwPiGX42PSMmrfquSE6NwqAb+HslM6h/CoNcuqWbWxQhsC+Gz4aApe9xb+JDdmfqef+4abTMzs9gqV+nnwBK8CXhnB9YvMCypIPt2twVcw9bMGrN0tU8HAtoQh++FlFqg2csOGWKovJLkDUmM5WAbDrRqgdmRF7UjulgXQ5rH1q9qoV4KHHRNPBVB0Ch7fzv5B3r/9z/LHh/+lQ/8nqo4sbvPqlhNmhJnO3ZFPJ34pH9z7N/ngzr+acmOxjuOvowxP8OcAsgQZCRaEv7vwR/nkwc/lk4c/ly8mf2UZCrs09wkDUhMsfjbx33L94S/ky8lfWz6bKyfjvV2TmSf28+AJXgawBSxsc3/xM7k197Eq+4eWeoPkBKf5zUUrLB0Xlr/Wk4pLp9BIRtsBhRk8NqPJnYXr1gBFtuS0Xtg1LDzBQ2JTyT6Xvyc3Zz+Qj1XRf3/331Xdrysh50qvqBwHSm4mdnDS3Jj9vdqQ/5AP7/+nfDX1GzvBiBE8wsETPCRc8WbHvDizW1gYnialzyf/R66P/8LUlmCL8jj24SjwfgSGLC93c+YPZoG+nv6NPNDRgkDycCndW5Hw8AQ/BiAdfS545FtzH8rnE7+yJqaHS1+aT2ZVW0fMP89q8BgrwgnASYJiM4GDUeEL9dj3Fj61nndXTj89l90+CXiCVwkuj75i5P5s4pfyf7f+yb6nYkrrrms/daDqiCpD4Hvzf5Lf3fkXVe33XbFJ3+fwaz2OB0/wKgFVfpxLtylfs5bpoETOMs4EjfTAcOMxV5YIfkZKEiUnUHU2pPp57NMKT/ATBG25TL7IaQAKsSlOcSMgheAoOL3rz7IxHtWBJ7hHpOEJ7hFpeIJ7RBqe4B6Rhie4R6ThCe4RaXiCe0QanuAekYYnuEek4QnuEWl4gntEGp7gHpGGJ7hHpOEJ7hFpeIJ7RBqe4B6Rhie4R6ThCe4RaXiCe0QanuAekYYnuEek4QnuEWl4gntEGp7gHpGGJ7hHpOEJ7hFpeIJ7RBqe4B6Rhie4R6ThCe4RaXiCe0QanuAekUZdEpwrBXN991hTvOJLbHscDXfd/oR0JPp0n7eXnq0v1CXBk0purvuebO2U1hYui80139mUyq777vHnYF9yqfFYU0JSrV3Snz6vgpIp/bS+UJcE72zvl7Pdb8nFvh/L+e63Zbjzqh2I5qaW0is8KgXEhswD6YtySffv5f73ZLDzsl1jvx5RUwTnKjU7e0W77vqLwHCZSfSoig9JX3pMBjIXZLDjsilNZ9uAxFvavXUpEw361aJWr11HQ0bF/vQ5OdNxSQY6Lkpf6qw+d8ZGypam1tJvPAsHjy8rXmuoLYIf7Nt1J8u5oi/DKDs9qcrdmxpTtXlHLve9KyNd1yQd77GfcfC8bXkRGqSxsUnaWjPSkxyRseybckUV+1Lvj+WMigaqXY5QcAGt7d0NFafau7x4Uzab/Vnp+1cOCNnQoIrSHDc1CQsOBgFoWtUdG5OOd9uQuy9cdPXlX1D1TOaifpbu0qNnY3lj2q5o/DLBfkooqbuTQzby8Tm7k8OSjHfZ/mOfcRzKxc5+0a7fz3VBuRxiLaGmCH5gQ922qW9HW58dCHZ2uUCNYnpytMXSdkvEUtLcGNP34xZ//F5cZdgZopNFLRE8GPHYLwgAAoJq96ZGpCPRa8/zc/ZhGHJzbc/c1oJd6Xk+/1D2DmrLptQUwSEdw5wOnEZICIqfrgRNkL2pTb16t3S1nTG/3qxER8mLaoFextWEa4ngbDteuj9zXkY7r2ncclFFpNf2EaSuFKubczKxclOmV2/ZVZ1rDTVGcAeClY3tVSM7wUtzA0OmS12VD2d3+D0bCZpadPhNWDCFgsU1UG3Un+kLbORwVxiuLl4lwdnmeEtSujRI7EuftUCcex63qz0Jaghh1DrA1k7BiD2+/LXakq9kauVbWSsuvRIbeBRqkuB23ffiimzvbdoNwpNZYfjDXihlQ6kOB5GDib9si2UsMOUAc8K0qIVpbmwpvZ9R3e6rgZdNcLYTpWbUQ62JQ3o0AO9NjUp3algy8V5JKOnZ3rDERmi4vj4ee6kwITO5u0rwr2Q2f88uU16LGRTQcPHipZq9hjQEpIjDAcmoT+xKDlrqCiWiulYpiPr39WThRCrubNjQmt9alPm1h3ad+WplA94e+VsZ6rxSevRs3F24Lt9M/7b06Hhgf1EPyGrASNCYjmfN6nFyV6rWAbj0+OL6hDxS1V5cn7T9xf7bV2K/DLtXKWqa4IfRqqrU1pKSdo30CYrIdzPckg+nbF8JUGuUB0I7dVqRdSV4Xg/mmh5A0pUoV6U4aYIHgSOq7EamTrNgkJzHlNnNhoUEdm1PR0pIzQ0y5zcXJLc5b9aEVC7BZT2gJi3Ks4C/g3Ds6NXNWbvnIKjVliZVJ6wLhDWV0htfR4HXoGyQBL9KWpEqHsSw39b/AuUz4xJSqU7CovCZUWosFsTm/TnRsSIUaQKPjVUJo9hmzshnqyXc2Mnr/l00+zGh/pr030zujlqTSfPftWpHnoW6UfDDsIBTA0+XEswYMfs1iCKv29nWX8rlVla250ThZNpRz88JhaovrD8yn7mhVibMcHwSCs52sc2k+bildETjhAysHPumnJP7abDd2zqSzebumb/mxvYzsgXxz0kE4ieNuiT4YXBgyY6QN0+1Zm2IhuQ8xqejZKhwJbCUoh5gLAtE39ShmftCcVU2d9aMFC9CtQjeWFJsKovYj6R667RuazLeaSdz5dvn7BnblGNk1JOYEWVF73Mb83VL6sOoe4I/DQ52rwahgx2XrGyPPw8UPbAblcAUbnfLAi0sxfLGjJWnAxIwvPN1GJUTHOvkMkXYr5h+fk7c3uSIBpBDtk3hUqZPwAhkAfaeWr7ddSlsrcjc2gNV7Huq3nct5jjqxK0nRI7gDM8M2ZAaX92TGrU0GdkXFJCfVQLnUfeN5Kg6ao7SrSjRCbqKe24oP4xKCQ55Ey1pG4kIoklrEmQzUhEvcLJWYkMANovPPa2eerkwbUEkASPbxAn7rBO1nhE5gj8N0ovYFaqZRhYd3gkk8bGVVkkhOkpHTphgDNIQmG1ur9n3eFmG/zAER7FbmhL6uVKm0PSFZOI9ptwEkxSqKiU1BOYkJBvibMiMjkSPlNzL5rOjjMgT/DCCHgzK1bTWdrcPSUOjlY0sOKsEpupK6EIxZ2pI5iG/tWCK+P3hn1oz04twb+FPcnP299Yzw+frSboRh5RfpTaE8WYfJTbrtG+pPfpEHix/IcvrU+a5TwtOFcEZ3gnWWlURyT4QhPZlzhnRUfrKAJmcomNRtnYLlksnaBvuunpkQYri0mzuvpGb9F6iJWX2CsJXEi8EWSBUeqUwYzYE5ebks9FF1fw4uf16w6ki+GGQXaGDrle9OV115I+xLdgBF5S6/pdKgHoz/HMS8V4vAlXUDVX/IN1XSUYE30ywC4HJ8EDm5cKUI7laEqxTtaqz9YZTS/AAQVCK1x3pes3y6T3twxagchJUDnZruQoc5rXfBX6/qCPHo5UbMrF8Qyb1njw+ZfQoBYyV4NQTHKCakJksCxYBFae9lgalXvXEQSGllhDYIfz10vqk3bAi+GtGBKzKaSc38AR/BvC+XUwI0GBvQINRK+Er+VF1ug8pvLwK0NzkMiJka7Aiy1aYWVh7ZJYEb01Q6fEEnuDPAaruCi3NpX7qizLUccV6PyD6qwANYAtrE/Jw+UsrOOG1rXCzv2eK7ayOx2F4gpcBgk/SdgSCZFvIeJBTZ3Izz58kCBCxHjQ6LRdmLI9NGpLnSU96vBie4CGBVckk+qyxi3w1Xp3Fh1gkhzTkcWA1RFVkls6gYkrmA4+9qBZkKnfb2lUhtkf58AQPCawLKUSCTuaMUm0cLmVfyKcfB9gMyE1ufH5t3E3AsEpp3mau1/rkglqEJ/gx8KSTsd8mYLjekV6zMtgaFP2ovLYrEhUfd/NZJ59+j98miKQ/5DQVZqoNT/AqATKTYhzouGDldpt4EHOZl1gzixA96WTEhjhib1tRiOIMzU9MKpjL3TdCR6mj71XCE7xKoOqJWpMzh+ykE3vTzLI5b/0okD8oHOGtqWCSCZnL35f5/Lg1axV3ChY4Upn0GZHqwBP8BEG2hV4UAlKC0KB5KlBurAiBI/f0aDtie1QTnuAekUZNLb7p4VFteIJ7RBqe4B6Rhie4R6ThCe4RaXiCe0QanuAekYYnuEek4QnuEWl4gntEGp7gHpGGJ7hHpOEJ7hFpeIJ7RBqe4B6Rhie4R6ThCe4RYYj8P9dRQslMtIy4AAAAAElFTkSuQmCC;clipPath=inset(0.63% 1.09% 0.63% 0% round 9%);" vertex="1" parent="1">
          <mxGeometry x="208" y="100.74" width="24" height="20.57" as="geometry" />
        </mxCell>
        <mxCell id="zbzZgw3rJqMyJxL2BpiM-10" value="" style="shape=image;verticalLabelPosition=bottom;labelBackgroundColor=default;verticalAlign=top;aspect=fixed;imageAspect=0;image=data:image/png,iVBORw0KGgoAAAANSUhEUgAAAKoAAACbCAYAAADyUACKAAAAAXNSR0IArs4c6QAAAARnQU1BAACxjwv8YQUAAAAJcEhZcwAADsMAAA7DAcdvqGQAAB8ISURBVHhe7Z1HcBxXesffBAQGkSBBEiIpBjGDUWKSSIlKXEkbqlb2yfZhfbDLh/XVZ1e5fPLBrnKVD7K37NryWrsOu94giVSitJTEnMSccybBnIlJ/n7vTVPjRs9Mg+ye6W68f9UUCGA4AHr+/f/y91LTp88oKQuLiCNd/mhhEWlYolrEApaoFrGAJapFLGCJahELWKJaxAKWqBaxgCWqRSxgiWoRC1iiWsQCA6aE2t6aUoNay59UIF9UKpfnUVIF+bdFNJF4orZmlRrxVEqNH5VWT4/oa0AeCkHv3C+pkxeL6uqtksoXyt+wiBQST9RRw1Pq1flZ9dpzWfX89Ez5q9/i/sOSJui/f9KrNu4vqJt3S6pk23Qih0xnZ+fflP+dODz7dFq90J1Vby7OqjnPZtTTI1NqSHvfx7DBKdUmrkFGBPfSdXEBRFWtGxAtJJKoLWLuO4ak1Iuzs+qN57PyMaOV1QuQE5KO6RAfti2liXq/V6kHvSVVtMoaGSSSqF0dabVCzP3bS7Jq6ayMGjIopdLePH2Elqwoq5B76ri0unGnpC5eK6leCbKsGxANJI6ok8XcL5mZUW+JuZ89yShpPZICntPWklLDhxoXIJVKad+VjIB1A5qPxBA1K3HSYPE3X5qbVSsXZtWKeVkd7fcHadwAIWvXiLTqEMKeuVxS9x5KwCVugLLK2lQkhqjjRom5F3KipAsluh8qpBVRfCxkMibImjAmpe4LUS9eFWWVAMv6rM1D7ImKCk4ck1aLZ2S0TzpnckYHRo9LUuAo60hRZP5dLKXUjbtK9eZsUaBZiDVRIdEgidhfFiX9ziIT4T81uDZDCY54oI48sxqhNVnltbtGprUrQEGAHOuD3vITLBqKWBN1giipY+7nTzXRfS2aFkUNSfBfulES/7OozTvKWQsZibLa21I6B0t+9by4AVSvrBvQWMSSqARO+KSYe5R0/hQx9yNqkxSSUSo9fK6oDp0uquMXipqkPMifVgPKSp9A5zDciZROWd2+X86zWjegYYglUYnuXynnSVeKuR8qSloPmOwLooYfb82rbYcK6uSlorgAhqTjOoWNNUDqCrJ2iapO7BI3QEhO6sq6AY1D7IhKnpQUFCQlT1rPJyX4uf+gpPacKKp1e/PqhPiad+RzuqZwA3pzxk/F162lrCAtT4SwpL1QWtwAXt8qa/iIDVEpi1JxIplPnpQGE6L7WsDc3xZzf0IUcMeRgtp1TEgqn0MuAqq7D0RpJZKHrKg0RMUVqBZgUQhol++Plp+bFZnltcizWjcgfMSGqMOHiLlfYAInyqM6cKrNU02g02LiPxJzf+iMIak7CKKuf+k6LDNq+bRE+bUqWfzMViHrKPFZKbee6ymqyxKcWTcgXMSCqHRB0WACSbsnZnTVqBZJUcwHYtZ3Hy+qLQcL6tj5Mkk9VA9l1c8XUqOsGQnUIOLgGm4APzubkeeICvNAaXEDeH1eyyJ4RJqoND2TdF/abXKkNJhU64JyAFFu3zNKCkl3Hito81+PQLgB94Tc1PZJWxGg0ahSzw3A/cBduFIOrii32tRV8Ig0UTuFlK/MM/2kL87JaALVMsuAwAmfFHOPkkJSv/4jqSfMOCoLSUcPT+tUWDVAYp6Hws94Jq3/7+XrRpktV4NFZImKuV86S8x9Obonj1mLpAROmG+i+x2HCzpf6kdJK4ESoqi9eUO2lpb6bgC/U4s8Z/jglDp1qaQuClFpE7SqGixqJxCbAN30LAr13DQT3b/QnVFjO2vLKIqJD3q2p6S2H86rHUfNSMnjzj/Ri7r3ZEHnW0+JC3FPVLqWKreI6pImww3w21Zo0T9EjqiYW/xRAidSUUTitYCZJh+Kmf/dhpw6fLaoP+frTwL83F3i324VP3ffSXlNUWuL5iFSRJ3cxYxTRr25yJh7EusELdWAYt4VtYNI24+Y6B4lDSLy5rV5retixm8JaW0031xEgqgELARKJPG/I+ae8mg9c49iYpIpi246kBeTX9DmP6hxZ8x3m/io7dpPJctq0UxEgqhjO9Pa1FMWhazkMmuBQAWSksT/cFNON5gQSAUJfM4FUzNq8ayM7nGtV161CBdNJSpm3Wl6hqgQol4wgmLeEVO8/1RR7ZSgCbISZQelpIAMw7TxabVQfq/p4zM6l1srTcXP5sa5frukbtqIPxQ0jajkIAmUFgkZyJMS4XeNqK9aD0U5yVV+tVvMvfilQZp7fjo3iTMgyA3k93fquVFSpy8X1YVrRd95Wwv/aBpRUVLH3M97to6tF/Dm3xVS7j1RVB9tyakzPcGb+w5RTm6cJWLuZ03M6GR+LeAnkx34RpT93fd79Udyt0+acbDoi4YTlTwpe6AYwKPpGZLWUy3dBSWEwMzvOl5Q+8TsY2aDVFIyDFPHptUiUdIZYu5xQeplHFDzPfL7fL2noL4UhT8rN4+tSoWDhhOVoIQUFEr6+nPZurV78DBnovs1O/LaLyUlFWS6CDeETigCpyUzs7qNrx74nXBBfrc+r1ZtyqtrcuM8FJJahIOGEpWyKB35mHzypAQo1Zo+AGTE3NMF9cXOnDp3pagbR4I0rQROqPtilPSZjG6EqfU74YKg7qTDfvpJr1Z4u1gtfDSEqLz5THI6ZVE+MixXC5AUQpDEp0IEWYOM7gma6HHl5oGkMyfUH7N25q4OiOuxTsz956LwmHvU1SJcNISobMt7eZ4x93xkgVk9ECgxKcqM054TBZ3+CdLco+YzJxhzv1jMPSmoeqCMCjF/+WVOfbY9r28cFlNYhI/QiYpi0ZFPWZSmZzqRmDeqBlQLUu4RBd2wr6Cje1QsyNwk5n7elMyjPGl7q8npVgM3CL8D5h6S7pYb58pNc+NYk98YhEZUzD2EwMy/IeaevGS9sqg290KIkxdL6psjBZ3uIYEemLmXv5aGaMfc4yfXzTiUSXrkbFF9vbugFd6a+8YjNKKOHJbWW54x98skymdkox4YH6HpmbLogTNi7uXzIJWUAsPsScbcPy83EC5JPdCJdVz85J9/nlNrd+WfqH3Q4vERClGp7CybbbqgMPfsHa1pWh1zf6KotpZn7m8JIYKs8JAGmz3RlEWnjctoZa1VFq0096s253VAx5JfSGrNfeMRClExqajpstn1u6BQTPKi56+U1LZDeT3WTLQfpLkndzupyyTzKTDUyzg4VbBTF4tq7U7ypCY1llRzzw3LjUsWhMKH80BgKNBEoRE8lMMm/vKdVvXO8ha9G6qWaqFMKOmB04YQ+H70f6JmQYEuqO6yks6dXF9JATcKv9P/rM3pytNZIWmSlXTsSJM6HC1WZ8ig8hcFVP82HyzowgZi0kyEMjP1+vNZ3SJHhF8tL8kbD0mdLijKomwwCZKkugtqnFFSzD3mv1bGgd+JFBQzV2t3FdS6vcbcM/SXRKCUrCji+uCm0b02fXxaB5s82O/1lNzYpOCu3xZ3SLjarJs1FNPvBwzR3dB3rJlxwh8MytxzczDHxMXmTSBwqmfueQMInCjVkiP9YGNOXbyWXHNPzDBIAlyacN4uNwdxKAfK6jyWz8mqP1nZohvZWUJXa4tM2GgaUTVC+qPxtZ6jLCrRPf4y8/f1wI2Cmf/Jh71qmygq5j/JfaXjR6c1QSlnY/28CEgDO9dyxbyM+tM3W7Ta1prIDRNNIyoXgZTVlLFpNUl8WcY+amUG/GKkY+7LyXzMv5+JAdoHvxRzv2G/+KQ9xtwn0SfFPyd2oNcWcz9XgkuacLyIimuAik6W92j5XHOoXPektA5Og3iv+oOmEdXZgsIi3hfE5JDTrBfk+MEUkvnlLig/Tc+AKP9TMffvi7nvuZHsZD5btJ1TY+i7qLdoDrDpkP7hP3otq2faKIFn6/TqBo1Qgin2jUJCFo7VJJ/8rWx0Rk3HdKT1ZjxM8OMEVPw8TueDpDOfMdG9X38KRf14S14Cu0JgfnIUQX7b2dBN4MQ18guuJZaJIUz8ffocbt8zsUYjEApRW+Vu44+CPJgO7mIv8FXt1IspISJHyejpZCYKs+vH9HIBRww1m/XozKdVr14XlBsQdfXmnDp4JsCUQ4RALpQDi7k+emUnqSgPJeUmpRno5l1zXSsnHPicxXB60Ya81r3yrq7rd8z7FLabFApRWRjGRmZA4pgWv1qArBC6c3halzlpRMFH9KNuKLZWUjFnS8XcD5UL2R+SAoj66ba8OnoumUTVKzslckdJ2eVVbWUnxOu5WVJH5Dqwyoj/5wYWEFWdOMa4arQ8oqphW6JQiMobD9HoegfOIrFaM0j6DpY7tq2VC5vWylpvdxSBEiVaSErgRCXlcaooSSbqsxIIUSGEpN2TvFd2QjJSc+SPtxwq6GIH5OO8LXeBhP/Lg10HWEKUmfcJFQ6TrKEQFUBUWuF09Cyfs/iW00VQzmpw3ABMN5OdrILkQDJ3opmkPYloontIyiCeNvfl7/cXSSSq073G6dqsSOI6UXlyAyGgQ43jiTYdMFu5maRl9gugqsQQ1dwAgqxbQtJbQlY+ci3DcANCI6oDuo1YxwiL2HhHgFULKCI+bsdTaX03X7gmfquQtvJu5cIRDHDxKY3yvMdRUgdJJCokxdwzir6syspOCEV1kH1dq8RHP33ZlEr5Or0ON8T/5H3j/5L2c0MfbSSuGsHVkDalrx8ED6OZPHSiQjDMOPubuNEIrFBDfCAvOKaFO5h1Oigsf7jTTcXOVAImSDp1nNlP9SQkBUkjKuYeJYWkuEaQzH2NeF8gI4uOqQwePcfx79+6WnzM5Us6aOJ94/0YLGR0KyvWjcZzCMt7i7uHnxs0QicqwN8xe+4NWYnwuUsr/2g3HDeAXCjuA5UiLgwpFsqiBFBepqwSXGzI7ZC/GpJCVKJ7TDU+KeYeJfVSQq4Jlo6glVFv+i1QUq5DJSAzTUKOG4B/CyHdKUdiCypWXWItD52B9MFfx4YQ1cEduTu1GyAg8mTnVC1oZS37QjwX9aQkSjWFQ3lrNZiAe6IYHCaBetdS3aQQlRSUE91jcbzMPX+r0wz0yTZj7vm8ll+J0tKUghsAUXEr3DAKrNRm8XNxJYJGnbc6WHBBaOVbJ3cxK3l2Hy9ol6AaICr5WMw9eVJq0lPkY70qFo3YmDVW/ny5K6+LCEkHloamEt2sXo7u3WVOFPKWKKQ290fy6uSlkq+t3JxNgAKT5GcKwwu8VwhHLcv1JAilH9UPGAmhdszdj69JgBQEUAwKBuevFNV//p4OqJL66x+1qWdGV78neQP/9mcP1BffiCTEEJDj1QXZRw8ifje4LpAUc//RFnO+gd8eU0QB4lN6ZdsiVs0NVPfarZL6h18+VB9uDP46No2oROpEixCV06FpkggC+LL7TxbVr742Tc+4C3/3F+26w78aMHtH5Y3jQscVVAHxR72CSxSTQzhQ0o37CnqZW3+WE9OzOkeEhf6JcaNMbtUNLBgZmn/6zUN9IwSNphEV4PzPkbtz+VzTJMFOKq9qiB+gipynz4wTrsUn4nNSHWN2/+9/3K63WQ9EaHMvZpu9XZh7FnkQ1PohKVZu1PC0mj/FTADgXuD3ukHpm4M2uAkY2+GGCBpNffdwvvmj1mzPq0+35vVckt+7vBIoIhefbnzGmemCunjdjjRzXVBSruvvd+bULiEp5t7PNUaVCWIh6aIZponFi6S4FBQM9p4oqF980atPowkDkZAZuupRQCJv5vlRAb/gzSBYYkr0nz/oNcOB8nmtKHYgwAkoEQImFjhZsD83Lj2r+KRLZmHpvK0cr3ftZkl9uCmvl8WxIzYscYgEUSEWs/NsRuEE6MNnzeKxeoDQKATZg692s/6xYvXjACYq14UInRQUS9ww+/jukLceMPdjJXYg2CXLQokUZa0E15ZrfPZySa/bZDEHiqrVuh8i0x9ExnGDV7vl7kdVeUC4euDuZULy/Q15fVfjk9rVj3JdxA3i+n28VQLKE/7NPaCxB3+UwGm2mHuqTm5AVIiP9cKKodpYtTDFIVIRBv4O6SS25H0mZGV2Cd/TDZ7HhSJw+rePek0+VhR4oJt7lBTCcF3Y6oLPDmn9gmCJ7Avm/ulO7yIJr8fQI2d6Ed1j7jlKPuxL39DKlB9QLkUZ+UiwRRKZLiz8WOfBsgrSSRv2GgWmtuyU+dygF5ZjKskDJhmYXIIaXCi2zTB+7ldJMfekthZMyWhzP228GXWvBCJAzwXzZLQDQlLmzPgZjRCIpqanaoGkNfk6usndVSguDFWum6Kq+GJ8Xu1izZeLPxDSUyjpQSHn6i2myNGfgNIsoGACIKtHzLNy7d23NTcC1/qTrXldSDl/VUgqPwPr1ghElqiAEiC1ZXdZjjcAM5eXq1TPefdDVJo0MGU0DEcNg8RHJKChv4GcsBtcB8wx5WIyHxQ7qBLx9XrAtBPdEzhpcy9BlNfiOF4fN4LKHU0s+KZ+c7FBIdJEDQJ+iMqb+lfv3g+lovKkcEqX77zUoosibjzsNf76b9fndLse//ajpJh7onlee4EET5RF3T6pIwgEZgS6/7U2pzMIzeidSLY9HAioIFdfLawOKk5OnpRJCa/ACZISpJL2+9lnOT1LxVxVM2CJGnGgagSW1Uw57tHgdjPxwBbtYeLX1+os43vU7p2KEzlT3Cs3MPfnREnp/CdHfeJi2SdtkndkiRpx5IUYNJDcEGXzStpDPDbOzJ+aVi/MymgS4md69erSW4ErQYMJudJZE72T+fwMfFJ8XipO+KSY+0b6pG5YokYc9H+yln3TPgKZvCasF1BF8qA/eDGrCTikrW8elOjeMfc81wukoIjuCZzwSU9dkuCsSea+EpaoEQcqhppRDqUQsu1QQTeZuIELgJIyL/XctKwOIulEQ3FJ9U0YnRb3IK37Scd1mlEgNzD3nERDCoqVmzpw6kdVK0xYosYE9JCys/Wz7TldV6fr3u0vOit3FogbwDFJNJNAXsqic59lmbE5iM7dT4q557UYzCO6/8UXOV3d4gZplk/qhiVqjIAJZiaJTrMvvsnpip0XcAOYaPju0hb15uIW9dLcrFranRVV7auigAog26VJz/16XU7P9XuVrpsJS9QYgcjfBDlFfS4sxxtRIXJDuwGiotOfoQPKdEFBXK/OfBp7UGt80nV7CmrfSZMnjYK5r4QlagyBH0nTzqfbzLiNV4IfsuIGUNWaIYSlwuWGae5ROrr/l1WmlxeSer1es2GJGlMQnUMs0xYp5tpDWWsBJe25XlTvb8jpYbyr4kY8zEeQoWVYosYUBDnnrpieUHxWxkwuCfHqNYnoAkK56Xm9RPZs2aZNMsym5yBgiRpz0PbIvBmqCmnzddoVnF5eWgF/IuaeA5FJQUUdlqgxB8SjxLrrqARY2/N6iM8rzwp007O4CJh75qguSmBGp1UUfVI3LFETAhZLUAyAgORCISvd96SwnMfxC0W9/9TJGNDTG2VzX4nIdfgHDT8d/qgSQUncd09RBDjTIyqpz0JQutxKEzUTqDy+2lNQH2zImwYTIWkMhPQRrKImCORZSS/tOynKKqr52/V59Zuvc48e6/fmdc4UktYLuqIGS9QEAvVkP8LXu/N6yM95HDxtSBq1ZL4fWKJaxAKWqBa6y4qZrGWzM+q1BdlHD477YekyB0s0G5aoAxiElzSwUGaFmD94sUX94YpvH9+VIJSDPEY+ldYl2erhaPiwRB3AoC2Qw9G+tzSrfrg8q16dLypKY3X5AXn/7HucLm16W3l+s2CJOkDBHtV5Yu5fWSAmf05Wj7B0jTQnKDoPzuunAZt16yxdZkKgWW6AJeoAA+abrn/Gx99a3KJWPs9KSe8pVGdqgEMr/viNFj3iwhFMYa0/rwVL1AEGc7q0WUm/cqE5SK4eHp0u/boQm9Olh3KiTfmbDYIl6gAC5r5bVBGf84XZZsCPCdZ6QIHxUZlcXSFuwMtzy25AA8lqiTqAwF6pt5a06JIyI9P9geMGcPLKn3+/Ra8B4gimRsESdQCAEZQXRUE5ye9VUVPOifLyM+kV4BwwxlGqzWPhBozrTKs/eNmkrziCvhHKaomacOBPTh+f1gRd1p1V0+Tf7pWS1P0Z8GPH1N7jBb1wTZ8Sc7tvdxVuAPNYHLjGUUFLuzP6fNuwfVZL1IQDkmLqeczw2AYIaLammXrzgbxe4UOPwKb9ebX/ZEEv6XWDDAHn2S6cnlE//mGrHh5EtcPMBliiJhSonj4CXaJ0gp9Rw/rumQWYe45AZ+kETSucfcqoNF9j4/fOowXdKugGpIScLLagYPC23Ai4FGHlWS1REwiCnqljORkxo5bPyeq9qoPayt8sQ08G5JS6cKWo9p8qqI2ipjRbOwd14KOas6kK6th5c/iHe1EbxGd3FeaffCzFAcqtYcASNYHgLFTypDymCGG9gE/Kjqn1+/JqgzxYL+k+Z5+WwD3Hzap1ZwDQC4xl8zN/9Gar57LhIGCJmiAQOBHkOEra1ZHuc8YsaumYe92jKqrJmQmopXt2iklX9qHyXFb8sErIyw0gdTW0XekVQkPkYxiwRE0IUDXypCsXtqgV8zhhum9dXo9Ki5Jevl7UUwCc8I25r3fkEW4A/iur4/m/XmDNJT8P0oYBS9SEgCW+OrpfnKm6Ywr/88qNkj4afutBsxWl2oLgqMHu8Bdg4qJ62IRfzBLfcOYEcyCFO7rXSiokxYTvFSUlQOKsKL+Hx3FyNd1VtP6xz4qEvxtMtFIs+Mf/fahWbxbZDhiWqAmHY+5Z2UPQhF/KinN34OQFUlAk8llVyUFp1Pq9pnnJINy4bcax/3V1r164FjSs6U84UE2WTny+I6dn+YncWbfuB/i99KyipLgW1Wr7EJ8U1398Zk5NCQOWqAkFKgdJWW2OqeckP8w9aSl3dO8FOq0ot1J9wtyTzG9xuRT4t5CUiVd2WJEZuHLTEvWxwHuCD+rnzUkSINHtuyVdWfpcTLFfnxTNpEQ6SVwlUl2LxOR7+aSAChaHJq8Sn/SDTTnVIyT16/f2F4knKonsdXvyuslioIA86dnLzunS5U19Pv/8b0+Xzqg54psy/OcGNz29ASj1uw06XTrxK30ICIh4SXx3yJvAhfeqeScBWA5MO9tQSM5TUWL/FMGUHxAocVgFSkoDC+uQ3McAOeaeBcKcP8WuK33IckhK6iDxRMUU0b7GRyJYBtYIEpIISIqyQaB1e/O6TY+v+QVlUGcCdcTQtGc3FOcIsDT4vTVkEArqqkcrYBhIPFEBgQXmkNo2/ld7S0oHB0kCfx9KSjKfKtKVclnUD2h+7p6Y0UrKHD/m362kqDU3AR1Vv16X174vgVOjCgaJz6NWgrY03gwUg/xqHOB0KDG+TOLdDW5CFO20RPf4oxCV4+H9mGIUk9emcYVrAkm7RvT9Gbw+x6ofkhvgUzH1qzfntI/q16UIAgOKqKhpWyv+amPGJ4IAQ3U0JtPvSUe9GxDyjpBmtQROOyW4QUkJnPwENtTlCZxIQUFUJlS9avUo6YkLRfXTj81Wa2cFeyMzKQOKqHEEAQ4kCvoY9MqyKKemME7i9kkh/P0HZo06Fa2N+wrqwrWS+PuNp0zi01NxB5RAvXh4ISXvYEb4S4K+Ux4EjF7LJBzwPVwgh6SzJ2fU2E5vkkL6w2eLusuKRcem06rxJAWWqBFHSQhDYj1f8CYI1SKOPmeMmRP6RooC1xq043s0rkBSTD6BlBdoMjl2rqjLomyq1h3+8rs0CwMi6o87CsWUVkH8VVJrreJjO0AJidDxu9vF/+Z7BDleSf6RwyiLmgYTyqKjhnvnSWmW5jyANTsKasvBgu6K6k+aKwxYokYckA014yOkHDOCPDDZgP+vhGQHIPH4UWkhKak4o8S4DCaITKmp49KapPMlOBvT0deYOiko0lyrNuX1+VUEZ80mKbBEjQkgH8oGWMPDSh03IGRLNqVTTigwz+8VnxKVZTMKdfsFEuXz/WrRPZ3/P1+T19G9k0GIAixRYwLHnN+XKB9ARLaWYPIdOG4AZWLOPuVzSN05PKUWls09SuomKeaeihPJfLqgOKu/52Zj86T1YIkaI0AohuucadAuUVX8Vrefqd0AITJuQOcwIae4C/PF3DPb7wapLF7v0rWi+tVXYu7LtftGVZz8whI1hqBcillHMVFU0ktu8D382CGDTOpqqCirm9CQFHPPAWrvfW7KokwCRMXcV8ISNYagGkX7otP72THUTJy63QBMPF8b1NaXpDq6FyWl6//L3QU9PqK7oCJk7ithiRpTEM1TJSIjAKgs9afRhjNQaXp+b01On6F6DXMfQSV1YIkac5A6crIBrRLxj5Zgya2elYDgmHvGRv57bU7tOi7mPkLRfTVYosYcmP/K4IfgiYabSjfAAc+BpDRVE93TCYVPGlVzXwlL1ISAdNL120ZZSUehrG5QcWJEhaZnyqKY+6grqQPbPZUgsMVvwpiUPm6H1kB9NlQFX5m7Z2J088GCunC1OV1QjwtL1ARi7uT0o1p+5XwYM/e7jhXUrXvRKIv2B5aoCQSDjJRNUVPSVA5Iazn1/0Y2PQcBS1SLWKBGIsPCIjqwRLWIBSxRLWIBS1SLWMAS1SIWsES1iAUsUS1iAUtUi1jAEtUiFrBEtYgFLFEtYgFLVItYwBLVIgZQ6v8AkJQg+HP8YVMAAAAASUVORK5CYII=;clipPath=inset(0.32% 0% 0% 0.59% round 9%);" vertex="1" parent="1">
          <mxGeometry x="384" y="330" width="47" height="42.97" as="geometry" />
        </mxCell>
        <mxCell id="zbzZgw3rJqMyJxL2BpiM-11" value="" style="shape=image;verticalLabelPosition=bottom;labelBackgroundColor=default;verticalAlign=top;aspect=fixed;imageAspect=0;image=data:image/png,iVBORw0KGgoAAAANSUhEUgAAAKoAAACbCAYAAADyUACKAAAAAXNSR0IArs4c6QAAAARnQU1BAACxjwv8YQUAAAAJcEhZcwAADsMAAA7DAcdvqGQAAB8ISURBVHhe7Z1HcBxXesffBAQGkSBBEiIpBjGDUWKSSIlKXEkbqlb2yfZhfbDLh/XVZ1e5fPLBrnKVD7K37NryWrsOu94giVSitJTEnMSccybBnIlJ/n7vTVPjRs9Mg+ye6W68f9UUCGA4AHr+/f/y91LTp88oKQuLiCNd/mhhEWlYolrEApaoFrGAJapFLGCJahELWKJaxAKWqBaxgCWqRSxgiWoRC1iiWsQCA6aE2t6aUoNay59UIF9UKpfnUVIF+bdFNJF4orZmlRrxVEqNH5VWT4/oa0AeCkHv3C+pkxeL6uqtksoXyt+wiBQST9RRw1Pq1flZ9dpzWfX89Ez5q9/i/sOSJui/f9KrNu4vqJt3S6pk23Qih0xnZ+fflP+dODz7dFq90J1Vby7OqjnPZtTTI1NqSHvfx7DBKdUmrkFGBPfSdXEBRFWtGxAtJJKoLWLuO4ak1Iuzs+qN57PyMaOV1QuQE5KO6RAfti2liXq/V6kHvSVVtMoaGSSSqF0dabVCzP3bS7Jq6ayMGjIopdLePH2Elqwoq5B76ri0unGnpC5eK6leCbKsGxANJI6ok8XcL5mZUW+JuZ89yShpPZICntPWklLDhxoXIJVKad+VjIB1A5qPxBA1K3HSYPE3X5qbVSsXZtWKeVkd7fcHadwAIWvXiLTqEMKeuVxS9x5KwCVugLLK2lQkhqjjRom5F3KipAsluh8qpBVRfCxkMibImjAmpe4LUS9eFWWVAMv6rM1D7ImKCk4ck1aLZ2S0TzpnckYHRo9LUuAo60hRZP5dLKXUjbtK9eZsUaBZiDVRIdEgidhfFiX9ziIT4T81uDZDCY54oI48sxqhNVnltbtGprUrQEGAHOuD3vITLBqKWBN1giipY+7nTzXRfS2aFkUNSfBfulES/7OozTvKWQsZibLa21I6B0t+9by4AVSvrBvQWMSSqARO+KSYe5R0/hQx9yNqkxSSUSo9fK6oDp0uquMXipqkPMifVgPKSp9A5zDciZROWd2+X86zWjegYYglUYnuXynnSVeKuR8qSloPmOwLooYfb82rbYcK6uSlorgAhqTjOoWNNUDqCrJ2iapO7BI3QEhO6sq6AY1D7IhKnpQUFCQlT1rPJyX4uf+gpPacKKp1e/PqhPiad+RzuqZwA3pzxk/F162lrCAtT4SwpL1QWtwAXt8qa/iIDVEpi1JxIplPnpQGE6L7WsDc3xZzf0IUcMeRgtp1TEgqn0MuAqq7D0RpJZKHrKg0RMUVqBZgUQhol++Plp+bFZnltcizWjcgfMSGqMOHiLlfYAInyqM6cKrNU02g02LiPxJzf+iMIak7CKKuf+k6LDNq+bRE+bUqWfzMViHrKPFZKbee6ymqyxKcWTcgXMSCqHRB0WACSbsnZnTVqBZJUcwHYtZ3Hy+qLQcL6tj5Mkk9VA9l1c8XUqOsGQnUIOLgGm4APzubkeeICvNAaXEDeH1eyyJ4RJqoND2TdF/abXKkNJhU64JyAFFu3zNKCkl3Hito81+PQLgB94Tc1PZJWxGg0ahSzw3A/cBduFIOrii32tRV8Ig0UTuFlK/MM/2kL87JaALVMsuAwAmfFHOPkkJSv/4jqSfMOCoLSUcPT+tUWDVAYp6Hws94Jq3/7+XrRpktV4NFZImKuV86S8x9Obonj1mLpAROmG+i+x2HCzpf6kdJK4ESoqi9eUO2lpb6bgC/U4s8Z/jglDp1qaQuClFpE7SqGixqJxCbAN30LAr13DQT3b/QnVFjO2vLKIqJD3q2p6S2H86rHUfNSMnjzj/Ri7r3ZEHnW0+JC3FPVLqWKreI6pImww3w21Zo0T9EjqiYW/xRAidSUUTitYCZJh+Kmf/dhpw6fLaoP+frTwL83F3i324VP3ffSXlNUWuL5iFSRJ3cxYxTRr25yJh7EusELdWAYt4VtYNI24+Y6B4lDSLy5rV5retixm8JaW0031xEgqgELARKJPG/I+ae8mg9c49iYpIpi246kBeTX9DmP6hxZ8x3m/io7dpPJctq0UxEgqhjO9Pa1FMWhazkMmuBQAWSksT/cFNON5gQSAUJfM4FUzNq8ayM7nGtV161CBdNJSpm3Wl6hqgQol4wgmLeEVO8/1RR7ZSgCbISZQelpIAMw7TxabVQfq/p4zM6l1srTcXP5sa5frukbtqIPxQ0jajkIAmUFgkZyJMS4XeNqK9aD0U5yVV+tVvMvfilQZp7fjo3iTMgyA3k93fquVFSpy8X1YVrRd95Wwv/aBpRUVLH3M97to6tF/Dm3xVS7j1RVB9tyakzPcGb+w5RTm6cJWLuZ03M6GR+LeAnkx34RpT93fd79Udyt0+acbDoi4YTlTwpe6AYwKPpGZLWUy3dBSWEwMzvOl5Q+8TsY2aDVFIyDFPHptUiUdIZYu5xQeplHFDzPfL7fL2noL4UhT8rN4+tSoWDhhOVoIQUFEr6+nPZurV78DBnovs1O/LaLyUlFWS6CDeETigCpyUzs7qNrx74nXBBfrc+r1ZtyqtrcuM8FJJahIOGEpWyKB35mHzypAQo1Zo+AGTE3NMF9cXOnDp3pagbR4I0rQROqPtilPSZjG6EqfU74YKg7qTDfvpJr1Z4u1gtfDSEqLz5THI6ZVE+MixXC5AUQpDEp0IEWYOM7gma6HHl5oGkMyfUH7N25q4OiOuxTsz956LwmHvU1SJcNISobMt7eZ4x93xkgVk9ECgxKcqM054TBZ3+CdLco+YzJxhzv1jMPSmoeqCMCjF/+WVOfbY9r28cFlNYhI/QiYpi0ZFPWZSmZzqRmDeqBlQLUu4RBd2wr6Cje1QsyNwk5n7elMyjPGl7q8npVgM3CL8D5h6S7pYb58pNc+NYk98YhEZUzD2EwMy/IeaevGS9sqg290KIkxdL6psjBZ3uIYEemLmXv5aGaMfc4yfXzTiUSXrkbFF9vbugFd6a+8YjNKKOHJbWW54x98skymdkox4YH6HpmbLogTNi7uXzIJWUAsPsScbcPy83EC5JPdCJdVz85J9/nlNrd+WfqH3Q4vERClGp7CybbbqgMPfsHa1pWh1zf6KotpZn7m8JIYKs8JAGmz3RlEWnjctoZa1VFq0096s253VAx5JfSGrNfeMRClExqajpstn1u6BQTPKi56+U1LZDeT3WTLQfpLkndzupyyTzKTDUyzg4VbBTF4tq7U7ypCY1llRzzw3LjUsWhMKH80BgKNBEoRE8lMMm/vKdVvXO8ha9G6qWaqFMKOmB04YQ+H70f6JmQYEuqO6yks6dXF9JATcKv9P/rM3pytNZIWmSlXTsSJM6HC1WZ8ig8hcFVP82HyzowgZi0kyEMjP1+vNZ3SJHhF8tL8kbD0mdLijKomwwCZKkugtqnFFSzD3mv1bGgd+JFBQzV2t3FdS6vcbcM/SXRKCUrCji+uCm0b02fXxaB5s82O/1lNzYpOCu3xZ3SLjarJs1FNPvBwzR3dB3rJlxwh8MytxzczDHxMXmTSBwqmfueQMInCjVkiP9YGNOXbyWXHNPzDBIAlyacN4uNwdxKAfK6jyWz8mqP1nZohvZWUJXa4tM2GgaUTVC+qPxtZ6jLCrRPf4y8/f1wI2Cmf/Jh71qmygq5j/JfaXjR6c1QSlnY/28CEgDO9dyxbyM+tM3W7Ta1prIDRNNIyoXgZTVlLFpNUl8WcY+amUG/GKkY+7LyXzMv5+JAdoHvxRzv2G/+KQ9xtwn0SfFPyd2oNcWcz9XgkuacLyIimuAik6W92j5XHOoXPektA5Og3iv+oOmEdXZgsIi3hfE5JDTrBfk+MEUkvnlLig/Tc+AKP9TMffvi7nvuZHsZD5btJ1TY+i7qLdoDrDpkP7hP3otq2faKIFn6/TqBo1Qgin2jUJCFo7VJJ/8rWx0Rk3HdKT1ZjxM8OMEVPw8TueDpDOfMdG9X38KRf14S14Cu0JgfnIUQX7b2dBN4MQ18guuJZaJIUz8ffocbt8zsUYjEApRW+Vu44+CPJgO7mIv8FXt1IspISJHyejpZCYKs+vH9HIBRww1m/XozKdVr14XlBsQdfXmnDp4JsCUQ4RALpQDi7k+emUnqSgPJeUmpRno5l1zXSsnHPicxXB60Ya81r3yrq7rd8z7FLabFApRWRjGRmZA4pgWv1qArBC6c3halzlpRMFH9KNuKLZWUjFnS8XcD5UL2R+SAoj66ba8OnoumUTVKzslckdJ2eVVbWUnxOu5WVJH5Dqwyoj/5wYWEFWdOMa4arQ8oqphW6JQiMobD9HoegfOIrFaM0j6DpY7tq2VC5vWylpvdxSBEiVaSErgRCXlcaooSSbqsxIIUSGEpN2TvFd2QjJSc+SPtxwq6GIH5OO8LXeBhP/Lg10HWEKUmfcJFQ6TrKEQFUBUWuF09Cyfs/iW00VQzmpw3ABMN5OdrILkQDJ3opmkPYloontIyiCeNvfl7/cXSSSq073G6dqsSOI6UXlyAyGgQ43jiTYdMFu5maRl9gugqsQQ1dwAgqxbQtJbQlY+ci3DcANCI6oDuo1YxwiL2HhHgFULKCI+bsdTaX03X7gmfquQtvJu5cIRDHDxKY3yvMdRUgdJJCokxdwzir6syspOCEV1kH1dq8RHP33ZlEr5Or0ON8T/5H3j/5L2c0MfbSSuGsHVkDalrx8ED6OZPHSiQjDMOPubuNEIrFBDfCAvOKaFO5h1Oigsf7jTTcXOVAImSDp1nNlP9SQkBUkjKuYeJYWkuEaQzH2NeF8gI4uOqQwePcfx79+6WnzM5Us6aOJ94/0YLGR0KyvWjcZzCMt7i7uHnxs0QicqwN8xe+4NWYnwuUsr/2g3HDeAXCjuA5UiLgwpFsqiBFBepqwSXGzI7ZC/GpJCVKJ7TDU+KeYeJfVSQq4Jlo6glVFv+i1QUq5DJSAzTUKOG4B/CyHdKUdiCypWXWItD52B9MFfx4YQ1cEduTu1GyAg8mTnVC1oZS37QjwX9aQkSjWFQ3lrNZiAe6IYHCaBetdS3aQQlRSUE91jcbzMPX+r0wz0yTZj7vm8ll+J0tKUghsAUXEr3DAKrNRm8XNxJYJGnbc6WHBBaOVbJ3cxK3l2Hy9ol6AaICr5WMw9eVJq0lPkY70qFo3YmDVW/ny5K6+LCEkHloamEt2sXo7u3WVOFPKWKKQ290fy6uSlkq+t3JxNgAKT5GcKwwu8VwhHLcv1JAilH9UPGAmhdszdj69JgBQEUAwKBuevFNV//p4OqJL66x+1qWdGV78neQP/9mcP1BffiCTEEJDj1QXZRw8ifje4LpAUc//RFnO+gd8eU0QB4lN6ZdsiVs0NVPfarZL6h18+VB9uDP46No2oROpEixCV06FpkggC+LL7TxbVr742Tc+4C3/3F+26w78aMHtH5Y3jQscVVAHxR72CSxSTQzhQ0o37CnqZW3+WE9OzOkeEhf6JcaNMbtUNLBgZmn/6zUN9IwSNphEV4PzPkbtz+VzTJMFOKq9qiB+gipynz4wTrsUn4nNSHWN2/+9/3K63WQ9EaHMvZpu9XZh7FnkQ1PohKVZu1PC0mj/FTADgXuD3ukHpm4M2uAkY2+GGCBpNffdwvvmj1mzPq0+35vVckt+7vBIoIhefbnzGmemCunjdjjRzXVBSruvvd+bULiEp5t7PNUaVCWIh6aIZponFi6S4FBQM9p4oqF980atPowkDkZAZuupRQCJv5vlRAb/gzSBYYkr0nz/oNcOB8nmtKHYgwAkoEQImFjhZsD83Lj2r+KRLZmHpvK0cr3ftZkl9uCmvl8WxIzYscYgEUSEWs/NsRuEE6MNnzeKxeoDQKATZg692s/6xYvXjACYq14UInRQUS9ww+/jukLceMPdjJXYg2CXLQokUZa0E15ZrfPZySa/bZDEHiqrVuh8i0x9ExnGDV7vl7kdVeUC4euDuZULy/Q15fVfjk9rVj3JdxA3i+n28VQLKE/7NPaCxB3+UwGm2mHuqTm5AVIiP9cKKodpYtTDFIVIRBv4O6SS25H0mZGV2Cd/TDZ7HhSJw+rePek0+VhR4oJt7lBTCcF3Y6oLPDmn9gmCJ7Avm/ulO7yIJr8fQI2d6Ed1j7jlKPuxL39DKlB9QLkUZ+UiwRRKZLiz8WOfBsgrSSRv2GgWmtuyU+dygF5ZjKskDJhmYXIIaXCi2zTB+7ldJMfekthZMyWhzP228GXWvBCJAzwXzZLQDQlLmzPgZjRCIpqanaoGkNfk6usndVSguDFWum6Kq+GJ8Xu1izZeLPxDSUyjpQSHn6i2myNGfgNIsoGACIKtHzLNy7d23NTcC1/qTrXldSDl/VUgqPwPr1ghElqiAEiC1ZXdZjjcAM5eXq1TPefdDVJo0MGU0DEcNg8RHJKChv4GcsBtcB8wx5WIyHxQ7qBLx9XrAtBPdEzhpcy9BlNfiOF4fN4LKHU0s+KZ+c7FBIdJEDQJ+iMqb+lfv3g+lovKkcEqX77zUoosibjzsNf76b9fndLse//ajpJh7onlee4EET5RF3T6pIwgEZgS6/7U2pzMIzeidSLY9HAioIFdfLawOKk5OnpRJCa/ACZISpJL2+9lnOT1LxVxVM2CJGnGgagSW1Uw57tHgdjPxwBbtYeLX1+os43vU7p2KEzlT3Cs3MPfnREnp/CdHfeJi2SdtkndkiRpx5IUYNJDcEGXzStpDPDbOzJ+aVi/MymgS4md69erSW4ErQYMJudJZE72T+fwMfFJ8XipO+KSY+0b6pG5YokYc9H+yln3TPgKZvCasF1BF8qA/eDGrCTikrW8elOjeMfc81wukoIjuCZzwSU9dkuCsSea+EpaoEQcqhppRDqUQsu1QQTeZuIELgJIyL/XctKwOIulEQ3FJ9U0YnRb3IK37Scd1mlEgNzD3nERDCoqVmzpw6kdVK0xYosYE9JCys/Wz7TldV6fr3u0vOit3FogbwDFJNJNAXsqic59lmbE5iM7dT4q557UYzCO6/8UXOV3d4gZplk/qhiVqjIAJZiaJTrMvvsnpip0XcAOYaPju0hb15uIW9dLcrFranRVV7auigAog26VJz/16XU7P9XuVrpsJS9QYgcjfBDlFfS4sxxtRIXJDuwGiotOfoQPKdEFBXK/OfBp7UGt80nV7CmrfSZMnjYK5r4QlagyBH0nTzqfbzLiNV4IfsuIGUNWaIYSlwuWGae5ROrr/l1WmlxeSer1es2GJGlMQnUMs0xYp5tpDWWsBJe25XlTvb8jpYbyr4kY8zEeQoWVYosYUBDnnrpieUHxWxkwuCfHqNYnoAkK56Xm9RPZs2aZNMsym5yBgiRpz0PbIvBmqCmnzddoVnF5eWgF/IuaeA5FJQUUdlqgxB8SjxLrrqARY2/N6iM8rzwp007O4CJh75qguSmBGp1UUfVI3LFETAhZLUAyAgORCISvd96SwnMfxC0W9/9TJGNDTG2VzX4nIdfgHDT8d/qgSQUncd09RBDjTIyqpz0JQutxKEzUTqDy+2lNQH2zImwYTIWkMhPQRrKImCORZSS/tOynKKqr52/V59Zuvc48e6/fmdc4UktYLuqIGS9QEAvVkP8LXu/N6yM95HDxtSBq1ZL4fWKJaxAKWqBa6y4qZrGWzM+q1BdlHD477YekyB0s0G5aoAxiElzSwUGaFmD94sUX94YpvH9+VIJSDPEY+ldYl2erhaPiwRB3AoC2Qw9G+tzSrfrg8q16dLypKY3X5AXn/7HucLm16W3l+s2CJOkDBHtV5Yu5fWSAmf05Wj7B0jTQnKDoPzuunAZt16yxdZkKgWW6AJeoAA+abrn/Gx99a3KJWPs9KSe8pVGdqgEMr/viNFj3iwhFMYa0/rwVL1AEGc7q0WUm/cqE5SK4eHp0u/boQm9Olh3KiTfmbDYIl6gAC5r5bVBGf84XZZsCPCdZ6QIHxUZlcXSFuwMtzy25AA8lqiTqAwF6pt5a06JIyI9P9geMGcPLKn3+/Ra8B4gimRsESdQCAEZQXRUE5ye9VUVPOifLyM+kV4BwwxlGqzWPhBozrTKs/eNmkrziCvhHKaomacOBPTh+f1gRd1p1V0+Tf7pWS1P0Z8GPH1N7jBb1wTZ8Sc7tvdxVuAPNYHLjGUUFLuzP6fNuwfVZL1IQDkmLqeczw2AYIaLammXrzgbxe4UOPwKb9ebX/ZEEv6XWDDAHn2S6cnlE//mGrHh5EtcPMBliiJhSonj4CXaJ0gp9Rw/rumQWYe45AZ+kETSucfcqoNF9j4/fOowXdKugGpIScLLagYPC23Ai4FGHlWS1REwiCnqljORkxo5bPyeq9qoPayt8sQ08G5JS6cKWo9p8qqI2ipjRbOwd14KOas6kK6th5c/iHe1EbxGd3FeaffCzFAcqtYcASNYHgLFTypDymCGG9gE/Kjqn1+/JqgzxYL+k+Z5+WwD3Hzap1ZwDQC4xl8zN/9Gar57LhIGCJmiAQOBHkOEra1ZHuc8YsaumYe92jKqrJmQmopXt2iklX9qHyXFb8sErIyw0gdTW0XekVQkPkYxiwRE0IUDXypCsXtqgV8zhhum9dXo9Ki5Jevl7UUwCc8I25r3fkEW4A/iur4/m/XmDNJT8P0oYBS9SEgCW+OrpfnKm6Ywr/88qNkj4afutBsxWl2oLgqMHu8Bdg4qJ62IRfzBLfcOYEcyCFO7rXSiokxYTvFSUlQOKsKL+Hx3FyNd1VtP6xz4qEvxtMtFIs+Mf/fahWbxbZDhiWqAmHY+5Z2UPQhF/KinN34OQFUlAk8llVyUFp1Pq9pnnJINy4bcax/3V1r164FjSs6U84UE2WTny+I6dn+YncWbfuB/i99KyipLgW1Wr7EJ8U1398Zk5NCQOWqAkFKgdJWW2OqeckP8w9aSl3dO8FOq0ot1J9wtyTzG9xuRT4t5CUiVd2WJEZuHLTEvWxwHuCD+rnzUkSINHtuyVdWfpcTLFfnxTNpEQ6SVwlUl2LxOR7+aSAChaHJq8Sn/SDTTnVIyT16/f2F4knKonsdXvyuslioIA86dnLzunS5U19Pv/8b0+Xzqg54psy/OcGNz29ASj1uw06XTrxK30ICIh4SXx3yJvAhfeqeScBWA5MO9tQSM5TUWL/FMGUHxAocVgFSkoDC+uQ3McAOeaeBcKcP8WuK33IckhK6iDxRMUU0b7GRyJYBtYIEpIISIqyQaB1e/O6TY+v+QVlUGcCdcTQtGc3FOcIsDT4vTVkEArqqkcrYBhIPFEBgQXmkNo2/ld7S0oHB0kCfx9KSjKfKtKVclnUD2h+7p6Y0UrKHD/m362kqDU3AR1Vv16X174vgVOjCgaJz6NWgrY03gwUg/xqHOB0KDG+TOLdDW5CFO20RPf4oxCV4+H9mGIUk9emcYVrAkm7RvT9Gbw+x6ofkhvgUzH1qzfntI/q16UIAgOKqKhpWyv+amPGJ4IAQ3U0JtPvSUe9GxDyjpBmtQROOyW4QUkJnPwENtTlCZxIQUFUJlS9avUo6YkLRfXTj81Wa2cFeyMzKQOKqHEEAQ4kCvoY9MqyKKemME7i9kkh/P0HZo06Fa2N+wrqwrWS+PuNp0zi01NxB5RAvXh4ISXvYEb4S4K+Ux4EjF7LJBzwPVwgh6SzJ2fU2E5vkkL6w2eLusuKRcem06rxJAWWqBFHSQhDYj1f8CYI1SKOPmeMmRP6RooC1xq043s0rkBSTD6BlBdoMjl2rqjLomyq1h3+8rs0CwMi6o87CsWUVkH8VVJrreJjO0AJidDxu9vF/+Z7BDleSf6RwyiLmgYTyqKjhnvnSWmW5jyANTsKasvBgu6K6k+aKwxYokYckA014yOkHDOCPDDZgP+vhGQHIPH4UWkhKak4o8S4DCaITKmp49KapPMlOBvT0deYOiko0lyrNuX1+VUEZ80mKbBEjQkgH8oGWMPDSh03IGRLNqVTTigwz+8VnxKVZTMKdfsFEuXz/WrRPZ3/P1+T19G9k0GIAixRYwLHnN+XKB9ARLaWYPIdOG4AZWLOPuVzSN05PKUWls09SuomKeaeihPJfLqgOKu/52Zj86T1YIkaI0AohuucadAuUVX8Vrefqd0AITJuQOcwIae4C/PF3DPb7wapLF7v0rWi+tVXYu7LtftGVZz8whI1hqBcillHMVFU0ktu8D382CGDTOpqqCirm9CQFHPPAWrvfW7KokwCRMXcV8ISNYagGkX7otP72THUTJy63QBMPF8b1NaXpDq6FyWl6//L3QU9PqK7oCJk7ithiRpTEM1TJSIjAKgs9afRhjNQaXp+b01On6F6DXMfQSV1YIkac5A6crIBrRLxj5Zgya2elYDgmHvGRv57bU7tOi7mPkLRfTVYosYcmP/K4IfgiYabSjfAAc+BpDRVE93TCYVPGlVzXwlL1ISAdNL120ZZSUehrG5QcWJEhaZnyqKY+6grqQPbPZUgsMVvwpiUPm6H1kB9NlQFX5m7Z2J088GCunC1OV1QjwtL1ARi7uT0o1p+5XwYM/e7jhXUrXvRKIv2B5aoCQSDjJRNUVPSVA5Iazn1/0Y2PQcBS1SLWKBGIsPCIjqwRLWIBSxRLWIBS1SLWMAS1SIWsES1iAUsUS1iAUtUi1jAEtUiFrBEtYgFLFEtYgFLVItYwBLVIgZQ6v8AkJQg+HP8YVMAAAAASUVORK5CYII=;clipPath=inset(0.32% 0% 0% 0.59% round 9%);" vertex="1" parent="1">
          <mxGeometry x="384" y="450" width="47" height="42.97" as="geometry" />
        </mxCell>
        <mxCell id="zbzZgw3rJqMyJxL2BpiM-12" value="" style="shape=image;verticalLabelPosition=bottom;labelBackgroundColor=default;verticalAlign=top;aspect=fixed;imageAspect=0;image=data:image/png,iVBORw0KGgoAAAANSUhEUgAAALgAAACeCAYAAACBxsDsAAAAAXNSR0IArs4c6QAAAARnQU1BAACxjwv8YQUAAAAJcEhZcwAADsMAAA7DAcdvqGQAAB1fSURBVHhe7Z3pcxvZdcUvNxAgsZAEV3HVLo1mxmOP7Zka50OSD3FVkkpV/iP/L6lUtqpUueIPTsWOM/bYs1iefaTRLor7ToAESXDN/d2HlmiNJKJBUAKa71AQCBAE0d2nzzt3ea8bLl68dCAeHhFFY+newyOS8AT3iDQ8wT0iDU9wj0jDE9wj0vAE94g0PME9Ig1PcI9IwxPcI9LwBPeINDzBPSINT3CPSMMT/ITR0NAgTY0t0tLUqrd46dYqzfpcg355nCx8N+EJI97SLp1t/ZJoSUtMyQ1293dkc2dNFtYfyfbupj3ncTLwBD8BoNCJlpR0tg9Id3JY+lJnlehJex7sKcG3dgoyvzaut4eyqETf3Fm35z2qC0/wKgI70tjQLOl4VnrTY/L6mb+Us91vSW9qTJ9vKr3KYW9/VwrFVbkx+4F89uiXMpd/IBvbOTk42JcD/fKoDjzBqwTUub21Qy73vSvDXddMtdOJHmmPdUhrS9t3/PbBwYFZlbWtRVPw8eVv5NHy1zKh96j77v526ZUex4En+DHQ0NAoLY2tklEidyUHldRjcqnvHRnIXNTnekuvOhoQHQWfWv3WCL5UmJKVjVnJbc7L7t627B/slV7pERae4MdAc2PM7Mjrg38pV/p/Iud7fqCkbzKrEjZDElgTfPj9xc/l1txH8s3U+7JeXJbi7kbpVR5h4QkeEk2NzdIWy0h/+ryc6bgkZ1Ste1IjlilJxbtLr6ockHxta8nUe6UwK+NLX8ikKvvCGoHomuzsFUuv9CgHnuBlorkppn46Y9ajJzkiI9nXZbjzmvRnzqtNiZldOQk8VIKPL30lkyu3ZGF9XK3LjGxur3nbUiY8wcsEAeOFnrfl6sBPZCz7PUsDNmtgiaKfZMGGYJOgM7+5JLfnP5Lbal0gvLct5cET/AWINSck1dpVUuvX1Jack25Vb4LKxpDERnHdbV+aGprtxCgX/B7WZLkwbcWhhbVxmc3dk9n8PQtIfbHo+fAEfwoQLyjUdLT1WQ6bfPZI1xvqvVOhrAh+en9/18i5tVswIu4d7Eq8OWnvxd+xoDTEiUL+HC/+aPkbDUY/tfuVwoxsbK/q3/EZl6fhCf4UyGX3JIflUt+7SurXpS991pXZm+PfKdYcBSvmKPEC1c1r8CgHB1bh7E2NmpenlE9xqFxw0pBx4WSh+pnbXJA785/I11O/MTXf0uc8nsATXEG6LxFLymDHFRnIXDBSU6iBiO2tnaEUFuCP14srlgnhlt9alPWtZVNx0BZLSyqelY5EnwWtWB4yM3yOMDCi723ZyTOxckMD0W9lJnfXHm/v6WihJ9hpx6klOKRtbGySWJP67HiX9Yy8NfxTGc2+Idn2wdKrygdk21N7sKt2JLe1YH0m+OS8fv8sojWq1aH5qkv/Vp96e/4mxIfkFriGzMpQLILk9xc+lduzH9lnKGznVOk3zLZQOT2NOLUEp101qQHk+Z635VzP92VU7UhSid7a3P64KSoMUO01VWmqkQSDRi5UdG/HbMV3Qd9Ko/6tmNqfNmlTGxRYF5Sd5qwwgMBFHSGwLfS0QPaHi1/KvYXr1vOC0p9GnCqC46GD9tWsKjYB5FDnVRlIn9fHQ6VXlQ+COkiFHXHFmQX1wRNGKBS1XDCaNDe1WN8KgW1Hol8yep+J99jJFibj4nAgi+uT1qk4vXpHpnO3zbbw+VD0MJ+t3nEqCM5wD0nIXmTbz8jFvh/Lhd4fWeqPCQgoafk40CGfm+sGXNmYMwLRO1JQoh8XkD2hVoUAlHx7Mt6pn7vNTk5aAHhFWFD2J3+OolMoYnQhu/PskSVaOBUEx2Oj1Oe6vy+DnVcssEtq8EgqEPKHCSIpvKwrsQnmVpXUa0UNHtUWkAqsVj83J2OsSW2LEh3bgj8nRmhVomOtwoIRJq/qvVyYscrog6XPLT44DcWiyBKc0npCfSyFGTIjqPVQ11VTRqaQhSE1AeTOflG9bd6syOrmnMznHxpxTpokFJo4ISE635PVoWWA7QuTtiTQ5bNyYtLbMrN629KKqzoC0dAV1R6XCBJcqavcJYDsS4/JO2P/aHYk2dphah0eQd/2kgWQM6p82JFXga42DULTZ3U0umIjkJsCF96yQHZGIQLQb2Z+Kw8WPtORaElPZH4aLTpEiuB4185En4x0XZOBjkuWy84mB1X5shbEhSEDHpumphVVa3wr+Ww8N1XE7d1Xk5GgdSDe3G7b2aWxRLdaFzoYCZzD5NDdZAus1rIpOEpOfwuEJxCNknWpe4I7vxqXTlW37tSI9KvCjWbfVHKfs4xEWDDBgIIMFUjzrRvT1rbK41oqnNgkCyU4GaF0vMfiDHL6YTMu2K/NnYKOTjc1EP1YptW6LBYmZW1z0Uauei/91z3BUS+CsB+N/YMFkT2pUfOmZEYqsSRUHd3smlum2njTA9k31aslWGaolPYkzqAvnUA0bP4cuJ4ZGrq25L4GoLdnP5Yb07+1GINcfj2jLgmOSlHaHlQbQnkdT4o3JW9cyQGmCLJRzNncSPw1PSOFbQLITVO4WgWBsqU/dZvpocGKoewdTL7QGARLEwZsK9tOdohi1Uz+rsuj68ler5Mt6obgKBYTC/CfTBNDrc73/FDGsm9If+ZC6VXlA7uBD8VvEnDl1GszPKPgdXkg9YuiEH3rZIq6LOuSVfLTt94SKuMSgIyLdS1qEMpkC7JHpETraZ5o3RCcg4cyMe/xghKbvDYqjkpVkhsm5YcFQaXw2ARcEJ6hul4LIJCc/hrSoKRIsW60+aZLgWhY4MHpreGEp2MRjw7hiU2CxrFaR80TnGIHvvpM5pLls+nVoKzOQQs76YBCDL0aZA3IFrBkA+k/nsN/RgmQvM162vstACcYxb60NMdtwkVYsM8o98/nx2VSA1JilBW1MbXe49KUzWZ/Vvq+ZkCAyLAKiQc6LsrlvnfkjcG/kkv971qmhAqkla7LILcLoHatf5pMyFJh0lRoLn/f0n9YFFKCUQN+mgCRbka2cXe/qIKgQXcpWA5m/rvy/9GwqiqZKgtk2+33nE2hbYE4pTYXLKpJBaejD5/9w7G/t24/t7ZfMAMmXGYEr03ASGaEFlZ8pM2s0edPy+wX1Jw8ubN5fdLdPmQ971g8nisXQbaF/bexk9NglMkWH8s30+9bGwCNZ7WGmlNwlLknNSxXBt5T5X5PzqiCt7dm7CCVqzYQF4+Ix2ZYnVW1dt10c+a9+Xm9+uxKgJpjz1B0/HRxr2D7gceWJdL9GqRWXwQU37X4MqWPaXcZfdxs+5ORgsnRtbZfa4rgEJhK3agGRj8c/TtrZ03EUvzEveAIsKMtM7KzoUrtAsjJlZs2OZecLj877WAf0C9OAQsRwFhAWhecupimHCHhNfTDYCUhPKMj3ZS11opbUwRHpQcy520uJF1/NsNFd2K5gMQzSubx5a8eB0G2amsEPXY1ANkLxZwF29gLS8U2s3Z5+fuckYFRAXKTQqS7spZQSffRiQEFYfoWmZIwliQARCagYmYN+Wz6ntn5p3W61lFg3zAbnzoAloV9t6ceOww4KZiQTS2CALTWUFsEVx9I8ONm14QnJflwqnpE+a4vwxU4GHY9/hyIB/sGtWafMW0uWFcxLEg7PjlutYWaIngAFBclYeZMGHCgWOH1Sv978ubQX8trA39hIwLVz7DZlygDQrbHOmWw47Jc1X3Efjrb/T1V4CEThjBwAaxLF9YiapPgfFluNdxOQ42I7KngsTjmYOayDNGrojeakcjjchKcRrK7/h1y2f2mtpCbPh4KaMFEZ1KxvC4cLHlYszYwskeayD6d6Jax7jdteeO3hv/GVIoDXEklr97B/qCHnFbiQLWHu65amy1WLqqoqSwKSyic6/mBEZOUH94ZfQhSV5Uor/2uflHWZ04jEwQ6213hiPfjZ6ZB+veiBPx1MHl5uOs1t0qX9cj3m5KzrysdySiSMTvfAvkigbzLpy+uT9icz1pCbRJcScgOY+izogzf283Mi74SspcfDAUBFQTHwjCdjcjfqnt6j7oxNNu7P/4b9QcIy7ZAYLoK8dTMasKukeFIxTsfT1wOG0yy/8lSWaFIyU36ldQgVU1XqhdP8KPwRMF77LGVhfe2LL/KNDFXqDl4XJSoBBxYfrddSeAakdzC9Sg6DVccwPrMm7vtsv6dzAU5m/2eDHdescnKZJWadJ/xmkphBbRd1oBZtnrDJhVhPT6HxcAT/Ag8TXAHp6hOQVgabVumVm/btWzY6YEyh4GZFlW7oLUUNWe1V9YLxJNCCGKmWu9XoQJJv3dHW68FilxxAnKzeCjbQuoP0lem1jvWXzKTu2PLTCAyjKiuj4epbN+dCOIJfgSeTXAHSE7XH6Rmhz9Y/Nx2NAeDAwgZsReBry7noPI6ThD+LqRG/eyqaEoMe5/SSaD/61/nwL9668J2Ya34jMysR6F7kqO2drnlojWQxIZRAQ5D7EBEKN9TKKPTcip32zovHyhpsTWMcmYZbW98F57gR+BFBD8MOgPpM2FqFcuTzekNZeF42jLHqloQtxKg6PS/kHHIKnncchNNemK55v/nHdyXBYjWrjEEvnos+6ZN18NfM2XNrdJVmRWB3OxDWhyY3PDl1K9tfUOWgKPKyeoE2LkXwRP8CJRL8Pn1cVnSnYmaBx4dT0grLAeE4Ad1Z7YPKnZUl9xh8HqGdT4LhOE9IDxqya219J7B6PEywOehe6+r7YxdE8hsSGrEWl9dRqTViM2IE4bcbAMdgPTIsxgQC+pj/Vyv/KwFk+xjtpPGN+oIL4In+BEol+AsKM+kWMDOJzCkyYcDxcGB7LvqIRmmA1sBKcu1LgGwJ1gBfDmrS2FhnEoqwS0Q1ffSf07Vq6fsfE53krXa32clKxbk5PqbFGggG5+JnztSlw8sBvuLLAiL/dCQRscl8y5Rbmbu2NqFdvI+2Sbsjyf4MVEJwZ8Gh6S4t6H2ZcYOHPMHyY5ABlo7w3TKHYaOA3bCtLWmrerHmiRURe0EI/CqYuYFclNKZ42XoU6Xw3aVWLessgWOnFkVgFlNjIAsyHlr9kO5Pf+xrVPIFD6Wp3tenOEJXgVUg+DAFSI2Sx1y7j5f5CoLK7Kxk1fCu+wLpC8XgdXhBGGhIWvoUrviVppKGfG46jEIArYw4PPwHh1cpjA1aoTqUaVmubZ0IivxmL5/YEVCkttN/liwjMjE8g0LHFkRlxHPtcrSRUgf9/NHIU/wKqBaBD8Mcrd4c1SKJn8yBPjKJlVz/DRkNPtSgU8nqwAhyWQQjEL+gNyk1I6CWZGGZhtZsCIoNDZkNHtN78/rfui2zxiW1HwG5qESGDN6WUZEg8ebs38wn833THpgP5QLT/Aq4CQIfhjYiE1VcA4477GgB4SDDDHdzKHwwNK70SBha3mTbQgal/CxvD/5+6fBCcUIwEL3TMsb6bpmeWyyN/xuJf3wAI/N3+TKyI+Wv5Zv5z+Su/PXLXjkREetw44uwBO8CjhpggcBFlkXAimyLVZ23l131dI9V3Y2xVQClkcwp/6k7yzjouTEvqDIqC/3bFeQusTHc6kU8tXd7cPSmx61jAgdkO4SKm322jDkhrAUZog32Desghss7cDiPRRsbMqeWrNKyA08wauAkyb4YUB2yL1cmJK5tQc2MRkCOGV1a4c4ovPqcEoK2YO23aBUTpCKzcCzY0MopY9kX3M57JjaG932MDbJATvklnfmBMVbcyWHL6f+11bpClJ91VgWwxO8CniZBD8MR5JtyzCwPiGX42PSMmrfquSE6NwqAb+HslM6h/CoNcuqWbWxQhsC+Gz4aApe9xb+JDdmfqef+4abTMzs9gqV+nnwBK8CXhnB9YvMCypIPt2twVcw9bMGrN0tU8HAtoQh++FlFqg2csOGWKovJLkDUmM5WAbDrRqgdmRF7UjulgXQ5rH1q9qoV4KHHRNPBVB0Ch7fzv5B3r/9z/LHh/+lQ/8nqo4sbvPqlhNmhJnO3ZFPJ34pH9z7N/ngzr+acmOxjuOvowxP8OcAsgQZCRaEv7vwR/nkwc/lk4c/ly8mf2UZCrs09wkDUhMsfjbx33L94S/ky8lfWz6bKyfjvV2TmSf28+AJXgawBSxsc3/xM7k197Eq+4eWeoPkBKf5zUUrLB0Xlr/Wk4pLp9BIRtsBhRk8NqPJnYXr1gBFtuS0Xtg1LDzBQ2JTyT6Xvyc3Zz+Qj1XRf3/331Xdrysh50qvqBwHSm4mdnDS3Jj9vdqQ/5AP7/+nfDX1GzvBiBE8wsETPCRc8WbHvDizW1gYnialzyf/R66P/8LUlmCL8jj24SjwfgSGLC93c+YPZoG+nv6NPNDRgkDycCndW5Hw8AQ/BiAdfS545FtzH8rnE7+yJqaHS1+aT2ZVW0fMP89q8BgrwgnASYJiM4GDUeEL9dj3Fj61nndXTj89l90+CXiCVwkuj75i5P5s4pfyf7f+yb6nYkrrrms/daDqiCpD4Hvzf5Lf3fkXVe33XbFJ3+fwaz2OB0/wKgFVfpxLtylfs5bpoETOMs4EjfTAcOMxV5YIfkZKEiUnUHU2pPp57NMKT/ATBG25TL7IaQAKsSlOcSMgheAoOL3rz7IxHtWBJ7hHpOEJ7hFpeIJ7RBqe4B6Rhie4R6ThCe4RaXiCe0QanuAekYYnuEek4QnuEWl4gntEGp7gHpGGJ7hHpOEJ7hFpeIJ7RBqe4B6Rhie4R6ThCe4RaXiCe0QanuAekYYnuEek4QnuEWl4gntEGp7gHpGGJ7hHpOEJ7hFpeIJ7RBqe4B6Rhie4R6ThCe4RaXiCe0QanuAekUZdEpwrBXN991hTvOJLbHscDXfd/oR0JPp0n7eXnq0v1CXBk0purvuebO2U1hYui80139mUyq777vHnYF9yqfFYU0JSrV3Snz6vgpIp/bS+UJcE72zvl7Pdb8nFvh/L+e63Zbjzqh2I5qaW0is8KgXEhswD6YtySffv5f73ZLDzsl1jvx5RUwTnKjU7e0W77vqLwHCZSfSoig9JX3pMBjIXZLDjsilNZ9uAxFvavXUpEw361aJWr11HQ0bF/vQ5OdNxSQY6Lkpf6qw+d8ZGypam1tJvPAsHjy8rXmuoLYIf7Nt1J8u5oi/DKDs9qcrdmxpTtXlHLve9KyNd1yQd77GfcfC8bXkRGqSxsUnaWjPSkxyRseybckUV+1Lvj+WMigaqXY5QcAGt7d0NFafau7x4Uzab/Vnp+1cOCNnQoIrSHDc1CQsOBgFoWtUdG5OOd9uQuy9cdPXlX1D1TOaifpbu0qNnY3lj2q5o/DLBfkooqbuTQzby8Tm7k8OSjHfZ/mOfcRzKxc5+0a7fz3VBuRxiLaGmCH5gQ922qW9HW58dCHZ2uUCNYnpytMXSdkvEUtLcGNP34xZ//F5cZdgZopNFLRE8GPHYLwgAAoJq96ZGpCPRa8/zc/ZhGHJzbc/c1oJd6Xk+/1D2DmrLptQUwSEdw5wOnEZICIqfrgRNkL2pTb16t3S1nTG/3qxER8mLaoFextWEa4ngbDteuj9zXkY7r2ncclFFpNf2EaSuFKubczKxclOmV2/ZVZ1rDTVGcAeClY3tVSM7wUtzA0OmS12VD2d3+D0bCZpadPhNWDCFgsU1UG3Un+kLbORwVxiuLl4lwdnmeEtSujRI7EuftUCcex63qz0Jaghh1DrA1k7BiD2+/LXakq9kauVbWSsuvRIbeBRqkuB23ffiimzvbdoNwpNZYfjDXihlQ6kOB5GDib9si2UsMOUAc8K0qIVpbmwpvZ9R3e6rgZdNcLYTpWbUQ62JQ3o0AO9NjUp3algy8V5JKOnZ3rDERmi4vj4ee6kwITO5u0rwr2Q2f88uU16LGRTQcPHipZq9hjQEpIjDAcmoT+xKDlrqCiWiulYpiPr39WThRCrubNjQmt9alPm1h3ad+WplA94e+VsZ6rxSevRs3F24Lt9M/7b06Hhgf1EPyGrASNCYjmfN6nFyV6rWAbj0+OL6hDxS1V5cn7T9xf7bV2K/DLtXKWqa4IfRqqrU1pKSdo30CYrIdzPckg+nbF8JUGuUB0I7dVqRdSV4Xg/mmh5A0pUoV6U4aYIHgSOq7EamTrNgkJzHlNnNhoUEdm1PR0pIzQ0y5zcXJLc5b9aEVC7BZT2gJi3Ks4C/g3Ds6NXNWbvnIKjVliZVJ6wLhDWV0htfR4HXoGyQBL9KWpEqHsSw39b/AuUz4xJSqU7CovCZUWosFsTm/TnRsSIUaQKPjVUJo9hmzshnqyXc2Mnr/l00+zGh/pr030zujlqTSfPftWpHnoW6UfDDsIBTA0+XEswYMfs1iCKv29nWX8rlVla250ThZNpRz88JhaovrD8yn7mhVibMcHwSCs52sc2k+bildETjhAysHPumnJP7abDd2zqSzebumb/mxvYzsgXxz0kE4ieNuiT4YXBgyY6QN0+1Zm2IhuQ8xqejZKhwJbCUoh5gLAtE39ShmftCcVU2d9aMFC9CtQjeWFJsKovYj6R667RuazLeaSdz5dvn7BnblGNk1JOYEWVF73Mb83VL6sOoe4I/DQ52rwahgx2XrGyPPw8UPbAblcAUbnfLAi0sxfLGjJWnAxIwvPN1GJUTHOvkMkXYr5h+fk7c3uSIBpBDtk3hUqZPwAhkAfaeWr7ddSlsrcjc2gNV7Huq3nct5jjqxK0nRI7gDM8M2ZAaX92TGrU0GdkXFJCfVQLnUfeN5Kg6ao7SrSjRCbqKe24oP4xKCQ55Ey1pG4kIoklrEmQzUhEvcLJWYkMANovPPa2eerkwbUEkASPbxAn7rBO1nhE5gj8N0ovYFaqZRhYd3gkk8bGVVkkhOkpHTphgDNIQmG1ur9n3eFmG/zAER7FbmhL6uVKm0PSFZOI9ptwEkxSqKiU1BOYkJBvibMiMjkSPlNzL5rOjjMgT/DCCHgzK1bTWdrcPSUOjlY0sOKsEpupK6EIxZ2pI5iG/tWCK+P3hn1oz04twb+FPcnP299Yzw+frSboRh5RfpTaE8WYfJTbrtG+pPfpEHix/IcvrU+a5TwtOFcEZ3gnWWlURyT4QhPZlzhnRUfrKAJmcomNRtnYLlksnaBvuunpkQYri0mzuvpGb9F6iJWX2CsJXEi8EWSBUeqUwYzYE5ebks9FF1fw4uf16w6ki+GGQXaGDrle9OV115I+xLdgBF5S6/pdKgHoz/HMS8V4vAlXUDVX/IN1XSUYE30ywC4HJ8EDm5cKUI7laEqxTtaqz9YZTS/AAQVCK1x3pes3y6T3twxagchJUDnZruQoc5rXfBX6/qCPHo5UbMrF8Qyb1njw+ZfQoBYyV4NQTHKCakJksCxYBFae9lgalXvXEQSGllhDYIfz10vqk3bAi+GtGBKzKaSc38AR/BvC+XUwI0GBvQINRK+Er+VF1ug8pvLwK0NzkMiJka7Aiy1aYWVh7ZJYEb01Q6fEEnuDPAaruCi3NpX7qizLUccV6PyD6qwANYAtrE/Jw+UsrOOG1rXCzv2eK7ayOx2F4gpcBgk/SdgSCZFvIeJBTZ3Izz58kCBCxHjQ6LRdmLI9NGpLnSU96vBie4CGBVckk+qyxi3w1Xp3Fh1gkhzTkcWA1RFVkls6gYkrmA4+9qBZkKnfb2lUhtkf58AQPCawLKUSCTuaMUm0cLmVfyKcfB9gMyE1ufH5t3E3AsEpp3mau1/rkglqEJ/gx8KSTsd8mYLjekV6zMtgaFP2ovLYrEhUfd/NZJ59+j98miKQ/5DQVZqoNT/AqATKTYhzouGDldpt4EHOZl1gzixA96WTEhjhib1tRiOIMzU9MKpjL3TdCR6mj71XCE7xKoOqJWpMzh+ykE3vTzLI5b/0okD8oHOGtqWCSCZnL35f5/Lg1axV3ChY4Upn0GZHqwBP8BEG2hV4UAlKC0KB5KlBurAiBI/f0aDtie1QTnuAekUZNLb7p4VFteIJ7RBqe4B6Rhie4R6ThCe4RaXiCe0QanuAekYYnuEek4QnuEWl4gntEGp7gHpGGJ7hHpOEJ7hFpeIJ7RBqe4B6Rhie4R6ThCe4RYYj8P9dRQslMtIy4AAAAAElFTkSuQmCC;clipPath=inset(0.63% 1.09% 0.63% 0% round 9%);" vertex="1" parent="1">
          <mxGeometry x="45" y="320.43" width="24" height="20.57" as="geometry" />
        </mxCell>
      </root>
    </mxGraphModel>
  </diagram>
</mxfile>
